<?xml version="1.0" encoding="utf-8" standalone="no"?>
<!DOCTYPE svg PUBLIC "-//W3C//DTD SVG 1.1//EN"
  "http://www.w3.org/Graphics/SVG/1.1/DTD/svg11.dtd">
<svg xmlns:xlink="http://www.w3.org/1999/xlink" width="432pt" height="288pt" viewBox="0 0 432 288" xmlns="http://www.w3.org/2000/svg" version="1.1">
 <metadata>
  <rdf:RDF xmlns:dc="http://purl.org/dc/elements/1.1/" xmlns:cc="http://creativecommons.org/ns#" xmlns:rdf="http://www.w3.org/1999/02/22-rdf-syntax-ns#">
   <cc:Work>
    <dc:type rdf:resource="http://purl.org/dc/dcmitype/StillImage"/>
    <dc:date>2025-03-12T12:00:47.904280</dc:date>
    <dc:format>image/svg+xml</dc:format>
    <dc:creator>
     <cc:Agent>
      <dc:title>Matplotlib v3.5.2, https://matplotlib.org/</dc:title>
     </cc:Agent>
    </dc:creator>
   </cc:Work>
  </rdf:RDF>
 </metadata>
 <defs>
  <style type="text/css">*{stroke-linejoin: round; stroke-linecap: butt}</style>
 </defs>
 <g id="figure_1">
  <g id="patch_1">
   <path d="M 0 288 
L 432 288 
L 432 0 
L 0 0 
L 0 288 
z
" style="fill: none"/>
  </g>
  <g id="axes_1">
   <g id="patch_2">
    <path d="M 54 252 
L 388.8 252 
L 388.8 34.56 
L 54 34.56 
z
" style="fill: #ffffff"/>
   </g>
   <g id="matplotlib.axis_1">
    <g id="xtick_1">
     <g id="line2d_1">
      <defs>
       <path id="m6c3f7a4f40" d="M 0 0 
L 0 3.5 
" style="stroke: #000000; stroke-width: 0.8"/>
      </defs>
      <g>
       <use xlink:href="#m6c3f7a4f40" x="69.218182" y="252" style="stroke: #000000; stroke-width: 0.8"/>
      </g>
     </g>
     <g id="text_1">
      <!-- 50 -->
      <g transform="translate(62.855682 266.598437)scale(0.1 -0.1)">
       <defs>
        <path id="DejaVuSans-35" d="M 691 4666 
L 3169 4666 
L 3169 4134 
L 1269 4134 
L 1269 2991 
Q 1406 3038 1543 3061 
Q 1681 3084 1819 3084 
Q 2600 3084 3056 2656 
Q 3513 2228 3513 1497 
Q 3513 744 3044 326 
Q 2575 -91 1722 -91 
Q 1428 -91 1123 -41 
Q 819 9 494 109 
L 494 744 
Q 775 591 1075 516 
Q 1375 441 1709 441 
Q 2250 441 2565 725 
Q 2881 1009 2881 1497 
Q 2881 1984 2565 2268 
Q 2250 2553 1709 2553 
Q 1456 2553 1204 2497 
Q 953 2441 691 2322 
L 691 4666 
z
" transform="scale(0.015625)"/>
        <path id="DejaVuSans-30" d="M 2034 4250 
Q 1547 4250 1301 3770 
Q 1056 3291 1056 2328 
Q 1056 1369 1301 889 
Q 1547 409 2034 409 
Q 2525 409 2770 889 
Q 3016 1369 3016 2328 
Q 3016 3291 2770 3770 
Q 2525 4250 2034 4250 
z
M 2034 4750 
Q 2819 4750 3233 4129 
Q 3647 3509 3647 2328 
Q 3647 1150 3233 529 
Q 2819 -91 2034 -91 
Q 1250 -91 836 529 
Q 422 1150 422 2328 
Q 422 3509 836 4129 
Q 1250 4750 2034 4750 
z
" transform="scale(0.015625)"/>
       </defs>
       <use xlink:href="#DejaVuSans-35"/>
       <use xlink:href="#DejaVuSans-30" x="63.623047"/>
      </g>
     </g>
    </g>
    <g id="xtick_2">
     <g id="line2d_2">
      <g>
       <use xlink:href="#m6c3f7a4f40" x="107.745224" y="252" style="stroke: #000000; stroke-width: 0.8"/>
      </g>
     </g>
     <g id="text_2">
      <!-- 60 -->
      <g transform="translate(101.382724 266.598437)scale(0.1 -0.1)">
       <defs>
        <path id="DejaVuSans-36" d="M 2113 2584 
Q 1688 2584 1439 2293 
Q 1191 2003 1191 1497 
Q 1191 994 1439 701 
Q 1688 409 2113 409 
Q 2538 409 2786 701 
Q 3034 994 3034 1497 
Q 3034 2003 2786 2293 
Q 2538 2584 2113 2584 
z
M 3366 4563 
L 3366 3988 
Q 3128 4100 2886 4159 
Q 2644 4219 2406 4219 
Q 1781 4219 1451 3797 
Q 1122 3375 1075 2522 
Q 1259 2794 1537 2939 
Q 1816 3084 2150 3084 
Q 2853 3084 3261 2657 
Q 3669 2231 3669 1497 
Q 3669 778 3244 343 
Q 2819 -91 2113 -91 
Q 1303 -91 875 529 
Q 447 1150 447 2328 
Q 447 3434 972 4092 
Q 1497 4750 2381 4750 
Q 2619 4750 2861 4703 
Q 3103 4656 3366 4563 
z
" transform="scale(0.015625)"/>
       </defs>
       <use xlink:href="#DejaVuSans-36"/>
       <use xlink:href="#DejaVuSans-30" x="63.623047"/>
      </g>
     </g>
    </g>
    <g id="xtick_3">
     <g id="line2d_3">
      <g>
       <use xlink:href="#m6c3f7a4f40" x="146.272267" y="252" style="stroke: #000000; stroke-width: 0.8"/>
      </g>
     </g>
     <g id="text_3">
      <!-- 70 -->
      <g transform="translate(139.909767 266.598437)scale(0.1 -0.1)">
       <defs>
        <path id="DejaVuSans-37" d="M 525 4666 
L 3525 4666 
L 3525 4397 
L 1831 0 
L 1172 0 
L 2766 4134 
L 525 4134 
L 525 4666 
z
" transform="scale(0.015625)"/>
       </defs>
       <use xlink:href="#DejaVuSans-37"/>
       <use xlink:href="#DejaVuSans-30" x="63.623047"/>
      </g>
     </g>
    </g>
    <g id="xtick_4">
     <g id="line2d_4">
      <g>
       <use xlink:href="#m6c3f7a4f40" x="184.79931" y="252" style="stroke: #000000; stroke-width: 0.8"/>
      </g>
     </g>
     <g id="text_4">
      <!-- 80 -->
      <g transform="translate(178.43681 266.598437)scale(0.1 -0.1)">
       <defs>
        <path id="DejaVuSans-38" d="M 2034 2216 
Q 1584 2216 1326 1975 
Q 1069 1734 1069 1313 
Q 1069 891 1326 650 
Q 1584 409 2034 409 
Q 2484 409 2743 651 
Q 3003 894 3003 1313 
Q 3003 1734 2745 1975 
Q 2488 2216 2034 2216 
z
M 1403 2484 
Q 997 2584 770 2862 
Q 544 3141 544 3541 
Q 544 4100 942 4425 
Q 1341 4750 2034 4750 
Q 2731 4750 3128 4425 
Q 3525 4100 3525 3541 
Q 3525 3141 3298 2862 
Q 3072 2584 2669 2484 
Q 3125 2378 3379 2068 
Q 3634 1759 3634 1313 
Q 3634 634 3220 271 
Q 2806 -91 2034 -91 
Q 1263 -91 848 271 
Q 434 634 434 1313 
Q 434 1759 690 2068 
Q 947 2378 1403 2484 
z
M 1172 3481 
Q 1172 3119 1398 2916 
Q 1625 2713 2034 2713 
Q 2441 2713 2670 2916 
Q 2900 3119 2900 3481 
Q 2900 3844 2670 4047 
Q 2441 4250 2034 4250 
Q 1625 4250 1398 4047 
Q 1172 3844 1172 3481 
z
" transform="scale(0.015625)"/>
       </defs>
       <use xlink:href="#DejaVuSans-38"/>
       <use xlink:href="#DejaVuSans-30" x="63.623047"/>
      </g>
     </g>
    </g>
    <g id="xtick_5">
     <g id="line2d_5">
      <g>
       <use xlink:href="#m6c3f7a4f40" x="223.326352" y="252" style="stroke: #000000; stroke-width: 0.8"/>
      </g>
     </g>
     <g id="text_5">
      <!-- 90 -->
      <g transform="translate(216.963852 266.598437)scale(0.1 -0.1)">
       <defs>
        <path id="DejaVuSans-39" d="M 703 97 
L 703 672 
Q 941 559 1184 500 
Q 1428 441 1663 441 
Q 2288 441 2617 861 
Q 2947 1281 2994 2138 
Q 2813 1869 2534 1725 
Q 2256 1581 1919 1581 
Q 1219 1581 811 2004 
Q 403 2428 403 3163 
Q 403 3881 828 4315 
Q 1253 4750 1959 4750 
Q 2769 4750 3195 4129 
Q 3622 3509 3622 2328 
Q 3622 1225 3098 567 
Q 2575 -91 1691 -91 
Q 1453 -91 1209 -44 
Q 966 3 703 97 
z
M 1959 2075 
Q 2384 2075 2632 2365 
Q 2881 2656 2881 3163 
Q 2881 3666 2632 3958 
Q 2384 4250 1959 4250 
Q 1534 4250 1286 3958 
Q 1038 3666 1038 3163 
Q 1038 2656 1286 2365 
Q 1534 2075 1959 2075 
z
" transform="scale(0.015625)"/>
       </defs>
       <use xlink:href="#DejaVuSans-39"/>
       <use xlink:href="#DejaVuSans-30" x="63.623047"/>
      </g>
     </g>
    </g>
    <g id="xtick_6">
     <g id="line2d_6">
      <g>
       <use xlink:href="#m6c3f7a4f40" x="261.853395" y="252" style="stroke: #000000; stroke-width: 0.8"/>
      </g>
     </g>
     <g id="text_6">
      <!-- 100 -->
      <g transform="translate(252.309645 266.598437)scale(0.1 -0.1)">
       <defs>
        <path id="DejaVuSans-31" d="M 794 531 
L 1825 531 
L 1825 4091 
L 703 3866 
L 703 4441 
L 1819 4666 
L 2450 4666 
L 2450 531 
L 3481 531 
L 3481 0 
L 794 0 
L 794 531 
z
" transform="scale(0.015625)"/>
       </defs>
       <use xlink:href="#DejaVuSans-31"/>
       <use xlink:href="#DejaVuSans-30" x="63.623047"/>
       <use xlink:href="#DejaVuSans-30" x="127.246094"/>
      </g>
     </g>
    </g>
    <g id="xtick_7">
     <g id="line2d_7">
      <g>
       <use xlink:href="#m6c3f7a4f40" x="300.380437" y="252" style="stroke: #000000; stroke-width: 0.8"/>
      </g>
     </g>
     <g id="text_7">
      <!-- 110 -->
      <g transform="translate(290.836687 266.598437)scale(0.1 -0.1)">
       <use xlink:href="#DejaVuSans-31"/>
       <use xlink:href="#DejaVuSans-31" x="63.623047"/>
       <use xlink:href="#DejaVuSans-30" x="127.246094"/>
      </g>
     </g>
    </g>
    <g id="xtick_8">
     <g id="line2d_8">
      <g>
       <use xlink:href="#m6c3f7a4f40" x="338.90748" y="252" style="stroke: #000000; stroke-width: 0.8"/>
      </g>
     </g>
     <g id="text_8">
      <!-- 120 -->
      <g transform="translate(329.36373 266.598437)scale(0.1 -0.1)">
       <defs>
        <path id="DejaVuSans-32" d="M 1228 531 
L 3431 531 
L 3431 0 
L 469 0 
L 469 531 
Q 828 903 1448 1529 
Q 2069 2156 2228 2338 
Q 2531 2678 2651 2914 
Q 2772 3150 2772 3378 
Q 2772 3750 2511 3984 
Q 2250 4219 1831 4219 
Q 1534 4219 1204 4116 
Q 875 4013 500 3803 
L 500 4441 
Q 881 4594 1212 4672 
Q 1544 4750 1819 4750 
Q 2544 4750 2975 4387 
Q 3406 4025 3406 3419 
Q 3406 3131 3298 2873 
Q 3191 2616 2906 2266 
Q 2828 2175 2409 1742 
Q 1991 1309 1228 531 
z
" transform="scale(0.015625)"/>
       </defs>
       <use xlink:href="#DejaVuSans-31"/>
       <use xlink:href="#DejaVuSans-32" x="63.623047"/>
       <use xlink:href="#DejaVuSans-30" x="127.246094"/>
      </g>
     </g>
    </g>
    <g id="xtick_9">
     <g id="line2d_9">
      <g>
       <use xlink:href="#m6c3f7a4f40" x="377.434522" y="252" style="stroke: #000000; stroke-width: 0.8"/>
      </g>
     </g>
     <g id="text_9">
      <!-- 130 -->
      <g transform="translate(367.890772 266.598437)scale(0.1 -0.1)">
       <defs>
        <path id="DejaVuSans-33" d="M 2597 2516 
Q 3050 2419 3304 2112 
Q 3559 1806 3559 1356 
Q 3559 666 3084 287 
Q 2609 -91 1734 -91 
Q 1441 -91 1130 -33 
Q 819 25 488 141 
L 488 750 
Q 750 597 1062 519 
Q 1375 441 1716 441 
Q 2309 441 2620 675 
Q 2931 909 2931 1356 
Q 2931 1769 2642 2001 
Q 2353 2234 1838 2234 
L 1294 2234 
L 1294 2753 
L 1863 2753 
Q 2328 2753 2575 2939 
Q 2822 3125 2822 3475 
Q 2822 3834 2567 4026 
Q 2313 4219 1838 4219 
Q 1578 4219 1281 4162 
Q 984 4106 628 3988 
L 628 4550 
Q 988 4650 1302 4700 
Q 1616 4750 1894 4750 
Q 2613 4750 3031 4423 
Q 3450 4097 3450 3541 
Q 3450 3153 3228 2886 
Q 3006 2619 2597 2516 
z
" transform="scale(0.015625)"/>
       </defs>
       <use xlink:href="#DejaVuSans-31"/>
       <use xlink:href="#DejaVuSans-33" x="63.623047"/>
       <use xlink:href="#DejaVuSans-30" x="127.246094"/>
      </g>
     </g>
    </g>
    <g id="text_10">
     <!-- $n$ -->
     <g transform="translate(218.2 280.276563)scale(0.1 -0.1)">
      <defs>
       <path id="DejaVuSans-Oblique-6e" d="M 3566 2113 
L 3156 0 
L 2578 0 
L 2988 2091 
Q 3016 2238 3031 2350 
Q 3047 2463 3047 2528 
Q 3047 2791 2881 2937 
Q 2716 3084 2419 3084 
Q 1956 3084 1622 2776 
Q 1288 2469 1184 1941 
L 800 0 
L 225 0 
L 903 3500 
L 1478 3500 
L 1363 2950 
Q 1603 3253 1940 3418 
Q 2278 3584 2650 3584 
Q 3113 3584 3367 3334 
Q 3622 3084 3622 2631 
Q 3622 2519 3608 2391 
Q 3594 2263 3566 2113 
z
" transform="scale(0.015625)"/>
      </defs>
      <use xlink:href="#DejaVuSans-Oblique-6e"/>
     </g>
    </g>
   </g>
   <g id="matplotlib.axis_2">
    <g id="ytick_1">
     <g id="line2d_10">
      <path d="M 54 249.385799 
L 388.8 249.385799 
" clip-path="url(#p1a56ef73fd)" style="fill: none; stroke: #b0b0b0; stroke-opacity: 0.5; stroke-width: 0.8; stroke-linecap: square"/>
     </g>
     <g id="line2d_11">
      <defs>
       <path id="m96d1efa0b3" d="M 0 0 
L -3.5 0 
" style="stroke: #000000; stroke-width: 0.8"/>
      </defs>
      <g>
       <use xlink:href="#m96d1efa0b3" x="54" y="249.385799" style="stroke: #000000; stroke-width: 0.8"/>
      </g>
     </g>
     <g id="text_11">
      <!-- 2 -->
      <g transform="translate(40.6375 253.185018)scale(0.1 -0.1)">
       <use xlink:href="#DejaVuSans-32"/>
      </g>
     </g>
    </g>
    <g id="ytick_2">
     <g id="line2d_12">
      <path d="M 54 204.650811 
L 388.8 204.650811 
" clip-path="url(#p1a56ef73fd)" style="fill: none; stroke: #b0b0b0; stroke-opacity: 0.5; stroke-width: 0.8; stroke-linecap: square"/>
     </g>
     <g id="line2d_13">
      <g>
       <use xlink:href="#m96d1efa0b3" x="54" y="204.650811" style="stroke: #000000; stroke-width: 0.8"/>
      </g>
     </g>
     <g id="text_12">
      <!-- 4 -->
      <g transform="translate(40.6375 208.45003)scale(0.1 -0.1)">
       <defs>
        <path id="DejaVuSans-34" d="M 2419 4116 
L 825 1625 
L 2419 1625 
L 2419 4116 
z
M 2253 4666 
L 3047 4666 
L 3047 1625 
L 3713 1625 
L 3713 1100 
L 3047 1100 
L 3047 0 
L 2419 0 
L 2419 1100 
L 313 1100 
L 313 1709 
L 2253 4666 
z
" transform="scale(0.015625)"/>
       </defs>
       <use xlink:href="#DejaVuSans-34"/>
      </g>
     </g>
    </g>
    <g id="ytick_3">
     <g id="line2d_14">
      <path d="M 54 159.915824 
L 388.8 159.915824 
" clip-path="url(#p1a56ef73fd)" style="fill: none; stroke: #b0b0b0; stroke-opacity: 0.5; stroke-width: 0.8; stroke-linecap: square"/>
     </g>
     <g id="line2d_15">
      <g>
       <use xlink:href="#m96d1efa0b3" x="54" y="159.915824" style="stroke: #000000; stroke-width: 0.8"/>
      </g>
     </g>
     <g id="text_13">
      <!-- 6 -->
      <g transform="translate(40.6375 163.715042)scale(0.1 -0.1)">
       <use xlink:href="#DejaVuSans-36"/>
      </g>
     </g>
    </g>
    <g id="ytick_4">
     <g id="line2d_16">
      <path d="M 54 115.180836 
L 388.8 115.180836 
" clip-path="url(#p1a56ef73fd)" style="fill: none; stroke: #b0b0b0; stroke-opacity: 0.5; stroke-width: 0.8; stroke-linecap: square"/>
     </g>
     <g id="line2d_17">
      <g>
       <use xlink:href="#m96d1efa0b3" x="54" y="115.180836" style="stroke: #000000; stroke-width: 0.8"/>
      </g>
     </g>
     <g id="text_14">
      <!-- 8 -->
      <g transform="translate(40.6375 118.980055)scale(0.1 -0.1)">
       <use xlink:href="#DejaVuSans-38"/>
      </g>
     </g>
    </g>
    <g id="ytick_5">
     <g id="line2d_18">
      <path d="M 54 70.445848 
L 388.8 70.445848 
" clip-path="url(#p1a56ef73fd)" style="fill: none; stroke: #b0b0b0; stroke-opacity: 0.5; stroke-width: 0.8; stroke-linecap: square"/>
     </g>
     <g id="line2d_19">
      <g>
       <use xlink:href="#m96d1efa0b3" x="54" y="70.445848" style="stroke: #000000; stroke-width: 0.8"/>
      </g>
     </g>
     <g id="text_15">
      <!-- 10 -->
      <g transform="translate(34.275 74.245067)scale(0.1 -0.1)">
       <use xlink:href="#DejaVuSans-31"/>
       <use xlink:href="#DejaVuSans-30" x="63.623047"/>
      </g>
     </g>
    </g>
    <g id="text_16">
     <!-- $|ALG|$ -->
     <g transform="translate(18.12 156.73)rotate(-90)scale(0.1 -0.1)">
      <defs>
       <path id="DejaVuSans-7c" d="M 1344 4891 
L 1344 -1509 
L 813 -1509 
L 813 4891 
L 1344 4891 
z
" transform="scale(0.015625)"/>
       <path id="DejaVuSans-Oblique-41" d="M 2356 4666 
L 3072 4666 
L 3938 0 
L 3278 0 
L 3084 1197 
L 984 1197 
L 325 0 
L -341 0 
L 2356 4666 
z
M 2584 4044 
L 1275 1722 
L 2988 1722 
L 2584 4044 
z
" transform="scale(0.015625)"/>
       <path id="DejaVuSans-Oblique-4c" d="M 1075 4666 
L 1709 4666 
L 909 525 
L 3181 525 
L 3078 0 
L 172 0 
L 1075 4666 
z
" transform="scale(0.015625)"/>
       <path id="DejaVuSans-Oblique-47" d="M 3494 697 
L 3738 1919 
L 2700 1919 
L 2797 2438 
L 4453 2438 
L 4050 384 
Q 3634 156 3143 32 
Q 2653 -91 2156 -91 
Q 1278 -91 783 396 
Q 288 884 288 1753 
Q 288 2475 589 3126 
Q 891 3778 1422 4213 
Q 1756 4484 2153 4617 
Q 2550 4750 3034 4750 
Q 3472 4750 3873 4639 
Q 4275 4528 4641 4306 
L 4513 3634 
Q 4231 3928 3853 4083 
Q 3475 4238 3047 4238 
Q 2550 4238 2172 4048 
Q 1794 3859 1497 3463 
Q 1244 3125 1098 2667 
Q 953 2209 953 1734 
Q 953 1081 1287 751 
Q 1622 422 2284 422 
Q 2616 422 2925 492 
Q 3234 563 3494 697 
z
" transform="scale(0.015625)"/>
      </defs>
      <use xlink:href="#DejaVuSans-7c" transform="translate(0 0.578125)"/>
      <use xlink:href="#DejaVuSans-Oblique-41" transform="translate(33.691406 0.578125)"/>
      <use xlink:href="#DejaVuSans-Oblique-4c" transform="translate(102.099609 0.578125)"/>
      <use xlink:href="#DejaVuSans-Oblique-47" transform="translate(157.8125 0.578125)"/>
      <use xlink:href="#DejaVuSans-7c" transform="translate(235.302734 0.578125)"/>
     </g>
    </g>
   </g>
   <g id="line2d_20">
    <path d="M 69.218182 211.36106 
L 73.070886 212.479434 
L 76.92359 211.36106 
L 80.776295 206.328373 
L 84.628999 203.81203 
L 88.481703 209.403904 
L 92.334407 205.209999 
L 96.187112 203.81203 
L 100.039816 201.854875 
L 103.89252 205.489592 
L 107.745224 215.834558 
L 111.597929 213.597809 
L 115.450633 205.769186 
L 119.303337 204.371218 
L 123.156041 215.834558 
L 127.008746 202.973249 
L 130.86145 212.199841 
L 134.714154 209.683497 
L 138.566858 200.456906 
L 142.419563 191.230315 
L 146.272267 200.177313 
L 150.124971 190.950721 
L 153.977675 186.197629 
L 157.83038 204.091624 
L 161.683084 203.252843 
L 165.535788 183.96088 
L 169.388493 206.607967 
L 173.241197 200.177313 
L 177.093901 195.144626 
L 180.946605 186.477223 
L 184.79931 188.713972 
L 188.652014 180.885349 
L 192.504718 199.338532 
L 196.357422 182.562911 
L 200.210127 190.950721 
L 204.062831 185.079254 
L 207.915535 182.842505 
L 211.768239 186.477223 
L 215.620944 193.746658 
L 219.473648 192.907877 
L 223.326352 194.305845 
L 227.179056 195.703814 
L 231.031761 177.250631 
L 234.884465 211.081466 
L 238.737169 193.187471 
L 242.589873 193.467064 
L 246.442578 178.369006 
L 250.295282 185.358848 
L 254.147986 186.197629 
L 258.00069 189.832347 
L 261.853395 170.819977 
L 265.706099 185.638442 
L 269.558803 185.079254 
L 273.411507 174.734288 
L 277.264212 191.789502 
L 281.116916 176.41185 
L 284.96962 161.872979 
L 288.822325 171.658758 
L 292.675029 178.6486 
L 296.527733 161.313792 
L 300.380437 175.573069 
L 304.233142 187.316004 
L 308.085846 169.981196 
L 311.93855 184.240473 
L 315.791254 169.142415 
L 319.643959 161.034198 
L 323.496663 157.679074 
L 327.349367 178.089412 
L 331.202071 168.862821 
L 335.054776 181.72413 
L 338.90748 172.777133 
L 342.760184 170.819977 
L 346.612888 169.142415 
L 350.465593 157.399481 
L 354.318297 164.389322 
L 358.171001 147.893296 
L 362.023705 175.293476 
L 365.87641 144.538172 
L 369.729114 180.326162 
L 373.581818 165.228103 
" clip-path="url(#p1a56ef73fd)" style="fill: none; stroke: #1f77b4; stroke-width: 1.5; stroke-linecap: square"/>
   </g>
   <g id="line2d_21">
    <path d="M 69.218182 172.217945 
L 73.070886 185.638442 
L 76.92359 209.403904 
L 80.776295 181.164943 
L 84.628999 186.756816 
L 88.481703 193.187471 
L 92.334407 130.558488 
L 96.187112 180.605755 
L 100.039816 197.66097 
L 103.89252 190.950721 
L 107.745224 200.177313 
L 111.597929 200.456906 
L 115.450633 186.197629 
L 119.303337 183.96088 
L 123.156041 174.734288 
L 127.008746 171.099571 
L 130.86145 168.303634 
L 134.714154 177.250631 
L 138.566858 159.915824 
L 142.419563 154.603544 
L 146.272267 174.734288 
L 150.124971 173.895507 
L 153.977675 175.013882 
L 157.83038 180.326162 
L 161.683084 187.316004 
L 165.535788 151.528013 
L 169.388493 166.346478 
L 173.241197 185.358848 
L 177.093901 140.903454 
L 180.946605 164.94851 
L 184.79931 168.02404 
L 188.652014 167.185259 
L 192.504718 159.356636 
L 196.357422 153.205575 
L 200.210127 165.507697 
L 204.062831 175.852663 
L 207.915535 144.538172 
L 211.768239 136.429955 
L 215.620944 163.270948 
L 219.473648 186.477223 
L 223.326352 164.109729 
L 227.179056 148.732077 
L 231.031761 134.472799 
L 234.884465 121.61149 
L 238.737169 147.054515 
L 242.589873 186.756816 
L 246.442578 159.356636 
L 250.295282 147.613702 
L 254.147986 131.676863 
L 258.00069 177.530225 
L 261.853395 148.452483 
L 265.706099 175.852663 
L 269.558803 157.679074 
L 273.411507 135.870768 
L 277.264212 159.356636 
L 281.116916 121.052303 
L 284.96962 138.946298 
L 288.822325 133.354425 
L 292.675029 150.130045 
L 296.527733 116.858398 
L 300.380437 124.127833 
L 304.233142 151.528013 
L 308.085846 107.9114 
L 311.93855 144.258578 
L 315.791254 135.591174 
L 319.643959 93.652123 
L 323.496663 122.450271 
L 327.349367 121.891084 
L 331.202071 149.570858 
L 335.054776 156.001512 
L 338.90748 116.019617 
L 342.760184 111.825712 
L 346.612888 156.840293 
L 350.465593 121.891084 
L 354.318297 115.180836 
L 358.171001 110.427743 
L 362.023705 125.525802 
L 365.87641 106.793026 
L 369.729114 142.581016 
L 373.581818 136.150361 
" clip-path="url(#p1a56ef73fd)" style="fill: none; stroke-dasharray: 1.5,2.475; stroke-dashoffset: 0; stroke: #1f77b4; stroke-width: 1.5"/>
   </g>
   <g id="line2d_22">
    <path d="M 69.218182 134.752393 
L 73.070886 131.397269 
L 76.92359 130.558488 
L 80.776295 128.042145 
L 84.628999 109.588962 
L 88.481703 132.23605 
L 92.334407 130.838082 
L 96.187112 126.92377 
L 100.039816 106.233838 
L 103.89252 124.687021 
L 107.745224 125.525802 
L 111.597929 128.321738 
L 115.450633 122.450271 
L 119.303337 124.407427 
L 123.156041 132.23605 
L 127.008746 120.493116 
L 130.86145 127.203364 
L 134.714154 114.062461 
L 138.566858 119.654335 
L 142.419563 97.007247 
L 146.272267 122.450271 
L 150.124971 110.986931 
L 153.977675 104.83587 
L 157.83038 115.460429 
L 161.683084 112.944086 
L 165.535788 107.072619 
L 169.388493 123.009459 
L 173.241197 104.83587 
L 177.093901 114.062461 
L 180.946605 107.9114 
L 184.79931 107.631807 
L 188.652014 86.662281 
L 192.504718 112.664493 
L 196.357422 89.458218 
L 200.210127 102.59912 
L 204.062831 104.83587 
L 207.915535 87.780656 
L 211.768239 96.44806 
L 215.620944 92.813342 
L 219.473648 103.158308 
L 223.326352 89.737811 
L 227.179056 88.060249 
L 231.031761 83.586751 
L 234.884465 116.29921 
L 238.737169 93.092936 
L 242.589873 116.29921 
L 246.442578 72.12341 
L 250.295282 90.296999 
L 254.147986 100.362371 
L 258.00069 85.264313 
L 261.853395 70.725442 
L 265.706099 92.813342 
L 269.558803 69.607067 
L 273.411507 68.768286 
L 277.264212 86.662281 
L 281.116916 97.286841 
L 284.96962 64.853975 
L 288.822325 76.317315 
L 292.675029 65.972349 
L 296.527733 73.521378 
L 300.380437 67.929505 
L 304.233142 83.307157 
L 308.085846 58.42332 
L 311.93855 69.886661 
L 315.791254 63.456006 
L 319.643959 53.670228 
L 323.496663 56.186571 
L 327.349367 62.337631 
L 331.202071 57.584539 
L 335.054776 74.919347 
L 338.90748 62.896819 
L 342.760184 77.43569 
L 346.612888 78.833658 
L 350.465593 48.357948 
L 354.318297 59.262101 
L 358.171001 51.713072 
L 362.023705 66.531537 
L 365.87641 44.443636 
L 369.729114 73.241785 
L 373.581818 52.551853 
" clip-path="url(#p1a56ef73fd)" style="fill: none; stroke: #ff7f0e; stroke-width: 1.5; stroke-linecap: square"/>
   </g>
   <g id="line2d_23">
    <path d="M 69.218182 138.107517 
L 73.070886 135.31158 
L 76.92359 135.031987 
L 80.776295 130.558488 
L 84.628999 112.664493 
L 88.481703 136.989142 
L 92.334407 134.472799 
L 96.187112 130.838082 
L 100.039816 109.588962 
L 103.89252 128.601332 
L 107.745224 128.601332 
L 111.597929 131.956456 
L 115.450633 124.407427 
L 119.303337 129.160519 
L 123.156041 135.31158 
L 127.008746 124.966614 
L 130.86145 129.440113 
L 134.714154 116.29921 
L 138.566858 123.568646 
L 142.419563 100.641965 
L 146.272267 126.364583 
L 150.124971 114.342055 
L 153.977675 110.14815 
L 157.83038 119.374741 
L 161.683084 116.858398 
L 165.535788 110.707337 
L 169.388493 127.203364 
L 173.241197 109.868556 
L 177.093901 118.815554 
L 180.946605 111.266524 
L 184.79931 111.266524 
L 188.652014 89.458218 
L 192.504718 116.578804 
L 196.357422 92.813342 
L 200.210127 105.674651 
L 204.062831 107.631807 
L 207.915535 91.13578 
L 211.768239 100.362371 
L 215.620944 96.727653 
L 219.473648 104.556276 
L 223.326352 93.652123 
L 227.179056 92.813342 
L 231.031761 88.619437 
L 234.884465 119.374741 
L 238.737169 95.050091 
L 242.589873 117.976773 
L 246.442578 75.478534 
L 250.295282 93.931717 
L 254.147986 103.158308 
L 258.00069 88.339843 
L 261.853395 74.080566 
L 265.706099 97.286841 
L 269.558803 71.284629 
L 273.411507 72.12341 
L 277.264212 89.458218 
L 281.116916 100.082777 
L 284.96962 67.929505 
L 288.822325 78.274471 
L 292.675029 71.005035 
L 296.527733 77.994877 
L 300.380437 71.005035 
L 304.233142 85.264313 
L 308.085846 62.337631 
L 311.93855 74.080566 
L 315.791254 69.607067 
L 319.643959 56.466164 
L 323.496663 59.541695 
L 327.349367 65.692756 
L 331.202071 60.380476 
L 335.054776 77.156096 
L 338.90748 65.413162 
L 342.760184 79.113252 
L 346.612888 82.188782 
L 350.465593 52.551853 
L 354.318297 61.778444 
L 358.171001 54.788602 
L 362.023705 69.886661 
L 365.87641 48.078354 
L 369.729114 76.876503 
L 373.581818 56.466164 
" clip-path="url(#p1a56ef73fd)" style="fill: none; stroke-dasharray: 1.5,2.475; stroke-dashoffset: 0; stroke: #ff7f0e; stroke-width: 1.5"/>
   </g>
   <g id="line2d_24">
    <path d="M 69.218182 242.116364 
L 73.070886 241.277583 
L 76.92359 241.277583 
L 80.776295 239.320427 
L 84.628999 233.44896 
L 88.481703 242.116364 
L 92.334407 241.277583 
L 96.187112 239.879614 
L 100.039816 232.050991 
L 103.89252 238.76124 
L 107.745224 239.320427 
L 111.597929 239.879614 
L 115.450633 237.922459 
L 119.303337 238.481646 
L 123.156041 241.83677 
L 127.008746 238.76124 
L 130.86145 239.600021 
L 134.714154 234.846928 
L 138.566858 237.083678 
L 142.419563 229.814242 
L 146.272267 238.202052 
L 150.124971 234.567334 
L 153.977675 233.169366 
L 157.83038 236.244896 
L 161.683084 234.846928 
L 165.535788 233.44896 
L 169.388493 239.040833 
L 173.241197 232.610179 
L 177.093901 235.965303 
L 180.946605 233.44896 
L 184.79931 233.728553 
L 188.652014 225.899931 
L 192.504718 235.406115 
L 196.357422 227.018305 
L 200.210127 231.491804 
L 204.062831 231.771398 
L 207.915535 226.459118 
L 211.768239 230.373429 
L 215.620944 228.416274 
L 219.473648 231.491804 
L 223.326352 227.577493 
L 227.179056 227.297899 
L 231.031761 225.620337 
L 234.884465 236.244896 
L 238.737169 227.857086 
L 242.589873 235.965303 
L 246.442578 221.146838 
L 250.295282 228.13668 
L 254.147986 230.653023 
L 258.00069 225.620337 
L 261.853395 221.146838 
L 265.706099 228.695867 
L 269.558803 220.308057 
L 273.411507 220.308057 
L 277.264212 225.899931 
L 281.116916 229.534648 
L 284.96962 219.469276 
L 288.822325 222.265213 
L 292.675029 219.74887 
L 296.527733 222.265213 
L 300.380437 220.308057 
L 304.233142 224.781556 
L 308.085846 217.232527 
L 311.93855 221.146838 
L 315.791254 219.469276 
L 319.643959 215.275371 
L 323.496663 216.114152 
L 327.349367 218.350901 
L 331.202071 216.673339 
L 335.054776 222.265213 
L 338.90748 217.791714 
L 342.760184 222.8244 
L 346.612888 223.663181 
L 350.465593 213.877403 
L 354.318297 216.952933 
L 358.171001 214.716184 
L 362.023705 219.189682 
L 365.87641 212.199841 
L 369.729114 221.985619 
L 373.581818 214.995777 
" clip-path="url(#p1a56ef73fd)" style="fill: none; stroke: #9467bd; stroke-width: 1.5; stroke-linecap: square"/>
   </g>
   <g id="patch_3">
    <path d="M 54 252 
L 54 34.56 
" style="fill: none; stroke: #000000; stroke-width: 0.8; stroke-linejoin: miter; stroke-linecap: square"/>
   </g>
   <g id="patch_4">
    <path d="M 388.8 252 
L 388.8 34.56 
" style="fill: none; stroke: #000000; stroke-width: 0.8; stroke-linejoin: miter; stroke-linecap: square"/>
   </g>
   <g id="patch_5">
    <path d="M 54 252 
L 388.8 252 
" style="fill: none; stroke: #000000; stroke-width: 0.8; stroke-linejoin: miter; stroke-linecap: square"/>
   </g>
   <g id="patch_6">
    <path d="M 54 34.56 
L 388.8 34.56 
" style="fill: none; stroke: #000000; stroke-width: 0.8; stroke-linejoin: miter; stroke-linecap: square"/>
   </g>
   <g id="legend_1">
    <g id="patch_7">
     <path d="M 61 115.950625 
L 149.1 115.950625 
Q 151.1 115.950625 151.1 113.950625 
L 151.1 41.56 
Q 151.1 39.56 149.1 39.56 
L 61 39.56 
Q 59 39.56 59 41.56 
L 59 113.950625 
Q 59 115.950625 61 115.950625 
z
" style="fill: #ffffff; opacity: 0.8; stroke: #cccccc; stroke-linejoin: miter"/>
    </g>
    <g id="line2d_25">
     <path d="M 63 47.658437 
L 73 47.658437 
L 83 47.658437 
" style="fill: none; stroke: #1f77b4; stroke-width: 1.5; stroke-linecap: square"/>
    </g>
    <g id="text_17">
     <!-- $PIVOT$ -->
     <g transform="translate(91 51.158437)scale(0.1 -0.1)">
      <defs>
       <path id="DejaVuSans-Oblique-50" d="M 1081 4666 
L 2541 4666 
Q 3178 4666 3512 4369 
Q 3847 4072 3847 3500 
Q 3847 2731 3353 2303 
Q 2859 1875 1966 1875 
L 1172 1875 
L 806 0 
L 172 0 
L 1081 4666 
z
M 1613 4147 
L 1275 2394 
L 2069 2394 
Q 2606 2394 2893 2669 
Q 3181 2944 3181 3456 
Q 3181 3784 2986 3965 
Q 2791 4147 2438 4147 
L 1613 4147 
z
" transform="scale(0.015625)"/>
       <path id="DejaVuSans-Oblique-49" d="M 1081 4666 
L 1716 4666 
L 806 0 
L 172 0 
L 1081 4666 
z
" transform="scale(0.015625)"/>
       <path id="DejaVuSans-Oblique-56" d="M 1319 0 
L 500 4666 
L 1119 4666 
L 1797 653 
L 4063 4666 
L 4750 4666 
L 2053 0 
L 1319 0 
z
" transform="scale(0.015625)"/>
       <path id="DejaVuSans-Oblique-4f" d="M 2919 4238 
Q 2400 4238 2003 3986 
Q 1606 3734 1313 3219 
Q 1125 2891 1026 2522 
Q 928 2153 928 1778 
Q 928 1128 1239 775 
Q 1550 422 2119 422 
Q 2631 422 3032 676 
Q 3434 931 3719 1434 
Q 3909 1772 4009 2142 
Q 4109 2513 4109 2881 
Q 4109 3528 3796 3883 
Q 3484 4238 2919 4238 
z
M 2100 -91 
Q 1241 -91 748 418 
Q 256 928 256 1813 
Q 256 2319 448 2847 
Q 641 3375 978 3788 
Q 1375 4272 1862 4511 
Q 2350 4750 2938 4750 
Q 3794 4750 4287 4245 
Q 4781 3741 4781 2869 
Q 4781 2331 4593 1812 
Q 4406 1294 4056 872 
Q 3656 384 3173 146 
Q 2691 -91 2100 -91 
z
" transform="scale(0.015625)"/>
       <path id="DejaVuSans-Oblique-54" d="M 378 4666 
L 4325 4666 
L 4225 4134 
L 2559 4134 
L 1759 0 
L 1125 0 
L 1925 4134 
L 275 4134 
L 378 4666 
z
" transform="scale(0.015625)"/>
      </defs>
      <use xlink:href="#DejaVuSans-Oblique-50" transform="translate(0 0.78125)"/>
      <use xlink:href="#DejaVuSans-Oblique-49" transform="translate(60.302734 0.78125)"/>
      <use xlink:href="#DejaVuSans-Oblique-56" transform="translate(89.794922 0.78125)"/>
      <use xlink:href="#DejaVuSans-Oblique-4f" transform="translate(158.203125 0.78125)"/>
      <use xlink:href="#DejaVuSans-Oblique-54" transform="translate(236.914062 0.78125)"/>
     </g>
    </g>
    <g id="line2d_26">
     <path d="M 63 62.336562 
L 73 62.336562 
L 83 62.336562 
" style="fill: none; stroke-dasharray: 1.5,2.475; stroke-dashoffset: 0; stroke: #1f77b4; stroke-width: 1.5"/>
    </g>
    <g id="text_18">
     <!-- $PIVOT(K_G)$ -->
     <g transform="translate(91 65.836562)scale(0.1 -0.1)">
      <defs>
       <path id="DejaVuSans-28" d="M 1984 4856 
Q 1566 4138 1362 3434 
Q 1159 2731 1159 2009 
Q 1159 1288 1364 580 
Q 1569 -128 1984 -844 
L 1484 -844 
Q 1016 -109 783 600 
Q 550 1309 550 2009 
Q 550 2706 781 3412 
Q 1013 4119 1484 4856 
L 1984 4856 
z
" transform="scale(0.015625)"/>
       <path id="DejaVuSans-Oblique-4b" d="M 1081 4666 
L 1716 4666 
L 1331 2700 
L 3781 4666 
L 4622 4666 
L 1850 2438 
L 3878 0 
L 3109 0 
L 1247 2272 
L 806 0 
L 172 0 
L 1081 4666 
z
" transform="scale(0.015625)"/>
       <path id="DejaVuSans-29" d="M 513 4856 
L 1013 4856 
Q 1481 4119 1714 3412 
Q 1947 2706 1947 2009 
Q 1947 1309 1714 600 
Q 1481 -109 1013 -844 
L 513 -844 
Q 928 -128 1133 580 
Q 1338 1288 1338 2009 
Q 1338 2731 1133 3434 
Q 928 4138 513 4856 
z
" transform="scale(0.015625)"/>
      </defs>
      <use xlink:href="#DejaVuSans-Oblique-50" transform="translate(0 0.125)"/>
      <use xlink:href="#DejaVuSans-Oblique-49" transform="translate(60.302734 0.125)"/>
      <use xlink:href="#DejaVuSans-Oblique-56" transform="translate(89.794922 0.125)"/>
      <use xlink:href="#DejaVuSans-Oblique-4f" transform="translate(158.203125 0.125)"/>
      <use xlink:href="#DejaVuSans-Oblique-54" transform="translate(236.914062 0.125)"/>
      <use xlink:href="#DejaVuSans-28" transform="translate(297.998047 0.125)"/>
      <use xlink:href="#DejaVuSans-Oblique-4b" transform="translate(337.011719 0.125)"/>
      <use xlink:href="#DejaVuSans-Oblique-47" transform="translate(402.587891 -16.28125)scale(0.7)"/>
      <use xlink:href="#DejaVuSans-29" transform="translate(459.56543 0.125)"/>
     </g>
    </g>
    <g id="line2d_27">
     <path d="M 63 77.014687 
L 73 77.014687 
L 83 77.014687 
" style="fill: none; stroke: #ff7f0e; stroke-width: 1.5; stroke-linecap: square"/>
    </g>
    <g id="text_19">
     <!-- $SPC_{GMR}$ -->
     <g transform="translate(91 80.514687)scale(0.1 -0.1)">
      <defs>
       <path id="DejaVuSans-Oblique-53" d="M 3859 4513 
L 3738 3897 
Q 3422 4066 3111 4152 
Q 2800 4238 2509 4238 
Q 1944 4238 1609 3991 
Q 1275 3744 1275 3334 
Q 1275 3109 1398 2989 
Q 1522 2869 2034 2731 
L 2413 2638 
Q 3053 2472 3303 2217 
Q 3553 1963 3553 1503 
Q 3553 797 2998 353 
Q 2444 -91 1538 -91 
Q 1166 -91 791 -17 
Q 416 56 38 206 
L 166 856 
Q 513 641 861 531 
Q 1209 422 1556 422 
Q 2147 422 2503 684 
Q 2859 947 2859 1369 
Q 2859 1650 2717 1795 
Q 2575 1941 2106 2059 
L 1728 2156 
Q 1081 2325 845 2545 
Q 609 2766 609 3163 
Q 609 3859 1145 4304 
Q 1681 4750 2541 4750 
Q 2875 4750 3203 4690 
Q 3531 4631 3859 4513 
z
" transform="scale(0.015625)"/>
       <path id="DejaVuSans-Oblique-43" d="M 4447 4306 
L 4319 3641 
Q 4019 3944 3683 4091 
Q 3347 4238 2956 4238 
Q 2422 4238 2017 3981 
Q 1613 3725 1319 3200 
Q 1131 2863 1032 2486 
Q 934 2109 934 1728 
Q 934 1091 1264 756 
Q 1594 422 2222 422 
Q 2656 422 3056 561 
Q 3456 700 3834 978 
L 3688 231 
Q 3316 72 2936 -9 
Q 2556 -91 2175 -91 
Q 1278 -91 773 396 
Q 269 884 269 1753 
Q 269 2309 461 2846 
Q 653 3384 1013 3828 
Q 1394 4300 1883 4525 
Q 2372 4750 3022 4750 
Q 3422 4750 3780 4639 
Q 4138 4528 4447 4306 
z
" transform="scale(0.015625)"/>
       <path id="DejaVuSans-Oblique-4d" d="M 1081 4666 
L 2028 4666 
L 2572 1522 
L 4378 4666 
L 5350 4666 
L 4441 0 
L 3828 0 
L 4622 4091 
L 2791 897 
L 2175 897 
L 1581 4103 
L 788 0 
L 172 0 
L 1081 4666 
z
" transform="scale(0.015625)"/>
       <path id="DejaVuSans-Oblique-52" d="M 1613 4147 
L 1294 2491 
L 2106 2491 
Q 2584 2491 2879 2755 
Q 3175 3019 3175 3444 
Q 3175 3784 2976 3965 
Q 2778 4147 2406 4147 
L 1613 4147 
z
M 2772 2241 
Q 2972 2194 3105 2009 
Q 3238 1825 3413 1275 
L 3809 0 
L 3144 0 
L 2778 1197 
Q 2638 1659 2453 1815 
Q 2269 1972 1888 1972 
L 1191 1972 
L 806 0 
L 172 0 
L 1081 4666 
L 2503 4666 
Q 3150 4666 3495 4373 
Q 3841 4081 3841 3531 
Q 3841 3044 3547 2687 
Q 3253 2331 2772 2241 
z
" transform="scale(0.015625)"/>
      </defs>
      <use xlink:href="#DejaVuSans-Oblique-53" transform="translate(0 0.78125)"/>
      <use xlink:href="#DejaVuSans-Oblique-50" transform="translate(63.476562 0.78125)"/>
      <use xlink:href="#DejaVuSans-Oblique-43" transform="translate(123.779297 0.78125)"/>
      <use xlink:href="#DejaVuSans-Oblique-47" transform="translate(193.603516 -15.625)scale(0.7)"/>
      <use xlink:href="#DejaVuSans-Oblique-4d" transform="translate(247.84668 -15.625)scale(0.7)"/>
      <use xlink:href="#DejaVuSans-Oblique-52" transform="translate(308.242188 -15.625)scale(0.7)"/>
     </g>
    </g>
    <g id="line2d_28">
     <path d="M 63 91.692813 
L 73 91.692813 
L 83 91.692813 
" style="fill: none; stroke-dasharray: 1.5,2.475; stroke-dashoffset: 0; stroke: #ff7f0e; stroke-width: 1.5"/>
    </g>
    <g id="text_20">
     <!-- $SPC_{GMR}(K_G)$ -->
     <g transform="translate(91 95.192813)scale(0.1 -0.1)">
      <use xlink:href="#DejaVuSans-Oblique-53" transform="translate(0 0.125)"/>
      <use xlink:href="#DejaVuSans-Oblique-50" transform="translate(63.476562 0.125)"/>
      <use xlink:href="#DejaVuSans-Oblique-43" transform="translate(123.779297 0.125)"/>
      <use xlink:href="#DejaVuSans-Oblique-47" transform="translate(193.603516 -16.28125)scale(0.7)"/>
      <use xlink:href="#DejaVuSans-Oblique-4d" transform="translate(247.84668 -16.28125)scale(0.7)"/>
      <use xlink:href="#DejaVuSans-Oblique-52" transform="translate(308.242188 -16.28125)scale(0.7)"/>
      <use xlink:href="#DejaVuSans-28" transform="translate(359.614258 0.125)"/>
      <use xlink:href="#DejaVuSans-Oblique-4b" transform="translate(398.62793 0.125)"/>
      <use xlink:href="#DejaVuSans-Oblique-47" transform="translate(464.204102 -16.28125)scale(0.7)"/>
      <use xlink:href="#DejaVuSans-29" transform="translate(521.181641 0.125)"/>
     </g>
    </g>
    <g id="line2d_29">
     <path d="M 63 106.370937 
L 73 106.370937 
L 83 106.370937 
" style="fill: none; stroke: #9467bd; stroke-width: 1.5; stroke-linecap: square"/>
    </g>
    <g id="text_21">
     <!-- DOMR -->
     <g transform="translate(91 109.870937)scale(0.1 -0.1)">
      <defs>
       <path id="DejaVuSans-44" d="M 1259 4147 
L 1259 519 
L 2022 519 
Q 2988 519 3436 956 
Q 3884 1394 3884 2338 
Q 3884 3275 3436 3711 
Q 2988 4147 2022 4147 
L 1259 4147 
z
M 628 4666 
L 1925 4666 
Q 3281 4666 3915 4102 
Q 4550 3538 4550 2338 
Q 4550 1131 3912 565 
Q 3275 0 1925 0 
L 628 0 
L 628 4666 
z
" transform="scale(0.015625)"/>
       <path id="DejaVuSans-4f" d="M 2522 4238 
Q 1834 4238 1429 3725 
Q 1025 3213 1025 2328 
Q 1025 1447 1429 934 
Q 1834 422 2522 422 
Q 3209 422 3611 934 
Q 4013 1447 4013 2328 
Q 4013 3213 3611 3725 
Q 3209 4238 2522 4238 
z
M 2522 4750 
Q 3503 4750 4090 4092 
Q 4678 3434 4678 2328 
Q 4678 1225 4090 567 
Q 3503 -91 2522 -91 
Q 1538 -91 948 565 
Q 359 1222 359 2328 
Q 359 3434 948 4092 
Q 1538 4750 2522 4750 
z
" transform="scale(0.015625)"/>
       <path id="DejaVuSans-4d" d="M 628 4666 
L 1569 4666 
L 2759 1491 
L 3956 4666 
L 4897 4666 
L 4897 0 
L 4281 0 
L 4281 4097 
L 3078 897 
L 2444 897 
L 1241 4097 
L 1241 0 
L 628 0 
L 628 4666 
z
" transform="scale(0.015625)"/>
       <path id="DejaVuSans-52" d="M 2841 2188 
Q 3044 2119 3236 1894 
Q 3428 1669 3622 1275 
L 4263 0 
L 3584 0 
L 2988 1197 
Q 2756 1666 2539 1819 
Q 2322 1972 1947 1972 
L 1259 1972 
L 1259 0 
L 628 0 
L 628 4666 
L 2053 4666 
Q 2853 4666 3247 4331 
Q 3641 3997 3641 3322 
Q 3641 2881 3436 2590 
Q 3231 2300 2841 2188 
z
M 1259 4147 
L 1259 2491 
L 2053 2491 
Q 2509 2491 2742 2702 
Q 2975 2913 2975 3322 
Q 2975 3731 2742 3939 
Q 2509 4147 2053 4147 
L 1259 4147 
z
" transform="scale(0.015625)"/>
      </defs>
      <use xlink:href="#DejaVuSans-44"/>
      <use xlink:href="#DejaVuSans-4f" x="77.001953"/>
      <use xlink:href="#DejaVuSans-4d" x="155.712891"/>
      <use xlink:href="#DejaVuSans-52" x="241.992188"/>
     </g>
    </g>
   </g>
  </g>
 </g>
 <defs>
  <clipPath id="p1a56ef73fd">
   <rect x="54" y="34.56" width="334.8" height="217.44"/>
  </clipPath>
 </defs>
</svg>
