<?xml version="1.0" encoding="utf-8" standalone="no"?>
<!DOCTYPE svg PUBLIC "-//W3C//DTD SVG 1.1//EN"
  "http://www.w3.org/Graphics/SVG/1.1/DTD/svg11.dtd">
<svg xmlns:xlink="http://www.w3.org/1999/xlink" width="432pt" height="288pt" viewBox="0 0 432 288" xmlns="http://www.w3.org/2000/svg" version="1.1">
 <metadata>
  <rdf:RDF xmlns:dc="http://purl.org/dc/elements/1.1/" xmlns:cc="http://creativecommons.org/ns#" xmlns:rdf="http://www.w3.org/1999/02/22-rdf-syntax-ns#">
   <cc:Work>
    <dc:type rdf:resource="http://purl.org/dc/dcmitype/StillImage"/>
    <dc:date>2024-07-05T09:22:35.851047</dc:date>
    <dc:format>image/svg+xml</dc:format>
    <dc:creator>
     <cc:Agent>
      <dc:title>Matplotlib v3.5.2, https://matplotlib.org/</dc:title>
     </cc:Agent>
    </dc:creator>
   </cc:Work>
  </rdf:RDF>
 </metadata>
 <defs>
  <style type="text/css">*{stroke-linejoin: round; stroke-linecap: butt}</style>
 </defs>
 <g id="figure_1">
  <g id="patch_1">
   <path d="M 0 288 
L 432 288 
L 432 0 
L 0 0 
L 0 288 
z
" style="fill: none"/>
  </g>
  <g id="axes_1">
   <g id="patch_2">
    <path d="M 54 252 
L 388.8 252 
L 388.8 34.56 
L 54 34.56 
z
" style="fill: #ffffff"/>
   </g>
   <g id="matplotlib.axis_1">
    <g id="xtick_1">
     <g id="line2d_1">
      <defs>
       <path id="m2cebdcb77e" d="M 0 0 
L 0 3.5 
" style="stroke: #000000; stroke-width: 0.8"/>
      </defs>
      <g>
       <use xlink:href="#m2cebdcb77e" x="69.218182" y="252" style="stroke: #000000; stroke-width: 0.8"/>
      </g>
     </g>
     <g id="text_1">
      <!-- 50 -->
      <g transform="translate(62.855682 266.598437)scale(0.1 -0.1)">
       <defs>
        <path id="DejaVuSans-35" d="M 691 4666 
L 3169 4666 
L 3169 4134 
L 1269 4134 
L 1269 2991 
Q 1406 3038 1543 3061 
Q 1681 3084 1819 3084 
Q 2600 3084 3056 2656 
Q 3513 2228 3513 1497 
Q 3513 744 3044 326 
Q 2575 -91 1722 -91 
Q 1428 -91 1123 -41 
Q 819 9 494 109 
L 494 744 
Q 775 591 1075 516 
Q 1375 441 1709 441 
Q 2250 441 2565 725 
Q 2881 1009 2881 1497 
Q 2881 1984 2565 2268 
Q 2250 2553 1709 2553 
Q 1456 2553 1204 2497 
Q 953 2441 691 2322 
L 691 4666 
z
" transform="scale(0.015625)"/>
        <path id="DejaVuSans-30" d="M 2034 4250 
Q 1547 4250 1301 3770 
Q 1056 3291 1056 2328 
Q 1056 1369 1301 889 
Q 1547 409 2034 409 
Q 2525 409 2770 889 
Q 3016 1369 3016 2328 
Q 3016 3291 2770 3770 
Q 2525 4250 2034 4250 
z
M 2034 4750 
Q 2819 4750 3233 4129 
Q 3647 3509 3647 2328 
Q 3647 1150 3233 529 
Q 2819 -91 2034 -91 
Q 1250 -91 836 529 
Q 422 1150 422 2328 
Q 422 3509 836 4129 
Q 1250 4750 2034 4750 
z
" transform="scale(0.015625)"/>
       </defs>
       <use xlink:href="#DejaVuSans-35"/>
       <use xlink:href="#DejaVuSans-30" x="63.623047"/>
      </g>
     </g>
    </g>
    <g id="xtick_2">
     <g id="line2d_2">
      <g>
       <use xlink:href="#m2cebdcb77e" x="107.745224" y="252" style="stroke: #000000; stroke-width: 0.8"/>
      </g>
     </g>
     <g id="text_2">
      <!-- 60 -->
      <g transform="translate(101.382724 266.598437)scale(0.1 -0.1)">
       <defs>
        <path id="DejaVuSans-36" d="M 2113 2584 
Q 1688 2584 1439 2293 
Q 1191 2003 1191 1497 
Q 1191 994 1439 701 
Q 1688 409 2113 409 
Q 2538 409 2786 701 
Q 3034 994 3034 1497 
Q 3034 2003 2786 2293 
Q 2538 2584 2113 2584 
z
M 3366 4563 
L 3366 3988 
Q 3128 4100 2886 4159 
Q 2644 4219 2406 4219 
Q 1781 4219 1451 3797 
Q 1122 3375 1075 2522 
Q 1259 2794 1537 2939 
Q 1816 3084 2150 3084 
Q 2853 3084 3261 2657 
Q 3669 2231 3669 1497 
Q 3669 778 3244 343 
Q 2819 -91 2113 -91 
Q 1303 -91 875 529 
Q 447 1150 447 2328 
Q 447 3434 972 4092 
Q 1497 4750 2381 4750 
Q 2619 4750 2861 4703 
Q 3103 4656 3366 4563 
z
" transform="scale(0.015625)"/>
       </defs>
       <use xlink:href="#DejaVuSans-36"/>
       <use xlink:href="#DejaVuSans-30" x="63.623047"/>
      </g>
     </g>
    </g>
    <g id="xtick_3">
     <g id="line2d_3">
      <g>
       <use xlink:href="#m2cebdcb77e" x="146.272267" y="252" style="stroke: #000000; stroke-width: 0.8"/>
      </g>
     </g>
     <g id="text_3">
      <!-- 70 -->
      <g transform="translate(139.909767 266.598437)scale(0.1 -0.1)">
       <defs>
        <path id="DejaVuSans-37" d="M 525 4666 
L 3525 4666 
L 3525 4397 
L 1831 0 
L 1172 0 
L 2766 4134 
L 525 4134 
L 525 4666 
z
" transform="scale(0.015625)"/>
       </defs>
       <use xlink:href="#DejaVuSans-37"/>
       <use xlink:href="#DejaVuSans-30" x="63.623047"/>
      </g>
     </g>
    </g>
    <g id="xtick_4">
     <g id="line2d_4">
      <g>
       <use xlink:href="#m2cebdcb77e" x="184.79931" y="252" style="stroke: #000000; stroke-width: 0.8"/>
      </g>
     </g>
     <g id="text_4">
      <!-- 80 -->
      <g transform="translate(178.43681 266.598437)scale(0.1 -0.1)">
       <defs>
        <path id="DejaVuSans-38" d="M 2034 2216 
Q 1584 2216 1326 1975 
Q 1069 1734 1069 1313 
Q 1069 891 1326 650 
Q 1584 409 2034 409 
Q 2484 409 2743 651 
Q 3003 894 3003 1313 
Q 3003 1734 2745 1975 
Q 2488 2216 2034 2216 
z
M 1403 2484 
Q 997 2584 770 2862 
Q 544 3141 544 3541 
Q 544 4100 942 4425 
Q 1341 4750 2034 4750 
Q 2731 4750 3128 4425 
Q 3525 4100 3525 3541 
Q 3525 3141 3298 2862 
Q 3072 2584 2669 2484 
Q 3125 2378 3379 2068 
Q 3634 1759 3634 1313 
Q 3634 634 3220 271 
Q 2806 -91 2034 -91 
Q 1263 -91 848 271 
Q 434 634 434 1313 
Q 434 1759 690 2068 
Q 947 2378 1403 2484 
z
M 1172 3481 
Q 1172 3119 1398 2916 
Q 1625 2713 2034 2713 
Q 2441 2713 2670 2916 
Q 2900 3119 2900 3481 
Q 2900 3844 2670 4047 
Q 2441 4250 2034 4250 
Q 1625 4250 1398 4047 
Q 1172 3844 1172 3481 
z
" transform="scale(0.015625)"/>
       </defs>
       <use xlink:href="#DejaVuSans-38"/>
       <use xlink:href="#DejaVuSans-30" x="63.623047"/>
      </g>
     </g>
    </g>
    <g id="xtick_5">
     <g id="line2d_5">
      <g>
       <use xlink:href="#m2cebdcb77e" x="223.326352" y="252" style="stroke: #000000; stroke-width: 0.8"/>
      </g>
     </g>
     <g id="text_5">
      <!-- 90 -->
      <g transform="translate(216.963852 266.598437)scale(0.1 -0.1)">
       <defs>
        <path id="DejaVuSans-39" d="M 703 97 
L 703 672 
Q 941 559 1184 500 
Q 1428 441 1663 441 
Q 2288 441 2617 861 
Q 2947 1281 2994 2138 
Q 2813 1869 2534 1725 
Q 2256 1581 1919 1581 
Q 1219 1581 811 2004 
Q 403 2428 403 3163 
Q 403 3881 828 4315 
Q 1253 4750 1959 4750 
Q 2769 4750 3195 4129 
Q 3622 3509 3622 2328 
Q 3622 1225 3098 567 
Q 2575 -91 1691 -91 
Q 1453 -91 1209 -44 
Q 966 3 703 97 
z
M 1959 2075 
Q 2384 2075 2632 2365 
Q 2881 2656 2881 3163 
Q 2881 3666 2632 3958 
Q 2384 4250 1959 4250 
Q 1534 4250 1286 3958 
Q 1038 3666 1038 3163 
Q 1038 2656 1286 2365 
Q 1534 2075 1959 2075 
z
" transform="scale(0.015625)"/>
       </defs>
       <use xlink:href="#DejaVuSans-39"/>
       <use xlink:href="#DejaVuSans-30" x="63.623047"/>
      </g>
     </g>
    </g>
    <g id="xtick_6">
     <g id="line2d_6">
      <g>
       <use xlink:href="#m2cebdcb77e" x="261.853395" y="252" style="stroke: #000000; stroke-width: 0.8"/>
      </g>
     </g>
     <g id="text_6">
      <!-- 100 -->
      <g transform="translate(252.309645 266.598437)scale(0.1 -0.1)">
       <defs>
        <path id="DejaVuSans-31" d="M 794 531 
L 1825 531 
L 1825 4091 
L 703 3866 
L 703 4441 
L 1819 4666 
L 2450 4666 
L 2450 531 
L 3481 531 
L 3481 0 
L 794 0 
L 794 531 
z
" transform="scale(0.015625)"/>
       </defs>
       <use xlink:href="#DejaVuSans-31"/>
       <use xlink:href="#DejaVuSans-30" x="63.623047"/>
       <use xlink:href="#DejaVuSans-30" x="127.246094"/>
      </g>
     </g>
    </g>
    <g id="xtick_7">
     <g id="line2d_7">
      <g>
       <use xlink:href="#m2cebdcb77e" x="300.380437" y="252" style="stroke: #000000; stroke-width: 0.8"/>
      </g>
     </g>
     <g id="text_7">
      <!-- 110 -->
      <g transform="translate(290.836687 266.598437)scale(0.1 -0.1)">
       <use xlink:href="#DejaVuSans-31"/>
       <use xlink:href="#DejaVuSans-31" x="63.623047"/>
       <use xlink:href="#DejaVuSans-30" x="127.246094"/>
      </g>
     </g>
    </g>
    <g id="xtick_8">
     <g id="line2d_8">
      <g>
       <use xlink:href="#m2cebdcb77e" x="338.90748" y="252" style="stroke: #000000; stroke-width: 0.8"/>
      </g>
     </g>
     <g id="text_8">
      <!-- 120 -->
      <g transform="translate(329.36373 266.598437)scale(0.1 -0.1)">
       <defs>
        <path id="DejaVuSans-32" d="M 1228 531 
L 3431 531 
L 3431 0 
L 469 0 
L 469 531 
Q 828 903 1448 1529 
Q 2069 2156 2228 2338 
Q 2531 2678 2651 2914 
Q 2772 3150 2772 3378 
Q 2772 3750 2511 3984 
Q 2250 4219 1831 4219 
Q 1534 4219 1204 4116 
Q 875 4013 500 3803 
L 500 4441 
Q 881 4594 1212 4672 
Q 1544 4750 1819 4750 
Q 2544 4750 2975 4387 
Q 3406 4025 3406 3419 
Q 3406 3131 3298 2873 
Q 3191 2616 2906 2266 
Q 2828 2175 2409 1742 
Q 1991 1309 1228 531 
z
" transform="scale(0.015625)"/>
       </defs>
       <use xlink:href="#DejaVuSans-31"/>
       <use xlink:href="#DejaVuSans-32" x="63.623047"/>
       <use xlink:href="#DejaVuSans-30" x="127.246094"/>
      </g>
     </g>
    </g>
    <g id="xtick_9">
     <g id="line2d_9">
      <g>
       <use xlink:href="#m2cebdcb77e" x="377.434522" y="252" style="stroke: #000000; stroke-width: 0.8"/>
      </g>
     </g>
     <g id="text_9">
      <!-- 130 -->
      <g transform="translate(367.890772 266.598437)scale(0.1 -0.1)">
       <defs>
        <path id="DejaVuSans-33" d="M 2597 2516 
Q 3050 2419 3304 2112 
Q 3559 1806 3559 1356 
Q 3559 666 3084 287 
Q 2609 -91 1734 -91 
Q 1441 -91 1130 -33 
Q 819 25 488 141 
L 488 750 
Q 750 597 1062 519 
Q 1375 441 1716 441 
Q 2309 441 2620 675 
Q 2931 909 2931 1356 
Q 2931 1769 2642 2001 
Q 2353 2234 1838 2234 
L 1294 2234 
L 1294 2753 
L 1863 2753 
Q 2328 2753 2575 2939 
Q 2822 3125 2822 3475 
Q 2822 3834 2567 4026 
Q 2313 4219 1838 4219 
Q 1578 4219 1281 4162 
Q 984 4106 628 3988 
L 628 4550 
Q 988 4650 1302 4700 
Q 1616 4750 1894 4750 
Q 2613 4750 3031 4423 
Q 3450 4097 3450 3541 
Q 3450 3153 3228 2886 
Q 3006 2619 2597 2516 
z
" transform="scale(0.015625)"/>
       </defs>
       <use xlink:href="#DejaVuSans-31"/>
       <use xlink:href="#DejaVuSans-33" x="63.623047"/>
       <use xlink:href="#DejaVuSans-30" x="127.246094"/>
      </g>
     </g>
    </g>
    <g id="text_10">
     <!-- $n$ -->
     <g transform="translate(218.2 280.276563)scale(0.1 -0.1)">
      <defs>
       <path id="DejaVuSans-Oblique-6e" d="M 3566 2113 
L 3156 0 
L 2578 0 
L 2988 2091 
Q 3016 2238 3031 2350 
Q 3047 2463 3047 2528 
Q 3047 2791 2881 2937 
Q 2716 3084 2419 3084 
Q 1956 3084 1622 2776 
Q 1288 2469 1184 1941 
L 800 0 
L 225 0 
L 903 3500 
L 1478 3500 
L 1363 2950 
Q 1603 3253 1940 3418 
Q 2278 3584 2650 3584 
Q 3113 3584 3367 3334 
Q 3622 3084 3622 2631 
Q 3622 2519 3608 2391 
Q 3594 2263 3566 2113 
z
" transform="scale(0.015625)"/>
      </defs>
      <use xlink:href="#DejaVuSans-Oblique-6e"/>
     </g>
    </g>
   </g>
   <g id="matplotlib.axis_2">
    <g id="ytick_1">
     <g id="line2d_10">
      <path d="M 54 242.116364 
L 388.8 242.116364 
" clip-path="url(#pddd36edc3b)" style="fill: none; stroke: #b0b0b0; stroke-opacity: 0.5; stroke-width: 0.8; stroke-linecap: square"/>
     </g>
     <g id="line2d_11">
      <defs>
       <path id="m7e6ff99cdc" d="M 0 0 
L -3.5 0 
" style="stroke: #000000; stroke-width: 0.8"/>
      </defs>
      <g>
       <use xlink:href="#m7e6ff99cdc" x="54" y="242.116364" style="stroke: #000000; stroke-width: 0.8"/>
      </g>
     </g>
     <g id="text_11">
      <!-- 1.0 -->
      <g transform="translate(31.096875 245.915582)scale(0.1 -0.1)">
       <defs>
        <path id="DejaVuSans-2e" d="M 684 794 
L 1344 794 
L 1344 0 
L 684 0 
L 684 794 
z
" transform="scale(0.015625)"/>
       </defs>
       <use xlink:href="#DejaVuSans-31"/>
       <use xlink:href="#DejaVuSans-2e" x="63.623047"/>
       <use xlink:href="#DejaVuSans-30" x="95.410156"/>
      </g>
     </g>
    </g>
    <g id="ytick_2">
     <g id="line2d_12">
      <path d="M 54 215.313282 
L 388.8 215.313282 
" clip-path="url(#pddd36edc3b)" style="fill: none; stroke: #b0b0b0; stroke-opacity: 0.5; stroke-width: 0.8; stroke-linecap: square"/>
     </g>
     <g id="line2d_13">
      <g>
       <use xlink:href="#m7e6ff99cdc" x="54" y="215.313282" style="stroke: #000000; stroke-width: 0.8"/>
      </g>
     </g>
     <g id="text_12">
      <!-- 1.2 -->
      <g transform="translate(31.096875 219.112501)scale(0.1 -0.1)">
       <use xlink:href="#DejaVuSans-31"/>
       <use xlink:href="#DejaVuSans-2e" x="63.623047"/>
       <use xlink:href="#DejaVuSans-32" x="95.410156"/>
      </g>
     </g>
    </g>
    <g id="ytick_3">
     <g id="line2d_14">
      <path d="M 54 188.5102 
L 388.8 188.5102 
" clip-path="url(#pddd36edc3b)" style="fill: none; stroke: #b0b0b0; stroke-opacity: 0.5; stroke-width: 0.8; stroke-linecap: square"/>
     </g>
     <g id="line2d_15">
      <g>
       <use xlink:href="#m7e6ff99cdc" x="54" y="188.5102" style="stroke: #000000; stroke-width: 0.8"/>
      </g>
     </g>
     <g id="text_13">
      <!-- 1.4 -->
      <g transform="translate(31.096875 192.309419)scale(0.1 -0.1)">
       <defs>
        <path id="DejaVuSans-34" d="M 2419 4116 
L 825 1625 
L 2419 1625 
L 2419 4116 
z
M 2253 4666 
L 3047 4666 
L 3047 1625 
L 3713 1625 
L 3713 1100 
L 3047 1100 
L 3047 0 
L 2419 0 
L 2419 1100 
L 313 1100 
L 313 1709 
L 2253 4666 
z
" transform="scale(0.015625)"/>
       </defs>
       <use xlink:href="#DejaVuSans-31"/>
       <use xlink:href="#DejaVuSans-2e" x="63.623047"/>
       <use xlink:href="#DejaVuSans-34" x="95.410156"/>
      </g>
     </g>
    </g>
    <g id="ytick_4">
     <g id="line2d_16">
      <path d="M 54 161.707119 
L 388.8 161.707119 
" clip-path="url(#pddd36edc3b)" style="fill: none; stroke: #b0b0b0; stroke-opacity: 0.5; stroke-width: 0.8; stroke-linecap: square"/>
     </g>
     <g id="line2d_17">
      <g>
       <use xlink:href="#m7e6ff99cdc" x="54" y="161.707119" style="stroke: #000000; stroke-width: 0.8"/>
      </g>
     </g>
     <g id="text_14">
      <!-- 1.6 -->
      <g transform="translate(31.096875 165.506337)scale(0.1 -0.1)">
       <use xlink:href="#DejaVuSans-31"/>
       <use xlink:href="#DejaVuSans-2e" x="63.623047"/>
       <use xlink:href="#DejaVuSans-36" x="95.410156"/>
      </g>
     </g>
    </g>
    <g id="ytick_5">
     <g id="line2d_18">
      <path d="M 54 134.904037 
L 388.8 134.904037 
" clip-path="url(#pddd36edc3b)" style="fill: none; stroke: #b0b0b0; stroke-opacity: 0.5; stroke-width: 0.8; stroke-linecap: square"/>
     </g>
     <g id="line2d_19">
      <g>
       <use xlink:href="#m7e6ff99cdc" x="54" y="134.904037" style="stroke: #000000; stroke-width: 0.8"/>
      </g>
     </g>
     <g id="text_15">
      <!-- 1.8 -->
      <g transform="translate(31.096875 138.703256)scale(0.1 -0.1)">
       <use xlink:href="#DejaVuSans-31"/>
       <use xlink:href="#DejaVuSans-2e" x="63.623047"/>
       <use xlink:href="#DejaVuSans-38" x="95.410156"/>
      </g>
     </g>
    </g>
    <g id="ytick_6">
     <g id="line2d_20">
      <path d="M 54 108.100955 
L 388.8 108.100955 
" clip-path="url(#pddd36edc3b)" style="fill: none; stroke: #b0b0b0; stroke-opacity: 0.5; stroke-width: 0.8; stroke-linecap: square"/>
     </g>
     <g id="line2d_21">
      <g>
       <use xlink:href="#m7e6ff99cdc" x="54" y="108.100955" style="stroke: #000000; stroke-width: 0.8"/>
      </g>
     </g>
     <g id="text_16">
      <!-- 2.0 -->
      <g transform="translate(31.096875 111.900174)scale(0.1 -0.1)">
       <use xlink:href="#DejaVuSans-32"/>
       <use xlink:href="#DejaVuSans-2e" x="63.623047"/>
       <use xlink:href="#DejaVuSans-30" x="95.410156"/>
      </g>
     </g>
    </g>
    <g id="ytick_7">
     <g id="line2d_22">
      <path d="M 54 81.297874 
L 388.8 81.297874 
" clip-path="url(#pddd36edc3b)" style="fill: none; stroke: #b0b0b0; stroke-opacity: 0.5; stroke-width: 0.8; stroke-linecap: square"/>
     </g>
     <g id="line2d_23">
      <g>
       <use xlink:href="#m7e6ff99cdc" x="54" y="81.297874" style="stroke: #000000; stroke-width: 0.8"/>
      </g>
     </g>
     <g id="text_17">
      <!-- 2.2 -->
      <g transform="translate(31.096875 85.097092)scale(0.1 -0.1)">
       <use xlink:href="#DejaVuSans-32"/>
       <use xlink:href="#DejaVuSans-2e" x="63.623047"/>
       <use xlink:href="#DejaVuSans-32" x="95.410156"/>
      </g>
     </g>
    </g>
    <g id="ytick_8">
     <g id="line2d_24">
      <path d="M 54 54.494792 
L 388.8 54.494792 
" clip-path="url(#pddd36edc3b)" style="fill: none; stroke: #b0b0b0; stroke-opacity: 0.5; stroke-width: 0.8; stroke-linecap: square"/>
     </g>
     <g id="line2d_25">
      <g>
       <use xlink:href="#m7e6ff99cdc" x="54" y="54.494792" style="stroke: #000000; stroke-width: 0.8"/>
      </g>
     </g>
     <g id="text_18">
      <!-- 2.4 -->
      <g transform="translate(31.096875 58.294011)scale(0.1 -0.1)">
       <use xlink:href="#DejaVuSans-32"/>
       <use xlink:href="#DejaVuSans-2e" x="63.623047"/>
       <use xlink:href="#DejaVuSans-34" x="95.410156"/>
      </g>
     </g>
    </g>
    <g id="text_19">
     <!-- $|ALG|$ -->
     <g transform="translate(18.12 156.73)rotate(-90)scale(0.1 -0.1)">
      <defs>
       <path id="DejaVuSans-7c" d="M 1344 4891 
L 1344 -1509 
L 813 -1509 
L 813 4891 
L 1344 4891 
z
" transform="scale(0.015625)"/>
       <path id="DejaVuSans-Oblique-41" d="M 2356 4666 
L 3072 4666 
L 3938 0 
L 3278 0 
L 3084 1197 
L 984 1197 
L 325 0 
L -341 0 
L 2356 4666 
z
M 2584 4044 
L 1275 1722 
L 2988 1722 
L 2584 4044 
z
" transform="scale(0.015625)"/>
       <path id="DejaVuSans-Oblique-4c" d="M 1075 4666 
L 1709 4666 
L 909 525 
L 3181 525 
L 3078 0 
L 172 0 
L 1075 4666 
z
" transform="scale(0.015625)"/>
       <path id="DejaVuSans-Oblique-47" d="M 3494 697 
L 3738 1919 
L 2700 1919 
L 2797 2438 
L 4453 2438 
L 4050 384 
Q 3634 156 3143 32 
Q 2653 -91 2156 -91 
Q 1278 -91 783 396 
Q 288 884 288 1753 
Q 288 2475 589 3126 
Q 891 3778 1422 4213 
Q 1756 4484 2153 4617 
Q 2550 4750 3034 4750 
Q 3472 4750 3873 4639 
Q 4275 4528 4641 4306 
L 4513 3634 
Q 4231 3928 3853 4083 
Q 3475 4238 3047 4238 
Q 2550 4238 2172 4048 
Q 1794 3859 1497 3463 
Q 1244 3125 1098 2667 
Q 953 2209 953 1734 
Q 953 1081 1287 751 
Q 1622 422 2284 422 
Q 2616 422 2925 492 
Q 3234 563 3494 697 
z
" transform="scale(0.015625)"/>
      </defs>
      <use xlink:href="#DejaVuSans-7c" transform="translate(0 0.578125)"/>
      <use xlink:href="#DejaVuSans-Oblique-41" transform="translate(33.691406 0.578125)"/>
      <use xlink:href="#DejaVuSans-Oblique-4c" transform="translate(102.099609 0.578125)"/>
      <use xlink:href="#DejaVuSans-Oblique-47" transform="translate(157.8125 0.578125)"/>
      <use xlink:href="#DejaVuSans-7c" transform="translate(235.302734 0.578125)"/>
     </g>
    </g>
   </g>
   <g id="line2d_26">
    <path d="M 69.218182 71.246718 
L 73.070886 71.246718 
L 76.92359 81.297874 
L 80.776295 71.246718 
L 84.628999 81.297874 
L 88.481703 84.648259 
L 92.334407 72.921911 
L 96.187112 84.648259 
L 100.039816 98.0498 
L 103.89252 71.246718 
L 107.745224 94.699414 
L 111.597929 81.297874 
L 115.450633 77.947488 
L 119.303337 81.297874 
L 123.156041 72.921911 
L 127.008746 91.349029 
L 130.86145 69.571525 
L 134.714154 74.597103 
L 138.566858 81.297874 
L 142.419563 74.597103 
L 146.272267 108.100955 
L 150.124971 71.246718 
L 153.977675 89.673837 
L 157.83038 87.998644 
L 161.683084 44.443636 
L 165.535788 54.494792 
L 169.388493 81.297874 
L 173.241197 87.998644 
L 177.093901 84.648259 
L 180.946605 94.699414 
L 184.79931 81.297874 
L 188.652014 93.024222 
L 192.504718 64.545948 
L 196.357422 76.272296 
L 200.210127 62.870755 
L 204.062831 101.400185 
L 207.915535 101.400185 
L 211.768239 93.024222 
L 215.620944 93.024222 
L 219.473648 91.349029 
L 223.326352 72.921911 
L 227.179056 98.0498 
L 231.031761 87.998644 
L 234.884465 94.699414 
L 238.737169 71.246718 
L 242.589873 101.400185 
L 246.442578 89.673837 
L 250.295282 89.673837 
L 254.147986 98.0498 
L 258.00069 91.349029 
L 261.853395 84.648259 
L 265.706099 93.024222 
L 269.558803 103.075378 
L 273.411507 99.724992 
L 277.264212 93.024222 
L 281.116916 104.75057 
L 284.96962 106.425763 
L 288.822325 91.349029 
L 292.675029 93.024222 
L 296.527733 101.400185 
L 300.380437 77.947488 
L 304.233142 94.699414 
L 308.085846 98.0498 
L 311.93855 103.075378 
L 315.791254 98.0498 
L 319.643959 104.75057 
L 323.496663 81.297874 
L 327.349367 91.349029 
L 331.202071 108.100955 
L 335.054776 99.724992 
L 338.90748 87.998644 
L 342.760184 98.0498 
L 346.612888 94.699414 
L 350.465593 108.100955 
L 354.318297 82.973066 
L 358.171001 93.024222 
L 362.023705 98.0498 
L 365.87641 103.075378 
L 369.729114 98.0498 
L 373.581818 104.75057 
" clip-path="url(#pddd36edc3b)" style="fill: none; stroke-dasharray: 1.5,2.475; stroke-dashoffset: 0; stroke: #ff7f0e; stroke-width: 1.5"/>
   </g>
   <g id="line2d_27">
    <path d="M 69.218182 235.415593 
L 73.070886 233.740401 
L 76.92359 232.065208 
L 80.776295 238.765978 
L 84.628999 232.065208 
L 88.481703 230.390015 
L 92.334407 238.765978 
L 96.187112 232.065208 
L 100.039816 232.065208 
L 103.89252 233.740401 
L 107.745224 235.415593 
L 111.597929 237.090786 
L 115.450633 238.765978 
L 119.303337 237.090786 
L 123.156041 237.090786 
L 127.008746 237.090786 
L 130.86145 233.740401 
L 134.714154 233.740401 
L 138.566858 235.415593 
L 142.419563 235.415593 
L 146.272267 237.090786 
L 150.124971 240.441171 
L 153.977675 240.441171 
L 157.83038 240.441171 
L 161.683084 235.415593 
L 165.535788 237.090786 
L 169.388493 238.765978 
L 173.241197 242.116364 
L 177.093901 235.415593 
L 180.946605 238.765978 
L 184.79931 240.441171 
L 188.652014 238.765978 
L 192.504718 240.441171 
L 196.357422 238.765978 
L 200.210127 237.090786 
L 204.062831 237.090786 
L 207.915535 238.765978 
L 211.768239 238.765978 
L 215.620944 235.415593 
L 219.473648 238.765978 
L 223.326352 240.441171 
L 227.179056 240.441171 
L 231.031761 238.765978 
L 234.884465 237.090786 
L 238.737169 238.765978 
L 242.589873 240.441171 
L 246.442578 238.765978 
L 250.295282 235.415593 
L 254.147986 235.415593 
L 258.00069 237.090786 
L 261.853395 242.116364 
L 265.706099 238.765978 
L 269.558803 240.441171 
L 273.411507 240.441171 
L 277.264212 235.415593 
L 281.116916 242.116364 
L 284.96962 242.116364 
L 288.822325 238.765978 
L 292.675029 240.441171 
L 296.527733 242.116364 
L 300.380437 238.765978 
L 304.233142 242.116364 
L 308.085846 237.090786 
L 311.93855 242.116364 
L 315.791254 240.441171 
L 319.643959 237.090786 
L 323.496663 240.441171 
L 327.349367 242.116364 
L 331.202071 242.116364 
L 335.054776 240.441171 
L 338.90748 237.090786 
L 342.760184 238.765978 
L 346.612888 238.765978 
L 350.465593 237.090786 
L 354.318297 242.116364 
L 358.171001 238.765978 
L 362.023705 237.090786 
L 365.87641 240.441171 
L 369.729114 240.441171 
L 373.581818 240.441171 
" clip-path="url(#pddd36edc3b)" style="fill: none; stroke: #1f77b4; stroke-width: 1.5; stroke-linecap: square"/>
   </g>
   <g id="line2d_28">
    <path d="M 69.218182 141.604807 
L 73.070886 128.203267 
L 76.92359 139.929615 
L 80.776295 139.929615 
L 84.628999 118.152111 
L 88.481703 149.98077 
L 92.334407 153.331156 
L 96.187112 148.305578 
L 100.039816 151.655963 
L 103.89252 136.57923 
L 107.745224 151.655963 
L 111.597929 151.655963 
L 115.450633 136.57923 
L 119.303337 149.98077 
L 123.156041 138.254422 
L 127.008746 166.732696 
L 130.86145 139.929615 
L 134.714154 144.955193 
L 138.566858 151.655963 
L 142.419563 146.630385 
L 146.272267 144.955193 
L 150.124971 143.28 
L 153.977675 153.331156 
L 157.83038 129.878459 
L 161.683084 133.228844 
L 165.535788 144.955193 
L 169.388493 153.331156 
L 173.241197 151.655963 
L 177.093901 141.604807 
L 180.946605 153.331156 
L 184.79931 163.382311 
L 188.652014 153.331156 
L 192.504718 146.630385 
L 196.357422 138.254422 
L 200.210127 148.305578 
L 204.062831 156.681541 
L 207.915535 149.98077 
L 211.768239 144.955193 
L 215.620944 168.407889 
L 219.473648 151.655963 
L 223.326352 139.929615 
L 227.179056 144.955193 
L 231.031761 134.904037 
L 234.884465 155.006348 
L 238.737169 148.305578 
L 242.589873 156.681541 
L 246.442578 149.98077 
L 250.295282 155.006348 
L 254.147986 151.655963 
L 258.00069 161.707119 
L 261.853395 153.331156 
L 265.706099 149.98077 
L 269.558803 170.083082 
L 273.411507 158.356733 
L 277.264212 141.604807 
L 281.116916 158.356733 
L 284.96962 158.356733 
L 288.822325 138.254422 
L 292.675029 143.28 
L 296.527733 160.031926 
L 300.380437 144.955193 
L 304.233142 143.28 
L 308.085846 149.98077 
L 311.93855 156.681541 
L 315.791254 148.305578 
L 319.643959 148.305578 
L 323.496663 134.904037 
L 327.349367 148.305578 
L 331.202071 161.707119 
L 335.054776 175.108659 
L 338.90748 144.955193 
L 342.760184 153.331156 
L 346.612888 153.331156 
L 350.465593 168.407889 
L 354.318297 156.681541 
L 358.171001 134.904037 
L 362.023705 143.28 
L 365.87641 151.655963 
L 369.729114 148.305578 
L 373.581818 155.006348 
" clip-path="url(#pddd36edc3b)" style="fill: none; stroke-dasharray: 1.5,2.475; stroke-dashoffset: 0; stroke: #1f77b4; stroke-width: 1.5"/>
   </g>
   <g id="line2d_29">
    <path d="M 69.218182 84.648259 
L 73.070886 82.973066 
L 76.92359 86.323451 
L 80.776295 87.998644 
L 84.628999 93.024222 
L 88.481703 91.349029 
L 92.334407 81.297874 
L 96.187112 87.998644 
L 100.039816 99.724992 
L 103.89252 84.648259 
L 107.745224 96.374607 
L 111.597929 89.673837 
L 115.450633 87.998644 
L 119.303337 82.973066 
L 123.156041 81.297874 
L 127.008746 99.724992 
L 130.86145 74.597103 
L 134.714154 86.323451 
L 138.566858 86.323451 
L 142.419563 82.973066 
L 146.272267 108.100955 
L 150.124971 82.973066 
L 153.977675 94.699414 
L 157.83038 96.374607 
L 161.683084 91.349029 
L 165.535788 64.545948 
L 169.388493 94.699414 
L 173.241197 94.699414 
L 177.093901 93.024222 
L 180.946605 101.400185 
L 184.79931 91.349029 
L 188.652014 96.374607 
L 192.504718 77.947488 
L 196.357422 99.724992 
L 200.210127 91.349029 
L 204.062831 104.75057 
L 207.915535 101.400185 
L 211.768239 94.699414 
L 215.620944 96.374607 
L 219.473648 96.374607 
L 223.326352 82.973066 
L 227.179056 99.724992 
L 231.031761 98.0498 
L 234.884465 98.0498 
L 238.737169 94.699414 
L 242.589873 104.75057 
L 246.442578 98.0498 
L 250.295282 94.699414 
L 254.147986 101.400185 
L 258.00069 98.0498 
L 261.853395 96.374607 
L 265.706099 96.374607 
L 269.558803 103.075378 
L 273.411507 101.400185 
L 277.264212 99.724992 
L 281.116916 104.75057 
L 284.96962 106.425763 
L 288.822325 93.024222 
L 292.675029 96.374607 
L 296.527733 104.75057 
L 300.380437 91.349029 
L 304.233142 99.724992 
L 308.085846 101.400185 
L 311.93855 103.075378 
L 315.791254 99.724992 
L 319.643959 106.425763 
L 323.496663 93.024222 
L 327.349367 96.374607 
L 331.202071 108.100955 
L 335.054776 103.075378 
L 338.90748 101.400185 
L 342.760184 99.724992 
L 346.612888 101.400185 
L 350.465593 108.100955 
L 354.318297 89.673837 
L 358.171001 98.0498 
L 362.023705 101.400185 
L 365.87641 103.075378 
L 369.729114 103.075378 
L 373.581818 106.425763 
" clip-path="url(#pddd36edc3b)" style="fill: none; stroke: #ff7f0e; stroke-width: 1.5; stroke-linecap: square"/>
   </g>
   <g id="patch_3">
    <path d="M 54 252 
L 54 34.56 
" style="fill: none; stroke: #000000; stroke-width: 0.8; stroke-linejoin: miter; stroke-linecap: square"/>
   </g>
   <g id="patch_4">
    <path d="M 388.8 252 
L 388.8 34.56 
" style="fill: none; stroke: #000000; stroke-width: 0.8; stroke-linejoin: miter; stroke-linecap: square"/>
   </g>
   <g id="patch_5">
    <path d="M 54 252 
L 388.8 252 
" style="fill: none; stroke: #000000; stroke-width: 0.8; stroke-linejoin: miter; stroke-linecap: square"/>
   </g>
   <g id="patch_6">
    <path d="M 54 34.56 
L 388.8 34.56 
" style="fill: none; stroke: #000000; stroke-width: 0.8; stroke-linejoin: miter; stroke-linecap: square"/>
   </g>
   <g id="legend_1">
    <g id="patch_7">
     <path d="M 291.6 174.13625 
L 381.8 174.13625 
Q 383.8 174.13625 383.8 172.13625 
L 383.8 114.42375 
Q 383.8 112.42375 381.8 112.42375 
L 291.6 112.42375 
Q 289.6 112.42375 289.6 114.42375 
L 289.6 172.13625 
Q 289.6 174.13625 291.6 174.13625 
z
" style="fill: #ffffff; opacity: 0.8; stroke: #cccccc; stroke-linejoin: miter"/>
    </g>
    <g id="line2d_30">
     <path d="M 293.6 120.522188 
L 303.6 120.522188 
L 313.6 120.522188 
" style="fill: none; stroke-dasharray: 1.5,2.475; stroke-dashoffset: 0; stroke: #ff7f0e; stroke-width: 1.5"/>
    </g>
    <g id="text_20">
     <!-- $SPC_{IOMR}(K_G)$ -->
     <g transform="translate(321.6 124.022188)scale(0.1 -0.1)">
      <defs>
       <path id="DejaVuSans-Oblique-53" d="M 3859 4513 
L 3738 3897 
Q 3422 4066 3111 4152 
Q 2800 4238 2509 4238 
Q 1944 4238 1609 3991 
Q 1275 3744 1275 3334 
Q 1275 3109 1398 2989 
Q 1522 2869 2034 2731 
L 2413 2638 
Q 3053 2472 3303 2217 
Q 3553 1963 3553 1503 
Q 3553 797 2998 353 
Q 2444 -91 1538 -91 
Q 1166 -91 791 -17 
Q 416 56 38 206 
L 166 856 
Q 513 641 861 531 
Q 1209 422 1556 422 
Q 2147 422 2503 684 
Q 2859 947 2859 1369 
Q 2859 1650 2717 1795 
Q 2575 1941 2106 2059 
L 1728 2156 
Q 1081 2325 845 2545 
Q 609 2766 609 3163 
Q 609 3859 1145 4304 
Q 1681 4750 2541 4750 
Q 2875 4750 3203 4690 
Q 3531 4631 3859 4513 
z
" transform="scale(0.015625)"/>
       <path id="DejaVuSans-Oblique-50" d="M 1081 4666 
L 2541 4666 
Q 3178 4666 3512 4369 
Q 3847 4072 3847 3500 
Q 3847 2731 3353 2303 
Q 2859 1875 1966 1875 
L 1172 1875 
L 806 0 
L 172 0 
L 1081 4666 
z
M 1613 4147 
L 1275 2394 
L 2069 2394 
Q 2606 2394 2893 2669 
Q 3181 2944 3181 3456 
Q 3181 3784 2986 3965 
Q 2791 4147 2438 4147 
L 1613 4147 
z
" transform="scale(0.015625)"/>
       <path id="DejaVuSans-Oblique-43" d="M 4447 4306 
L 4319 3641 
Q 4019 3944 3683 4091 
Q 3347 4238 2956 4238 
Q 2422 4238 2017 3981 
Q 1613 3725 1319 3200 
Q 1131 2863 1032 2486 
Q 934 2109 934 1728 
Q 934 1091 1264 756 
Q 1594 422 2222 422 
Q 2656 422 3056 561 
Q 3456 700 3834 978 
L 3688 231 
Q 3316 72 2936 -9 
Q 2556 -91 2175 -91 
Q 1278 -91 773 396 
Q 269 884 269 1753 
Q 269 2309 461 2846 
Q 653 3384 1013 3828 
Q 1394 4300 1883 4525 
Q 2372 4750 3022 4750 
Q 3422 4750 3780 4639 
Q 4138 4528 4447 4306 
z
" transform="scale(0.015625)"/>
       <path id="DejaVuSans-Oblique-49" d="M 1081 4666 
L 1716 4666 
L 806 0 
L 172 0 
L 1081 4666 
z
" transform="scale(0.015625)"/>
       <path id="DejaVuSans-Oblique-4f" d="M 2919 4238 
Q 2400 4238 2003 3986 
Q 1606 3734 1313 3219 
Q 1125 2891 1026 2522 
Q 928 2153 928 1778 
Q 928 1128 1239 775 
Q 1550 422 2119 422 
Q 2631 422 3032 676 
Q 3434 931 3719 1434 
Q 3909 1772 4009 2142 
Q 4109 2513 4109 2881 
Q 4109 3528 3796 3883 
Q 3484 4238 2919 4238 
z
M 2100 -91 
Q 1241 -91 748 418 
Q 256 928 256 1813 
Q 256 2319 448 2847 
Q 641 3375 978 3788 
Q 1375 4272 1862 4511 
Q 2350 4750 2938 4750 
Q 3794 4750 4287 4245 
Q 4781 3741 4781 2869 
Q 4781 2331 4593 1812 
Q 4406 1294 4056 872 
Q 3656 384 3173 146 
Q 2691 -91 2100 -91 
z
" transform="scale(0.015625)"/>
       <path id="DejaVuSans-Oblique-4d" d="M 1081 4666 
L 2028 4666 
L 2572 1522 
L 4378 4666 
L 5350 4666 
L 4441 0 
L 3828 0 
L 4622 4091 
L 2791 897 
L 2175 897 
L 1581 4103 
L 788 0 
L 172 0 
L 1081 4666 
z
" transform="scale(0.015625)"/>
       <path id="DejaVuSans-Oblique-52" d="M 1613 4147 
L 1294 2491 
L 2106 2491 
Q 2584 2491 2879 2755 
Q 3175 3019 3175 3444 
Q 3175 3784 2976 3965 
Q 2778 4147 2406 4147 
L 1613 4147 
z
M 2772 2241 
Q 2972 2194 3105 2009 
Q 3238 1825 3413 1275 
L 3809 0 
L 3144 0 
L 2778 1197 
Q 2638 1659 2453 1815 
Q 2269 1972 1888 1972 
L 1191 1972 
L 806 0 
L 172 0 
L 1081 4666 
L 2503 4666 
Q 3150 4666 3495 4373 
Q 3841 4081 3841 3531 
Q 3841 3044 3547 2687 
Q 3253 2331 2772 2241 
z
" transform="scale(0.015625)"/>
       <path id="DejaVuSans-28" d="M 1984 4856 
Q 1566 4138 1362 3434 
Q 1159 2731 1159 2009 
Q 1159 1288 1364 580 
Q 1569 -128 1984 -844 
L 1484 -844 
Q 1016 -109 783 600 
Q 550 1309 550 2009 
Q 550 2706 781 3412 
Q 1013 4119 1484 4856 
L 1984 4856 
z
" transform="scale(0.015625)"/>
       <path id="DejaVuSans-Oblique-4b" d="M 1081 4666 
L 1716 4666 
L 1331 2700 
L 3781 4666 
L 4622 4666 
L 1850 2438 
L 3878 0 
L 3109 0 
L 1247 2272 
L 806 0 
L 172 0 
L 1081 4666 
z
" transform="scale(0.015625)"/>
       <path id="DejaVuSans-29" d="M 513 4856 
L 1013 4856 
Q 1481 4119 1714 3412 
Q 1947 2706 1947 2009 
Q 1947 1309 1714 600 
Q 1481 -109 1013 -844 
L 513 -844 
Q 928 -128 1133 580 
Q 1338 1288 1338 2009 
Q 1338 2731 1133 3434 
Q 928 4138 513 4856 
z
" transform="scale(0.015625)"/>
      </defs>
      <use xlink:href="#DejaVuSans-Oblique-53" transform="translate(0 0.125)"/>
      <use xlink:href="#DejaVuSans-Oblique-50" transform="translate(63.476562 0.125)"/>
      <use xlink:href="#DejaVuSans-Oblique-43" transform="translate(123.779297 0.125)"/>
      <use xlink:href="#DejaVuSans-Oblique-49" transform="translate(193.603516 -16.28125)scale(0.7)"/>
      <use xlink:href="#DejaVuSans-Oblique-4f" transform="translate(214.248047 -16.28125)scale(0.7)"/>
      <use xlink:href="#DejaVuSans-Oblique-4d" transform="translate(269.345703 -16.28125)scale(0.7)"/>
      <use xlink:href="#DejaVuSans-Oblique-52" transform="translate(329.741211 -16.28125)scale(0.7)"/>
      <use xlink:href="#DejaVuSans-28" transform="translate(381.113281 0.125)"/>
      <use xlink:href="#DejaVuSans-Oblique-4b" transform="translate(420.126953 0.125)"/>
      <use xlink:href="#DejaVuSans-Oblique-47" transform="translate(485.703125 -16.28125)scale(0.7)"/>
      <use xlink:href="#DejaVuSans-29" transform="translate(542.680664 0.125)"/>
     </g>
    </g>
    <g id="line2d_31">
     <path d="M 293.6 135.200312 
L 303.6 135.200312 
L 313.6 135.200312 
" style="fill: none; stroke: #1f77b4; stroke-width: 1.5; stroke-linecap: square"/>
    </g>
    <g id="text_21">
     <!-- $LHS$ -->
     <g transform="translate(321.6 138.700312)scale(0.1 -0.1)">
      <defs>
       <path id="DejaVuSans-Oblique-48" d="M 1081 4666 
L 1716 4666 
L 1344 2753 
L 3634 2753 
L 4006 4666 
L 4641 4666 
L 3731 0 
L 3097 0 
L 3531 2222 
L 1241 2222 
L 806 0 
L 172 0 
L 1081 4666 
z
" transform="scale(0.015625)"/>
      </defs>
      <use xlink:href="#DejaVuSans-Oblique-4c" transform="translate(0 0.78125)"/>
      <use xlink:href="#DejaVuSans-Oblique-48" transform="translate(55.712891 0.78125)"/>
      <use xlink:href="#DejaVuSans-Oblique-53" transform="translate(130.908203 0.78125)"/>
     </g>
    </g>
    <g id="line2d_32">
     <path d="M 293.6 149.878438 
L 303.6 149.878438 
L 313.6 149.878438 
" style="fill: none; stroke-dasharray: 1.5,2.475; stroke-dashoffset: 0; stroke: #1f77b4; stroke-width: 1.5"/>
    </g>
    <g id="text_22">
     <!-- $LHS(K_G)$ -->
     <g transform="translate(321.6 153.378438)scale(0.1 -0.1)">
      <use xlink:href="#DejaVuSans-Oblique-4c" transform="translate(0 0.125)"/>
      <use xlink:href="#DejaVuSans-Oblique-48" transform="translate(55.712891 0.125)"/>
      <use xlink:href="#DejaVuSans-Oblique-53" transform="translate(130.908203 0.125)"/>
      <use xlink:href="#DejaVuSans-28" transform="translate(194.384766 0.125)"/>
      <use xlink:href="#DejaVuSans-Oblique-4b" transform="translate(233.398438 0.125)"/>
      <use xlink:href="#DejaVuSans-Oblique-47" transform="translate(298.974609 -16.28125)scale(0.7)"/>
      <use xlink:href="#DejaVuSans-29" transform="translate(355.952148 0.125)"/>
     </g>
    </g>
    <g id="line2d_33">
     <path d="M 293.6 164.556563 
L 303.6 164.556563 
L 313.6 164.556563 
" style="fill: none; stroke: #ff7f0e; stroke-width: 1.5; stroke-linecap: square"/>
    </g>
    <g id="text_23">
     <!-- $SPC_{IOMR}$ -->
     <g transform="translate(321.6 168.056563)scale(0.1 -0.1)">
      <use xlink:href="#DejaVuSans-Oblique-53" transform="translate(0 0.78125)"/>
      <use xlink:href="#DejaVuSans-Oblique-50" transform="translate(63.476562 0.78125)"/>
      <use xlink:href="#DejaVuSans-Oblique-43" transform="translate(123.779297 0.78125)"/>
      <use xlink:href="#DejaVuSans-Oblique-49" transform="translate(193.603516 -15.625)scale(0.7)"/>
      <use xlink:href="#DejaVuSans-Oblique-4f" transform="translate(214.248047 -15.625)scale(0.7)"/>
      <use xlink:href="#DejaVuSans-Oblique-4d" transform="translate(269.345703 -15.625)scale(0.7)"/>
      <use xlink:href="#DejaVuSans-Oblique-52" transform="translate(329.741211 -15.625)scale(0.7)"/>
     </g>
    </g>
   </g>
  </g>
 </g>
 <defs>
  <clipPath id="pddd36edc3b">
   <rect x="54" y="34.56" width="334.8" height="217.44"/>
  </clipPath>
 </defs>
</svg>
