<?xml version="1.0" encoding="utf-8" standalone="no"?>
<!DOCTYPE svg PUBLIC "-//W3C//DTD SVG 1.1//EN"
  "http://www.w3.org/Graphics/SVG/1.1/DTD/svg11.dtd">
<svg xmlns:xlink="http://www.w3.org/1999/xlink" width="432pt" height="288pt" viewBox="0 0 432 288" xmlns="http://www.w3.org/2000/svg" version="1.1">
 <metadata>
  <rdf:RDF xmlns:dc="http://purl.org/dc/elements/1.1/" xmlns:cc="http://creativecommons.org/ns#" xmlns:rdf="http://www.w3.org/1999/02/22-rdf-syntax-ns#">
   <cc:Work>
    <dc:type rdf:resource="http://purl.org/dc/dcmitype/StillImage"/>
    <dc:date>2024-07-05T09:22:35.785222</dc:date>
    <dc:format>image/svg+xml</dc:format>
    <dc:creator>
     <cc:Agent>
      <dc:title>Matplotlib v3.5.2, https://matplotlib.org/</dc:title>
     </cc:Agent>
    </dc:creator>
   </cc:Work>
  </rdf:RDF>
 </metadata>
 <defs>
  <style type="text/css">*{stroke-linejoin: round; stroke-linecap: butt}</style>
 </defs>
 <g id="figure_1">
  <g id="patch_1">
   <path d="M 0 288 
L 432 288 
L 432 0 
L 0 0 
L 0 288 
z
" style="fill: none"/>
  </g>
  <g id="axes_1">
   <g id="patch_2">
    <path d="M 54 252 
L 388.8 252 
L 388.8 34.56 
L 54 34.56 
z
" style="fill: #ffffff"/>
   </g>
   <g id="matplotlib.axis_1">
    <g id="xtick_1">
     <g id="line2d_1">
      <defs>
       <path id="mb7407ca36d" d="M 0 0 
L 0 3.5 
" style="stroke: #000000; stroke-width: 0.8"/>
      </defs>
      <g>
       <use xlink:href="#mb7407ca36d" x="69.218182" y="252" style="stroke: #000000; stroke-width: 0.8"/>
      </g>
     </g>
     <g id="text_1">
      <!-- 50 -->
      <g transform="translate(62.855682 266.598437)scale(0.1 -0.1)">
       <defs>
        <path id="DejaVuSans-35" d="M 691 4666 
L 3169 4666 
L 3169 4134 
L 1269 4134 
L 1269 2991 
Q 1406 3038 1543 3061 
Q 1681 3084 1819 3084 
Q 2600 3084 3056 2656 
Q 3513 2228 3513 1497 
Q 3513 744 3044 326 
Q 2575 -91 1722 -91 
Q 1428 -91 1123 -41 
Q 819 9 494 109 
L 494 744 
Q 775 591 1075 516 
Q 1375 441 1709 441 
Q 2250 441 2565 725 
Q 2881 1009 2881 1497 
Q 2881 1984 2565 2268 
Q 2250 2553 1709 2553 
Q 1456 2553 1204 2497 
Q 953 2441 691 2322 
L 691 4666 
z
" transform="scale(0.015625)"/>
        <path id="DejaVuSans-30" d="M 2034 4250 
Q 1547 4250 1301 3770 
Q 1056 3291 1056 2328 
Q 1056 1369 1301 889 
Q 1547 409 2034 409 
Q 2525 409 2770 889 
Q 3016 1369 3016 2328 
Q 3016 3291 2770 3770 
Q 2525 4250 2034 4250 
z
M 2034 4750 
Q 2819 4750 3233 4129 
Q 3647 3509 3647 2328 
Q 3647 1150 3233 529 
Q 2819 -91 2034 -91 
Q 1250 -91 836 529 
Q 422 1150 422 2328 
Q 422 3509 836 4129 
Q 1250 4750 2034 4750 
z
" transform="scale(0.015625)"/>
       </defs>
       <use xlink:href="#DejaVuSans-35"/>
       <use xlink:href="#DejaVuSans-30" x="63.623047"/>
      </g>
     </g>
    </g>
    <g id="xtick_2">
     <g id="line2d_2">
      <g>
       <use xlink:href="#mb7407ca36d" x="107.745224" y="252" style="stroke: #000000; stroke-width: 0.8"/>
      </g>
     </g>
     <g id="text_2">
      <!-- 60 -->
      <g transform="translate(101.382724 266.598437)scale(0.1 -0.1)">
       <defs>
        <path id="DejaVuSans-36" d="M 2113 2584 
Q 1688 2584 1439 2293 
Q 1191 2003 1191 1497 
Q 1191 994 1439 701 
Q 1688 409 2113 409 
Q 2538 409 2786 701 
Q 3034 994 3034 1497 
Q 3034 2003 2786 2293 
Q 2538 2584 2113 2584 
z
M 3366 4563 
L 3366 3988 
Q 3128 4100 2886 4159 
Q 2644 4219 2406 4219 
Q 1781 4219 1451 3797 
Q 1122 3375 1075 2522 
Q 1259 2794 1537 2939 
Q 1816 3084 2150 3084 
Q 2853 3084 3261 2657 
Q 3669 2231 3669 1497 
Q 3669 778 3244 343 
Q 2819 -91 2113 -91 
Q 1303 -91 875 529 
Q 447 1150 447 2328 
Q 447 3434 972 4092 
Q 1497 4750 2381 4750 
Q 2619 4750 2861 4703 
Q 3103 4656 3366 4563 
z
" transform="scale(0.015625)"/>
       </defs>
       <use xlink:href="#DejaVuSans-36"/>
       <use xlink:href="#DejaVuSans-30" x="63.623047"/>
      </g>
     </g>
    </g>
    <g id="xtick_3">
     <g id="line2d_3">
      <g>
       <use xlink:href="#mb7407ca36d" x="146.272267" y="252" style="stroke: #000000; stroke-width: 0.8"/>
      </g>
     </g>
     <g id="text_3">
      <!-- 70 -->
      <g transform="translate(139.909767 266.598437)scale(0.1 -0.1)">
       <defs>
        <path id="DejaVuSans-37" d="M 525 4666 
L 3525 4666 
L 3525 4397 
L 1831 0 
L 1172 0 
L 2766 4134 
L 525 4134 
L 525 4666 
z
" transform="scale(0.015625)"/>
       </defs>
       <use xlink:href="#DejaVuSans-37"/>
       <use xlink:href="#DejaVuSans-30" x="63.623047"/>
      </g>
     </g>
    </g>
    <g id="xtick_4">
     <g id="line2d_4">
      <g>
       <use xlink:href="#mb7407ca36d" x="184.79931" y="252" style="stroke: #000000; stroke-width: 0.8"/>
      </g>
     </g>
     <g id="text_4">
      <!-- 80 -->
      <g transform="translate(178.43681 266.598437)scale(0.1 -0.1)">
       <defs>
        <path id="DejaVuSans-38" d="M 2034 2216 
Q 1584 2216 1326 1975 
Q 1069 1734 1069 1313 
Q 1069 891 1326 650 
Q 1584 409 2034 409 
Q 2484 409 2743 651 
Q 3003 894 3003 1313 
Q 3003 1734 2745 1975 
Q 2488 2216 2034 2216 
z
M 1403 2484 
Q 997 2584 770 2862 
Q 544 3141 544 3541 
Q 544 4100 942 4425 
Q 1341 4750 2034 4750 
Q 2731 4750 3128 4425 
Q 3525 4100 3525 3541 
Q 3525 3141 3298 2862 
Q 3072 2584 2669 2484 
Q 3125 2378 3379 2068 
Q 3634 1759 3634 1313 
Q 3634 634 3220 271 
Q 2806 -91 2034 -91 
Q 1263 -91 848 271 
Q 434 634 434 1313 
Q 434 1759 690 2068 
Q 947 2378 1403 2484 
z
M 1172 3481 
Q 1172 3119 1398 2916 
Q 1625 2713 2034 2713 
Q 2441 2713 2670 2916 
Q 2900 3119 2900 3481 
Q 2900 3844 2670 4047 
Q 2441 4250 2034 4250 
Q 1625 4250 1398 4047 
Q 1172 3844 1172 3481 
z
" transform="scale(0.015625)"/>
       </defs>
       <use xlink:href="#DejaVuSans-38"/>
       <use xlink:href="#DejaVuSans-30" x="63.623047"/>
      </g>
     </g>
    </g>
    <g id="xtick_5">
     <g id="line2d_5">
      <g>
       <use xlink:href="#mb7407ca36d" x="223.326352" y="252" style="stroke: #000000; stroke-width: 0.8"/>
      </g>
     </g>
     <g id="text_5">
      <!-- 90 -->
      <g transform="translate(216.963852 266.598437)scale(0.1 -0.1)">
       <defs>
        <path id="DejaVuSans-39" d="M 703 97 
L 703 672 
Q 941 559 1184 500 
Q 1428 441 1663 441 
Q 2288 441 2617 861 
Q 2947 1281 2994 2138 
Q 2813 1869 2534 1725 
Q 2256 1581 1919 1581 
Q 1219 1581 811 2004 
Q 403 2428 403 3163 
Q 403 3881 828 4315 
Q 1253 4750 1959 4750 
Q 2769 4750 3195 4129 
Q 3622 3509 3622 2328 
Q 3622 1225 3098 567 
Q 2575 -91 1691 -91 
Q 1453 -91 1209 -44 
Q 966 3 703 97 
z
M 1959 2075 
Q 2384 2075 2632 2365 
Q 2881 2656 2881 3163 
Q 2881 3666 2632 3958 
Q 2384 4250 1959 4250 
Q 1534 4250 1286 3958 
Q 1038 3666 1038 3163 
Q 1038 2656 1286 2365 
Q 1534 2075 1959 2075 
z
" transform="scale(0.015625)"/>
       </defs>
       <use xlink:href="#DejaVuSans-39"/>
       <use xlink:href="#DejaVuSans-30" x="63.623047"/>
      </g>
     </g>
    </g>
    <g id="xtick_6">
     <g id="line2d_6">
      <g>
       <use xlink:href="#mb7407ca36d" x="261.853395" y="252" style="stroke: #000000; stroke-width: 0.8"/>
      </g>
     </g>
     <g id="text_6">
      <!-- 100 -->
      <g transform="translate(252.309645 266.598437)scale(0.1 -0.1)">
       <defs>
        <path id="DejaVuSans-31" d="M 794 531 
L 1825 531 
L 1825 4091 
L 703 3866 
L 703 4441 
L 1819 4666 
L 2450 4666 
L 2450 531 
L 3481 531 
L 3481 0 
L 794 0 
L 794 531 
z
" transform="scale(0.015625)"/>
       </defs>
       <use xlink:href="#DejaVuSans-31"/>
       <use xlink:href="#DejaVuSans-30" x="63.623047"/>
       <use xlink:href="#DejaVuSans-30" x="127.246094"/>
      </g>
     </g>
    </g>
    <g id="xtick_7">
     <g id="line2d_7">
      <g>
       <use xlink:href="#mb7407ca36d" x="300.380437" y="252" style="stroke: #000000; stroke-width: 0.8"/>
      </g>
     </g>
     <g id="text_7">
      <!-- 110 -->
      <g transform="translate(290.836687 266.598437)scale(0.1 -0.1)">
       <use xlink:href="#DejaVuSans-31"/>
       <use xlink:href="#DejaVuSans-31" x="63.623047"/>
       <use xlink:href="#DejaVuSans-30" x="127.246094"/>
      </g>
     </g>
    </g>
    <g id="xtick_8">
     <g id="line2d_8">
      <g>
       <use xlink:href="#mb7407ca36d" x="338.90748" y="252" style="stroke: #000000; stroke-width: 0.8"/>
      </g>
     </g>
     <g id="text_8">
      <!-- 120 -->
      <g transform="translate(329.36373 266.598437)scale(0.1 -0.1)">
       <defs>
        <path id="DejaVuSans-32" d="M 1228 531 
L 3431 531 
L 3431 0 
L 469 0 
L 469 531 
Q 828 903 1448 1529 
Q 2069 2156 2228 2338 
Q 2531 2678 2651 2914 
Q 2772 3150 2772 3378 
Q 2772 3750 2511 3984 
Q 2250 4219 1831 4219 
Q 1534 4219 1204 4116 
Q 875 4013 500 3803 
L 500 4441 
Q 881 4594 1212 4672 
Q 1544 4750 1819 4750 
Q 2544 4750 2975 4387 
Q 3406 4025 3406 3419 
Q 3406 3131 3298 2873 
Q 3191 2616 2906 2266 
Q 2828 2175 2409 1742 
Q 1991 1309 1228 531 
z
" transform="scale(0.015625)"/>
       </defs>
       <use xlink:href="#DejaVuSans-31"/>
       <use xlink:href="#DejaVuSans-32" x="63.623047"/>
       <use xlink:href="#DejaVuSans-30" x="127.246094"/>
      </g>
     </g>
    </g>
    <g id="xtick_9">
     <g id="line2d_9">
      <g>
       <use xlink:href="#mb7407ca36d" x="377.434522" y="252" style="stroke: #000000; stroke-width: 0.8"/>
      </g>
     </g>
     <g id="text_9">
      <!-- 130 -->
      <g transform="translate(367.890772 266.598437)scale(0.1 -0.1)">
       <defs>
        <path id="DejaVuSans-33" d="M 2597 2516 
Q 3050 2419 3304 2112 
Q 3559 1806 3559 1356 
Q 3559 666 3084 287 
Q 2609 -91 1734 -91 
Q 1441 -91 1130 -33 
Q 819 25 488 141 
L 488 750 
Q 750 597 1062 519 
Q 1375 441 1716 441 
Q 2309 441 2620 675 
Q 2931 909 2931 1356 
Q 2931 1769 2642 2001 
Q 2353 2234 1838 2234 
L 1294 2234 
L 1294 2753 
L 1863 2753 
Q 2328 2753 2575 2939 
Q 2822 3125 2822 3475 
Q 2822 3834 2567 4026 
Q 2313 4219 1838 4219 
Q 1578 4219 1281 4162 
Q 984 4106 628 3988 
L 628 4550 
Q 988 4650 1302 4700 
Q 1616 4750 1894 4750 
Q 2613 4750 3031 4423 
Q 3450 4097 3450 3541 
Q 3450 3153 3228 2886 
Q 3006 2619 2597 2516 
z
" transform="scale(0.015625)"/>
       </defs>
       <use xlink:href="#DejaVuSans-31"/>
       <use xlink:href="#DejaVuSans-33" x="63.623047"/>
       <use xlink:href="#DejaVuSans-30" x="127.246094"/>
      </g>
     </g>
    </g>
    <g id="text_10">
     <!-- $n$ -->
     <g transform="translate(218.2 280.276563)scale(0.1 -0.1)">
      <defs>
       <path id="DejaVuSans-Oblique-6e" d="M 3566 2113 
L 3156 0 
L 2578 0 
L 2988 2091 
Q 3016 2238 3031 2350 
Q 3047 2463 3047 2528 
Q 3047 2791 2881 2937 
Q 2716 3084 2419 3084 
Q 1956 3084 1622 2776 
Q 1288 2469 1184 1941 
L 800 0 
L 225 0 
L 903 3500 
L 1478 3500 
L 1363 2950 
Q 1603 3253 1940 3418 
Q 2278 3584 2650 3584 
Q 3113 3584 3367 3334 
Q 3622 3084 3622 2631 
Q 3622 2519 3608 2391 
Q 3594 2263 3566 2113 
z
" transform="scale(0.015625)"/>
      </defs>
      <use xlink:href="#DejaVuSans-Oblique-6e"/>
     </g>
    </g>
   </g>
   <g id="matplotlib.axis_2">
    <g id="ytick_1">
     <g id="line2d_10">
      <path d="M 54 234.750361 
L 388.8 234.750361 
" clip-path="url(#peb39557010)" style="fill: none; stroke: #b0b0b0; stroke-opacity: 0.5; stroke-width: 0.8; stroke-linecap: square"/>
     </g>
     <g id="line2d_11">
      <defs>
       <path id="m837c4aee0a" d="M 0 0 
L -3.5 0 
" style="stroke: #000000; stroke-width: 0.8"/>
      </defs>
      <g>
       <use xlink:href="#m837c4aee0a" x="54" y="234.750361" style="stroke: #000000; stroke-width: 0.8"/>
      </g>
     </g>
     <g id="text_11">
      <!-- 5 -->
      <g transform="translate(40.6375 238.54958)scale(0.1 -0.1)">
       <use xlink:href="#DejaVuSans-35"/>
      </g>
     </g>
    </g>
    <g id="ytick_2">
     <g id="line2d_12">
      <path d="M 54 190.774226 
L 388.8 190.774226 
" clip-path="url(#peb39557010)" style="fill: none; stroke: #b0b0b0; stroke-opacity: 0.5; stroke-width: 0.8; stroke-linecap: square"/>
     </g>
     <g id="line2d_13">
      <g>
       <use xlink:href="#m837c4aee0a" x="54" y="190.774226" style="stroke: #000000; stroke-width: 0.8"/>
      </g>
     </g>
     <g id="text_12">
      <!-- 10 -->
      <g transform="translate(34.275 194.573445)scale(0.1 -0.1)">
       <use xlink:href="#DejaVuSans-31"/>
       <use xlink:href="#DejaVuSans-30" x="63.623047"/>
      </g>
     </g>
    </g>
    <g id="ytick_3">
     <g id="line2d_14">
      <path d="M 54 146.798091 
L 388.8 146.798091 
" clip-path="url(#peb39557010)" style="fill: none; stroke: #b0b0b0; stroke-opacity: 0.5; stroke-width: 0.8; stroke-linecap: square"/>
     </g>
     <g id="line2d_15">
      <g>
       <use xlink:href="#m837c4aee0a" x="54" y="146.798091" style="stroke: #000000; stroke-width: 0.8"/>
      </g>
     </g>
     <g id="text_13">
      <!-- 15 -->
      <g transform="translate(34.275 150.59731)scale(0.1 -0.1)">
       <use xlink:href="#DejaVuSans-31"/>
       <use xlink:href="#DejaVuSans-35" x="63.623047"/>
      </g>
     </g>
    </g>
    <g id="ytick_4">
     <g id="line2d_16">
      <path d="M 54 102.821956 
L 388.8 102.821956 
" clip-path="url(#peb39557010)" style="fill: none; stroke: #b0b0b0; stroke-opacity: 0.5; stroke-width: 0.8; stroke-linecap: square"/>
     </g>
     <g id="line2d_17">
      <g>
       <use xlink:href="#m837c4aee0a" x="54" y="102.821956" style="stroke: #000000; stroke-width: 0.8"/>
      </g>
     </g>
     <g id="text_14">
      <!-- 20 -->
      <g transform="translate(34.275 106.621174)scale(0.1 -0.1)">
       <use xlink:href="#DejaVuSans-32"/>
       <use xlink:href="#DejaVuSans-30" x="63.623047"/>
      </g>
     </g>
    </g>
    <g id="ytick_5">
     <g id="line2d_18">
      <path d="M 54 58.845821 
L 388.8 58.845821 
" clip-path="url(#peb39557010)" style="fill: none; stroke: #b0b0b0; stroke-opacity: 0.5; stroke-width: 0.8; stroke-linecap: square"/>
     </g>
     <g id="line2d_19">
      <g>
       <use xlink:href="#m837c4aee0a" x="54" y="58.845821" style="stroke: #000000; stroke-width: 0.8"/>
      </g>
     </g>
     <g id="text_15">
      <!-- 25 -->
      <g transform="translate(34.275 62.645039)scale(0.1 -0.1)">
       <use xlink:href="#DejaVuSans-32"/>
       <use xlink:href="#DejaVuSans-35" x="63.623047"/>
      </g>
     </g>
    </g>
    <g id="text_16">
     <!-- $|ALG|$ -->
     <g transform="translate(18.12 156.73)rotate(-90)scale(0.1 -0.1)">
      <defs>
       <path id="DejaVuSans-7c" d="M 1344 4891 
L 1344 -1509 
L 813 -1509 
L 813 4891 
L 1344 4891 
z
" transform="scale(0.015625)"/>
       <path id="DejaVuSans-Oblique-41" d="M 2356 4666 
L 3072 4666 
L 3938 0 
L 3278 0 
L 3084 1197 
L 984 1197 
L 325 0 
L -341 0 
L 2356 4666 
z
M 2584 4044 
L 1275 1722 
L 2988 1722 
L 2584 4044 
z
" transform="scale(0.015625)"/>
       <path id="DejaVuSans-Oblique-4c" d="M 1075 4666 
L 1709 4666 
L 909 525 
L 3181 525 
L 3078 0 
L 172 0 
L 1075 4666 
z
" transform="scale(0.015625)"/>
       <path id="DejaVuSans-Oblique-47" d="M 3494 697 
L 3738 1919 
L 2700 1919 
L 2797 2438 
L 4453 2438 
L 4050 384 
Q 3634 156 3143 32 
Q 2653 -91 2156 -91 
Q 1278 -91 783 396 
Q 288 884 288 1753 
Q 288 2475 589 3126 
Q 891 3778 1422 4213 
Q 1756 4484 2153 4617 
Q 2550 4750 3034 4750 
Q 3472 4750 3873 4639 
Q 4275 4528 4641 4306 
L 4513 3634 
Q 4231 3928 3853 4083 
Q 3475 4238 3047 4238 
Q 2550 4238 2172 4048 
Q 1794 3859 1497 3463 
Q 1244 3125 1098 2667 
Q 953 2209 953 1734 
Q 953 1081 1287 751 
Q 1622 422 2284 422 
Q 2616 422 2925 492 
Q 3234 563 3494 697 
z
" transform="scale(0.015625)"/>
      </defs>
      <use xlink:href="#DejaVuSans-7c" transform="translate(0 0.578125)"/>
      <use xlink:href="#DejaVuSans-Oblique-41" transform="translate(33.691406 0.578125)"/>
      <use xlink:href="#DejaVuSans-Oblique-4c" transform="translate(102.099609 0.578125)"/>
      <use xlink:href="#DejaVuSans-Oblique-47" transform="translate(157.8125 0.578125)"/>
      <use xlink:href="#DejaVuSans-7c" transform="translate(235.302734 0.578125)"/>
     </g>
    </g>
   </g>
   <g id="line2d_20">
    <path d="M 69.218182 121.401873 
L 73.070886 157.022542 
L 76.92359 172.52413 
L 80.776295 172.084368 
L 84.628999 151.965287 
L 88.481703 161.310215 
L 92.334407 132.176026 
L 96.187112 151.415585 
L 100.039816 148.007435 
L 103.89252 155.043616 
L 107.745224 171.974428 
L 111.597929 163.289141 
L 115.450633 149.986361 
L 119.303337 155.593318 
L 123.156041 130.746801 
L 127.008746 132.615787 
L 130.86145 126.129307 
L 134.714154 156.582781 
L 138.566858 133.055549 
L 142.419563 116.124737 
L 146.272267 145.148986 
L 150.124971 128.657935 
L 153.977675 117.1142 
L 157.83038 149.436659 
L 161.683084 159.771051 
L 165.535788 91.717982 
L 169.388493 133.825131 
L 173.241197 156.692721 
L 177.093901 107.769271 
L 180.946605 133.38537 
L 184.79931 123.82056 
L 188.652014 96.995118 
L 192.504718 129.207637 
L 196.357422 122.391336 
L 200.210127 113.376228 
L 204.062831 143.060119 
L 207.915535 78.19532 
L 211.768239 86.220965 
L 215.620944 105.570464 
L 219.473648 147.457733 
L 223.326352 109.418376 
L 227.179056 126.019367 
L 231.031761 85.561323 
L 234.884465 127.668472 
L 238.737169 115.465095 
L 242.589873 132.395907 
L 246.442578 104.800882 
L 250.295282 76.106454 
L 254.147986 125.249785 
L 258.00069 129.427517 
L 261.853395 99.963507 
L 265.706099 108.538853 
L 269.558803 128.108233 
L 273.411507 74.237468 
L 277.264212 127.338651 
L 281.116916 72.478422 
L 284.96962 73.138065 
L 288.822325 89.958936 
L 292.675029 85.121561 
L 296.527733 69.400093 
L 300.380437 65.22236 
L 304.233142 133.055549 
L 308.085846 70.389556 
L 311.93855 115.684975 
L 315.791254 67.201286 
L 319.643959 49.281011 
L 323.496663 61.81421 
L 327.349367 68.190749 
L 331.202071 121.951574 
L 335.054776 90.068877 
L 338.90748 54.338267 
L 342.760184 68.740451 
L 346.612888 95.565893 
L 350.465593 75.226931 
L 354.318297 76.766096 
L 358.171001 70.279616 
L 362.023705 95.675834 
L 365.87641 44.443636 
L 369.729114 111.727123 
L 373.581818 76.985976 
" clip-path="url(#peb39557010)" style="fill: none; stroke-dasharray: 1.5,2.475; stroke-dashoffset: 0; stroke: #ff7f0e; stroke-width: 1.5"/>
   </g>
   <g id="line2d_21">
    <path d="M 69.218182 233.431077 
L 73.070886 234.970242 
L 76.92359 240.467259 
L 80.776295 239.587736 
L 84.628999 233.980779 
L 88.481703 239.697676 
L 92.334407 234.640421 
L 96.187112 235.300063 
L 100.039816 234.970242 
L 103.89252 235.849764 
L 107.745224 242.116364 
L 111.597929 238.378392 
L 115.450633 235.849764 
L 119.303337 235.080182 
L 123.156041 235.629884 
L 127.008746 231.781972 
L 130.86145 235.629884 
L 134.714154 232.221733 
L 138.566858 232.661495 
L 142.419563 226.394895 
L 146.272267 231.342211 
L 150.124971 230.242807 
L 153.977675 227.384358 
L 157.83038 233.760898 
L 161.683084 234.970242 
L 165.535788 221.007819 
L 169.388493 233.980779 
L 173.241197 234.42054 
L 177.093901 229.033463 
L 180.946605 226.504836 
L 184.79931 228.153941 
L 188.652014 219.578594 
L 192.504718 230.572628 
L 196.357422 223.536447 
L 200.210127 224.855731 
L 204.062831 227.93406 
L 207.915535 219.798475 
L 211.768239 216.830086 
L 215.620944 225.075611 
L 219.473648 230.682569 
L 223.326352 226.065074 
L 227.179056 225.735253 
L 231.031761 220.677998 
L 234.884465 235.519943 
L 238.737169 225.735253 
L 242.589873 230.352747 
L 246.442578 220.677998 
L 250.295282 217.599668 
L 254.147986 224.196089 
L 258.00069 225.735253 
L 261.853395 217.379788 
L 265.706099 224.52591 
L 269.558803 221.44758 
L 273.411507 213.641816 
L 277.264212 225.515373 
L 281.116916 218.589131 
L 284.96962 216.500265 
L 288.822325 215.840623 
L 292.675029 214.74122 
L 296.527733 212.762293 
L 300.380437 217.269847 
L 304.233142 224.965671 
L 308.085846 215.290921 
L 311.93855 221.667461 
L 315.791254 212.982174 
L 319.643959 208.584561 
L 323.496663 209.464083 
L 327.349367 215.510802 
L 331.202071 217.599668 
L 335.054776 221.007819 
L 338.90748 217.379788 
L 342.760184 213.751756 
L 346.612888 215.071041 
L 350.465593 211.333069 
L 354.318297 208.25474 
L 358.171001 212.652353 
L 362.023705 213.531876 
L 365.87641 206.275814 
L 369.729114 219.798475 
L 373.581818 209.354143 
" clip-path="url(#peb39557010)" style="fill: none; stroke: #1f77b4; stroke-width: 1.5; stroke-linecap: square"/>
   </g>
   <g id="line2d_22">
    <path d="M 69.218182 196.491123 
L 73.070886 214.9611 
L 76.92359 223.536447 
L 80.776295 223.426506 
L 84.628999 213.311995 
L 88.481703 218.14937 
L 92.334407 202.427902 
L 96.187112 212.102651 
L 100.039816 211.333069 
L 103.89252 214.9611 
L 107.745224 223.866268 
L 111.597929 219.358714 
L 115.450633 211.443009 
L 119.303337 214.631279 
L 123.156041 202.317961 
L 127.008746 202.537842 
L 130.86145 199.239632 
L 134.714154 215.290921 
L 138.566858 203.527305 
L 142.419563 194.402257 
L 146.272267 209.024322 
L 150.124971 200.339035 
L 153.977675 195.061899 
L 157.83038 210.783367 
L 161.683084 217.489728 
L 165.535788 182.30882 
L 169.388493 203.527305 
L 173.241197 215.620742 
L 177.093901 190.554345 
L 180.946605 203.417365 
L 184.79931 197.370646 
L 188.652014 184.727507 
L 192.504718 201.658319 
L 196.357422 197.150765 
L 200.210127 192.753152 
L 204.062831 208.144799 
L 207.915535 175.052758 
L 211.768239 177.581385 
L 215.620944 189.454942 
L 219.473648 210.783367 
L 223.326352 191.104047 
L 227.179056 198.57999 
L 231.031761 179.450371 
L 234.884465 201.108618 
L 238.737169 194.732078 
L 242.589873 203.307424 
L 246.442578 188.685359 
L 250.295282 173.293712 
L 254.147986 199.019751 
L 258.00069 201.438439 
L 261.853395 186.156732 
L 265.706099 190.114584 
L 269.558803 200.888737 
L 273.411507 172.194309 
L 277.264212 199.019751 
L 281.116916 170.984965 
L 284.96962 172.963891 
L 288.822325 180.989536 
L 292.675029 178.131087 
L 296.527733 170.215383 
L 300.380437 168.456337 
L 304.233142 203.637245 
L 308.085846 170.545204 
L 311.93855 194.292317 
L 315.791254 169.555741 
L 319.643959 158.121946 
L 323.496663 165.378008 
L 327.349367 169.33586 
L 331.202071 196.601064 
L 335.054776 181.649178 
L 338.90748 162.95932 
L 342.760184 169.22592 
L 346.612888 182.858522 
L 350.465593 173.513593 
L 354.318297 174.503056 
L 358.171001 171.864488 
L 362.023705 183.957925 
L 365.87641 157.352363 
L 369.729114 191.653749 
L 373.581818 174.063295 
" clip-path="url(#peb39557010)" style="fill: none; stroke-dasharray: 1.5,2.475; stroke-dashoffset: 0; stroke: #1f77b4; stroke-width: 1.5"/>
   </g>
   <g id="line2d_23">
    <path d="M 69.218182 182.41876 
L 73.070886 189.784763 
L 76.92359 196.051362 
L 80.776295 197.590527 
L 84.628999 186.706433 
L 88.481703 196.820944 
L 92.334407 185.387149 
L 96.187112 193.302854 
L 100.039816 186.706433 
L 103.89252 188.575419 
L 107.745224 201.658319 
L 111.597929 196.601064 
L 115.450633 188.7953 
L 119.303337 185.826911 
L 123.156041 185.936851 
L 127.008746 178.460908 
L 130.86145 184.287746 
L 134.714154 188.685359 
L 138.566858 183.408223 
L 142.419563 171.424726 
L 146.272267 179.340431 
L 150.124971 178.021147 
L 153.977675 171.314786 
L 157.83038 183.518164 
L 161.683084 185.71697 
L 165.535788 156.472841 
L 169.388493 183.078402 
L 173.241197 185.71697 
L 177.093901 170.984965 
L 180.946605 169.555741 
L 184.79931 169.555741 
L 188.652014 155.043616 
L 192.504718 173.513593 
L 196.357422 164.718366 
L 200.210127 166.697292 
L 204.062831 173.293712 
L 207.915535 149.986361 
L 211.768239 148.667077 
L 215.620944 165.048187 
L 219.473648 179.560311 
L 223.326352 168.786158 
L 227.179056 166.367471 
L 231.031761 156.14302 
L 234.884465 185.71697 
L 238.737169 167.466874 
L 242.589873 175.602459 
L 246.442578 155.813199 
L 250.295282 146.798091 
L 254.147986 164.718366 
L 258.00069 167.796695 
L 261.853395 152.734869 
L 265.706099 163.728903 
L 269.558803 160.540633 
L 273.411507 141.960716 
L 277.264212 166.477411 
L 281.116916 150.646003 
L 284.96962 146.68815 
L 288.822325 146.798091 
L 292.675029 147.017971 
L 296.527733 139.761909 
L 300.380437 148.667077 
L 304.233142 165.378008 
L 308.085846 140.421551 
L 311.93855 160.210812 
L 315.791254 140.751372 
L 319.643959 129.647398 
L 323.496663 132.835668 
L 327.349367 140.531492 
L 331.202071 150.206241 
L 335.054776 158.891528 
L 338.90748 145.039045 
L 342.760184 140.751372 
L 346.612888 144.709224 
L 350.465593 141.191134 
L 354.318297 133.055549 
L 358.171001 139.212208 
L 362.023705 142.180597 
L 365.87641 120.962111 
L 369.729114 152.844809 
L 373.581818 132.395907 
" clip-path="url(#peb39557010)" style="fill: none; stroke: #ff7f0e; stroke-width: 1.5; stroke-linecap: square"/>
   </g>
   <g id="patch_3">
    <path d="M 54 252 
L 54 34.56 
" style="fill: none; stroke: #000000; stroke-width: 0.8; stroke-linejoin: miter; stroke-linecap: square"/>
   </g>
   <g id="patch_4">
    <path d="M 388.8 252 
L 388.8 34.56 
" style="fill: none; stroke: #000000; stroke-width: 0.8; stroke-linejoin: miter; stroke-linecap: square"/>
   </g>
   <g id="patch_5">
    <path d="M 54 252 
L 388.8 252 
" style="fill: none; stroke: #000000; stroke-width: 0.8; stroke-linejoin: miter; stroke-linecap: square"/>
   </g>
   <g id="patch_6">
    <path d="M 54 34.56 
L 388.8 34.56 
" style="fill: none; stroke: #000000; stroke-width: 0.8; stroke-linejoin: miter; stroke-linecap: square"/>
   </g>
   <g id="legend_1">
    <g id="patch_7">
     <path d="M 61 101.2725 
L 151.2 101.2725 
Q 153.2 101.2725 153.2 99.2725 
L 153.2 41.56 
Q 153.2 39.56 151.2 39.56 
L 61 39.56 
Q 59 39.56 59 41.56 
L 59 99.2725 
Q 59 101.2725 61 101.2725 
z
" style="fill: #ffffff; opacity: 0.8; stroke: #cccccc; stroke-linejoin: miter"/>
    </g>
    <g id="line2d_24">
     <path d="M 63 47.658437 
L 73 47.658437 
L 83 47.658437 
" style="fill: none; stroke-dasharray: 1.5,2.475; stroke-dashoffset: 0; stroke: #ff7f0e; stroke-width: 1.5"/>
    </g>
    <g id="text_17">
     <!-- $SPC_{IOMR}(K_G)$ -->
     <g transform="translate(91 51.158437)scale(0.1 -0.1)">
      <defs>
       <path id="DejaVuSans-Oblique-53" d="M 3859 4513 
L 3738 3897 
Q 3422 4066 3111 4152 
Q 2800 4238 2509 4238 
Q 1944 4238 1609 3991 
Q 1275 3744 1275 3334 
Q 1275 3109 1398 2989 
Q 1522 2869 2034 2731 
L 2413 2638 
Q 3053 2472 3303 2217 
Q 3553 1963 3553 1503 
Q 3553 797 2998 353 
Q 2444 -91 1538 -91 
Q 1166 -91 791 -17 
Q 416 56 38 206 
L 166 856 
Q 513 641 861 531 
Q 1209 422 1556 422 
Q 2147 422 2503 684 
Q 2859 947 2859 1369 
Q 2859 1650 2717 1795 
Q 2575 1941 2106 2059 
L 1728 2156 
Q 1081 2325 845 2545 
Q 609 2766 609 3163 
Q 609 3859 1145 4304 
Q 1681 4750 2541 4750 
Q 2875 4750 3203 4690 
Q 3531 4631 3859 4513 
z
" transform="scale(0.015625)"/>
       <path id="DejaVuSans-Oblique-50" d="M 1081 4666 
L 2541 4666 
Q 3178 4666 3512 4369 
Q 3847 4072 3847 3500 
Q 3847 2731 3353 2303 
Q 2859 1875 1966 1875 
L 1172 1875 
L 806 0 
L 172 0 
L 1081 4666 
z
M 1613 4147 
L 1275 2394 
L 2069 2394 
Q 2606 2394 2893 2669 
Q 3181 2944 3181 3456 
Q 3181 3784 2986 3965 
Q 2791 4147 2438 4147 
L 1613 4147 
z
" transform="scale(0.015625)"/>
       <path id="DejaVuSans-Oblique-43" d="M 4447 4306 
L 4319 3641 
Q 4019 3944 3683 4091 
Q 3347 4238 2956 4238 
Q 2422 4238 2017 3981 
Q 1613 3725 1319 3200 
Q 1131 2863 1032 2486 
Q 934 2109 934 1728 
Q 934 1091 1264 756 
Q 1594 422 2222 422 
Q 2656 422 3056 561 
Q 3456 700 3834 978 
L 3688 231 
Q 3316 72 2936 -9 
Q 2556 -91 2175 -91 
Q 1278 -91 773 396 
Q 269 884 269 1753 
Q 269 2309 461 2846 
Q 653 3384 1013 3828 
Q 1394 4300 1883 4525 
Q 2372 4750 3022 4750 
Q 3422 4750 3780 4639 
Q 4138 4528 4447 4306 
z
" transform="scale(0.015625)"/>
       <path id="DejaVuSans-Oblique-49" d="M 1081 4666 
L 1716 4666 
L 806 0 
L 172 0 
L 1081 4666 
z
" transform="scale(0.015625)"/>
       <path id="DejaVuSans-Oblique-4f" d="M 2919 4238 
Q 2400 4238 2003 3986 
Q 1606 3734 1313 3219 
Q 1125 2891 1026 2522 
Q 928 2153 928 1778 
Q 928 1128 1239 775 
Q 1550 422 2119 422 
Q 2631 422 3032 676 
Q 3434 931 3719 1434 
Q 3909 1772 4009 2142 
Q 4109 2513 4109 2881 
Q 4109 3528 3796 3883 
Q 3484 4238 2919 4238 
z
M 2100 -91 
Q 1241 -91 748 418 
Q 256 928 256 1813 
Q 256 2319 448 2847 
Q 641 3375 978 3788 
Q 1375 4272 1862 4511 
Q 2350 4750 2938 4750 
Q 3794 4750 4287 4245 
Q 4781 3741 4781 2869 
Q 4781 2331 4593 1812 
Q 4406 1294 4056 872 
Q 3656 384 3173 146 
Q 2691 -91 2100 -91 
z
" transform="scale(0.015625)"/>
       <path id="DejaVuSans-Oblique-4d" d="M 1081 4666 
L 2028 4666 
L 2572 1522 
L 4378 4666 
L 5350 4666 
L 4441 0 
L 3828 0 
L 4622 4091 
L 2791 897 
L 2175 897 
L 1581 4103 
L 788 0 
L 172 0 
L 1081 4666 
z
" transform="scale(0.015625)"/>
       <path id="DejaVuSans-Oblique-52" d="M 1613 4147 
L 1294 2491 
L 2106 2491 
Q 2584 2491 2879 2755 
Q 3175 3019 3175 3444 
Q 3175 3784 2976 3965 
Q 2778 4147 2406 4147 
L 1613 4147 
z
M 2772 2241 
Q 2972 2194 3105 2009 
Q 3238 1825 3413 1275 
L 3809 0 
L 3144 0 
L 2778 1197 
Q 2638 1659 2453 1815 
Q 2269 1972 1888 1972 
L 1191 1972 
L 806 0 
L 172 0 
L 1081 4666 
L 2503 4666 
Q 3150 4666 3495 4373 
Q 3841 4081 3841 3531 
Q 3841 3044 3547 2687 
Q 3253 2331 2772 2241 
z
" transform="scale(0.015625)"/>
       <path id="DejaVuSans-28" d="M 1984 4856 
Q 1566 4138 1362 3434 
Q 1159 2731 1159 2009 
Q 1159 1288 1364 580 
Q 1569 -128 1984 -844 
L 1484 -844 
Q 1016 -109 783 600 
Q 550 1309 550 2009 
Q 550 2706 781 3412 
Q 1013 4119 1484 4856 
L 1984 4856 
z
" transform="scale(0.015625)"/>
       <path id="DejaVuSans-Oblique-4b" d="M 1081 4666 
L 1716 4666 
L 1331 2700 
L 3781 4666 
L 4622 4666 
L 1850 2438 
L 3878 0 
L 3109 0 
L 1247 2272 
L 806 0 
L 172 0 
L 1081 4666 
z
" transform="scale(0.015625)"/>
       <path id="DejaVuSans-29" d="M 513 4856 
L 1013 4856 
Q 1481 4119 1714 3412 
Q 1947 2706 1947 2009 
Q 1947 1309 1714 600 
Q 1481 -109 1013 -844 
L 513 -844 
Q 928 -128 1133 580 
Q 1338 1288 1338 2009 
Q 1338 2731 1133 3434 
Q 928 4138 513 4856 
z
" transform="scale(0.015625)"/>
      </defs>
      <use xlink:href="#DejaVuSans-Oblique-53" transform="translate(0 0.125)"/>
      <use xlink:href="#DejaVuSans-Oblique-50" transform="translate(63.476562 0.125)"/>
      <use xlink:href="#DejaVuSans-Oblique-43" transform="translate(123.779297 0.125)"/>
      <use xlink:href="#DejaVuSans-Oblique-49" transform="translate(193.603516 -16.28125)scale(0.7)"/>
      <use xlink:href="#DejaVuSans-Oblique-4f" transform="translate(214.248047 -16.28125)scale(0.7)"/>
      <use xlink:href="#DejaVuSans-Oblique-4d" transform="translate(269.345703 -16.28125)scale(0.7)"/>
      <use xlink:href="#DejaVuSans-Oblique-52" transform="translate(329.741211 -16.28125)scale(0.7)"/>
      <use xlink:href="#DejaVuSans-28" transform="translate(381.113281 0.125)"/>
      <use xlink:href="#DejaVuSans-Oblique-4b" transform="translate(420.126953 0.125)"/>
      <use xlink:href="#DejaVuSans-Oblique-47" transform="translate(485.703125 -16.28125)scale(0.7)"/>
      <use xlink:href="#DejaVuSans-29" transform="translate(542.680664 0.125)"/>
     </g>
    </g>
    <g id="line2d_25">
     <path d="M 63 62.336562 
L 73 62.336562 
L 83 62.336562 
" style="fill: none; stroke: #1f77b4; stroke-width: 1.5; stroke-linecap: square"/>
    </g>
    <g id="text_18">
     <!-- $LHS$ -->
     <g transform="translate(91 65.836562)scale(0.1 -0.1)">
      <defs>
       <path id="DejaVuSans-Oblique-48" d="M 1081 4666 
L 1716 4666 
L 1344 2753 
L 3634 2753 
L 4006 4666 
L 4641 4666 
L 3731 0 
L 3097 0 
L 3531 2222 
L 1241 2222 
L 806 0 
L 172 0 
L 1081 4666 
z
" transform="scale(0.015625)"/>
      </defs>
      <use xlink:href="#DejaVuSans-Oblique-4c" transform="translate(0 0.78125)"/>
      <use xlink:href="#DejaVuSans-Oblique-48" transform="translate(55.712891 0.78125)"/>
      <use xlink:href="#DejaVuSans-Oblique-53" transform="translate(130.908203 0.78125)"/>
     </g>
    </g>
    <g id="line2d_26">
     <path d="M 63 77.014687 
L 73 77.014687 
L 83 77.014687 
" style="fill: none; stroke-dasharray: 1.5,2.475; stroke-dashoffset: 0; stroke: #1f77b4; stroke-width: 1.5"/>
    </g>
    <g id="text_19">
     <!-- $LHS(K_G)$ -->
     <g transform="translate(91 80.514687)scale(0.1 -0.1)">
      <use xlink:href="#DejaVuSans-Oblique-4c" transform="translate(0 0.125)"/>
      <use xlink:href="#DejaVuSans-Oblique-48" transform="translate(55.712891 0.125)"/>
      <use xlink:href="#DejaVuSans-Oblique-53" transform="translate(130.908203 0.125)"/>
      <use xlink:href="#DejaVuSans-28" transform="translate(194.384766 0.125)"/>
      <use xlink:href="#DejaVuSans-Oblique-4b" transform="translate(233.398438 0.125)"/>
      <use xlink:href="#DejaVuSans-Oblique-47" transform="translate(298.974609 -16.28125)scale(0.7)"/>
      <use xlink:href="#DejaVuSans-29" transform="translate(355.952148 0.125)"/>
     </g>
    </g>
    <g id="line2d_27">
     <path d="M 63 91.692813 
L 73 91.692813 
L 83 91.692813 
" style="fill: none; stroke: #ff7f0e; stroke-width: 1.5; stroke-linecap: square"/>
    </g>
    <g id="text_20">
     <!-- $SPC_{IOMR}$ -->
     <g transform="translate(91 95.192813)scale(0.1 -0.1)">
      <use xlink:href="#DejaVuSans-Oblique-53" transform="translate(0 0.78125)"/>
      <use xlink:href="#DejaVuSans-Oblique-50" transform="translate(63.476562 0.78125)"/>
      <use xlink:href="#DejaVuSans-Oblique-43" transform="translate(123.779297 0.78125)"/>
      <use xlink:href="#DejaVuSans-Oblique-49" transform="translate(193.603516 -15.625)scale(0.7)"/>
      <use xlink:href="#DejaVuSans-Oblique-4f" transform="translate(214.248047 -15.625)scale(0.7)"/>
      <use xlink:href="#DejaVuSans-Oblique-4d" transform="translate(269.345703 -15.625)scale(0.7)"/>
      <use xlink:href="#DejaVuSans-Oblique-52" transform="translate(329.741211 -15.625)scale(0.7)"/>
     </g>
    </g>
   </g>
  </g>
 </g>
 <defs>
  <clipPath id="peb39557010">
   <rect x="54" y="34.56" width="334.8" height="217.44"/>
  </clipPath>
 </defs>
</svg>
