<?xml version="1.0" encoding="UTF-8" standalone="no"?>
<svg
   width="432pt"
   height="288pt"
   viewBox="0 0 432 288"
   version="1.1"
   id="svg116"
   sodipodi:docname="relative_discarded_08.svg"
   inkscape:export-filename="relative_discarded_08.pdf"
   inkscape:export-xdpi="96"
   inkscape:export-ydpi="96"
   inkscape:version="1.3.2 (091e20e, 2023-11-25)"
   xmlns:inkscape="http://www.inkscape.org/namespaces/inkscape"
   xmlns:sodipodi="http://sodipodi.sourceforge.net/DTD/sodipodi-0.dtd"
   xmlns:xlink="http://www.w3.org/1999/xlink"
   xmlns="http://www.w3.org/2000/svg"
   xmlns:svg="http://www.w3.org/2000/svg"
   xmlns:rdf="http://www.w3.org/1999/02/22-rdf-syntax-ns#"
   xmlns:cc="http://creativecommons.org/ns#"
   xmlns:dc="http://purl.org/dc/elements/1.1/">
  <sodipodi:namedview
     id="namedview116"
     pagecolor="#ffffff"
     bordercolor="#000000"
     borderopacity="0.25"
     inkscape:showpageshadow="2"
     inkscape:pageopacity="0.0"
     inkscape:pagecheckerboard="0"
     inkscape:deskcolor="#d1d1d1"
     inkscape:document-units="pt"
     inkscape:zoom="0.61458333"
     inkscape:cx="288"
     inkscape:cy="192"
     inkscape:window-width="1312"
     inkscape:window-height="449"
     inkscape:window-x="0"
     inkscape:window-y="0"
     inkscape:window-maximized="0"
     inkscape:current-layer="svg116" />
  <metadata
     id="metadata1">
    <rdf:RDF>
      <cc:Work>
        <dc:type
           rdf:resource="http://purl.org/dc/dcmitype/StillImage" />
        <dc:date>2024-07-05T09:22:35.969051</dc:date>
        <dc:format>image/svg+xml</dc:format>
        <dc:creator>
          <cc:Agent>
            <dc:title>Matplotlib v3.5.2, https://matplotlib.org/</dc:title>
          </cc:Agent>
        </dc:creator>
      </cc:Work>
    </rdf:RDF>
  </metadata>
  <defs
     id="defs1">
    <style
       type="text/css"
       id="style1">*{stroke-linejoin: round; stroke-linecap: butt}</style>
  </defs>
  <g
     id="figure_1">
    <g
       id="patch_1">
      <path
         d="M 0 288  L 432 288  L 432 0  L 0 0  L 0 288  z "
         style="fill: none"
         id="path1" />
    </g>
    <g
       id="axes_1">
      <g
         id="patch_2">
        <path
           d="M 54 252  L 388.8 252  L 388.8 34.56  L 54 34.56  z "
           style="fill: #ffffff"
           id="path2" />
      </g>
      <g
         id="matplotlib.axis_1">
        <g
           id="xtick_1">
          <g
             id="line2d_1">
            <defs
               id="defs2">
              <path
                 id="mc98ffbda54"
                 d="M 0 0  L 0 3.5  "
                 style="stroke: #000000; stroke-width: 0.8" />
            </defs>
            <g
               id="g2">
              <use
                 xlink:href="#mc98ffbda54"
                 x="69.218182"
                 y="252"
                 style="stroke: #000000; stroke-width: 0.8"
                 id="use2" />
            </g>
          </g>
          <g
             id="text_1">
            <!-- 50 -->
            <g
               transform="translate(62.855682 266.598437)scale(0.1 -0.1)"
               id="g4">
              <defs
                 id="defs3">
                <path
                   id="DejaVuSans-35"
                   d="M 691 4666  L 3169 4666  L 3169 4134  L 1269 4134  L 1269 2991  Q 1406 3038 1543 3061  Q 1681 3084 1819 3084  Q 2600 3084 3056 2656  Q 3513 2228 3513 1497  Q 3513 744 3044 326  Q 2575 -91 1722 -91  Q 1428 -91 1123 -41  Q 819 9 494 109  L 494 744  Q 775 591 1075 516  Q 1375 441 1709 441  Q 2250 441 2565 725  Q 2881 1009 2881 1497  Q 2881 1984 2565 2268  Q 2250 2553 1709 2553  Q 1456 2553 1204 2497  Q 953 2441 691 2322  L 691 4666  z "
                   transform="scale(0.015625)" />
                <path
                   id="DejaVuSans-30"
                   d="M 2034 4250  Q 1547 4250 1301 3770  Q 1056 3291 1056 2328  Q 1056 1369 1301 889  Q 1547 409 2034 409  Q 2525 409 2770 889  Q 3016 1369 3016 2328  Q 3016 3291 2770 3770  Q 2525 4250 2034 4250  z M 2034 4750  Q 2819 4750 3233 4129  Q 3647 3509 3647 2328  Q 3647 1150 3233 529  Q 2819 -91 2034 -91  Q 1250 -91 836 529  Q 422 1150 422 2328  Q 422 3509 836 4129  Q 1250 4750 2034 4750  z "
                   transform="scale(0.015625)" />
              </defs>
              <use
                 xlink:href="#DejaVuSans-35"
                 id="use3" />
              <use
                 xlink:href="#DejaVuSans-30"
                 x="63.623047"
                 id="use4" />
            </g>
          </g>
        </g>
        <g
           id="xtick_2">
          <g
             id="line2d_2">
            <g
               id="g5">
              <use
                 xlink:href="#mc98ffbda54"
                 x="107.745224"
                 y="252"
                 style="stroke: #000000; stroke-width: 0.8"
                 id="use5" />
            </g>
          </g>
          <g
             id="text_2">
            <!-- 60 -->
            <g
               transform="translate(101.382724 266.598437)scale(0.1 -0.1)"
               id="g7">
              <defs
                 id="defs5">
                <path
                   id="DejaVuSans-36"
                   d="M 2113 2584  Q 1688 2584 1439 2293  Q 1191 2003 1191 1497  Q 1191 994 1439 701  Q 1688 409 2113 409  Q 2538 409 2786 701  Q 3034 994 3034 1497  Q 3034 2003 2786 2293  Q 2538 2584 2113 2584  z M 3366 4563  L 3366 3988  Q 3128 4100 2886 4159  Q 2644 4219 2406 4219  Q 1781 4219 1451 3797  Q 1122 3375 1075 2522  Q 1259 2794 1537 2939  Q 1816 3084 2150 3084  Q 2853 3084 3261 2657  Q 3669 2231 3669 1497  Q 3669 778 3244 343  Q 2819 -91 2113 -91  Q 1303 -91 875 529  Q 447 1150 447 2328  Q 447 3434 972 4092  Q 1497 4750 2381 4750  Q 2619 4750 2861 4703  Q 3103 4656 3366 4563  z "
                   transform="scale(0.015625)" />
              </defs>
              <use
                 xlink:href="#DejaVuSans-36"
                 id="use6" />
              <use
                 xlink:href="#DejaVuSans-30"
                 x="63.623047"
                 id="use7" />
            </g>
          </g>
        </g>
        <g
           id="xtick_3">
          <g
             id="line2d_3">
            <g
               id="g8">
              <use
                 xlink:href="#mc98ffbda54"
                 x="146.272267"
                 y="252"
                 style="stroke: #000000; stroke-width: 0.8"
                 id="use8" />
            </g>
          </g>
          <g
             id="text_3">
            <!-- 70 -->
            <g
               transform="translate(139.909767 266.598437)scale(0.1 -0.1)"
               id="g10">
              <defs
                 id="defs8">
                <path
                   id="DejaVuSans-37"
                   d="M 525 4666  L 3525 4666  L 3525 4397  L 1831 0  L 1172 0  L 2766 4134  L 525 4134  L 525 4666  z "
                   transform="scale(0.015625)" />
              </defs>
              <use
                 xlink:href="#DejaVuSans-37"
                 id="use9" />
              <use
                 xlink:href="#DejaVuSans-30"
                 x="63.623047"
                 id="use10" />
            </g>
          </g>
        </g>
        <g
           id="xtick_4">
          <g
             id="line2d_4">
            <g
               id="g11">
              <use
                 xlink:href="#mc98ffbda54"
                 x="184.79931"
                 y="252"
                 style="stroke: #000000; stroke-width: 0.8"
                 id="use11" />
            </g>
          </g>
          <g
             id="text_4">
            <!-- 80 -->
            <g
               transform="translate(178.43681 266.598437)scale(0.1 -0.1)"
               id="g13">
              <defs
                 id="defs11">
                <path
                   id="DejaVuSans-38"
                   d="M 2034 2216  Q 1584 2216 1326 1975  Q 1069 1734 1069 1313  Q 1069 891 1326 650  Q 1584 409 2034 409  Q 2484 409 2743 651  Q 3003 894 3003 1313  Q 3003 1734 2745 1975  Q 2488 2216 2034 2216  z M 1403 2484  Q 997 2584 770 2862  Q 544 3141 544 3541  Q 544 4100 942 4425  Q 1341 4750 2034 4750  Q 2731 4750 3128 4425  Q 3525 4100 3525 3541  Q 3525 3141 3298 2862  Q 3072 2584 2669 2484  Q 3125 2378 3379 2068  Q 3634 1759 3634 1313  Q 3634 634 3220 271  Q 2806 -91 2034 -91  Q 1263 -91 848 271  Q 434 634 434 1313  Q 434 1759 690 2068  Q 947 2378 1403 2484  z M 1172 3481  Q 1172 3119 1398 2916  Q 1625 2713 2034 2713  Q 2441 2713 2670 2916  Q 2900 3119 2900 3481  Q 2900 3844 2670 4047  Q 2441 4250 2034 4250  Q 1625 4250 1398 4047  Q 1172 3844 1172 3481  z "
                   transform="scale(0.015625)" />
              </defs>
              <use
                 xlink:href="#DejaVuSans-38"
                 id="use12" />
              <use
                 xlink:href="#DejaVuSans-30"
                 x="63.623047"
                 id="use13" />
            </g>
          </g>
        </g>
        <g
           id="xtick_5">
          <g
             id="line2d_5">
            <g
               id="g14">
              <use
                 xlink:href="#mc98ffbda54"
                 x="223.326352"
                 y="252"
                 style="stroke: #000000; stroke-width: 0.8"
                 id="use14" />
            </g>
          </g>
          <g
             id="text_5">
            <!-- 90 -->
            <g
               transform="translate(216.963852 266.598437)scale(0.1 -0.1)"
               id="g16">
              <defs
                 id="defs14">
                <path
                   id="DejaVuSans-39"
                   d="M 703 97  L 703 672  Q 941 559 1184 500  Q 1428 441 1663 441  Q 2288 441 2617 861  Q 2947 1281 2994 2138  Q 2813 1869 2534 1725  Q 2256 1581 1919 1581  Q 1219 1581 811 2004  Q 403 2428 403 3163  Q 403 3881 828 4315  Q 1253 4750 1959 4750  Q 2769 4750 3195 4129  Q 3622 3509 3622 2328  Q 3622 1225 3098 567  Q 2575 -91 1691 -91  Q 1453 -91 1209 -44  Q 966 3 703 97  z M 1959 2075  Q 2384 2075 2632 2365  Q 2881 2656 2881 3163  Q 2881 3666 2632 3958  Q 2384 4250 1959 4250  Q 1534 4250 1286 3958  Q 1038 3666 1038 3163  Q 1038 2656 1286 2365  Q 1534 2075 1959 2075  z "
                   transform="scale(0.015625)" />
              </defs>
              <use
                 xlink:href="#DejaVuSans-39"
                 id="use15" />
              <use
                 xlink:href="#DejaVuSans-30"
                 x="63.623047"
                 id="use16" />
            </g>
          </g>
        </g>
        <g
           id="xtick_6">
          <g
             id="line2d_6">
            <g
               id="g17">
              <use
                 xlink:href="#mc98ffbda54"
                 x="261.853395"
                 y="252"
                 style="stroke: #000000; stroke-width: 0.8"
                 id="use17" />
            </g>
          </g>
          <g
             id="text_6">
            <!-- 100 -->
            <g
               transform="translate(252.309645 266.598437)scale(0.1 -0.1)"
               id="g20">
              <defs
                 id="defs17">
                <path
                   id="DejaVuSans-31"
                   d="M 794 531  L 1825 531  L 1825 4091  L 703 3866  L 703 4441  L 1819 4666  L 2450 4666  L 2450 531  L 3481 531  L 3481 0  L 794 0  L 794 531  z "
                   transform="scale(0.015625)" />
              </defs>
              <use
                 xlink:href="#DejaVuSans-31"
                 id="use18" />
              <use
                 xlink:href="#DejaVuSans-30"
                 x="63.623047"
                 id="use19" />
              <use
                 xlink:href="#DejaVuSans-30"
                 x="127.246094"
                 id="use20" />
            </g>
          </g>
        </g>
        <g
           id="xtick_7">
          <g
             id="line2d_7">
            <g
               id="g21">
              <use
                 xlink:href="#mc98ffbda54"
                 x="300.380437"
                 y="252"
                 style="stroke: #000000; stroke-width: 0.8"
                 id="use21" />
            </g>
          </g>
          <g
             id="text_7">
            <!-- 110 -->
            <g
               transform="translate(290.836687 266.598437)scale(0.1 -0.1)"
               id="g24">
              <use
                 xlink:href="#DejaVuSans-31"
                 id="use22" />
              <use
                 xlink:href="#DejaVuSans-31"
                 x="63.623047"
                 id="use23" />
              <use
                 xlink:href="#DejaVuSans-30"
                 x="127.246094"
                 id="use24" />
            </g>
          </g>
        </g>
        <g
           id="xtick_8">
          <g
             id="line2d_8">
            <g
               id="g25">
              <use
                 xlink:href="#mc98ffbda54"
                 x="338.90748"
                 y="252"
                 style="stroke: #000000; stroke-width: 0.8"
                 id="use25" />
            </g>
          </g>
          <g
             id="text_8">
            <!-- 120 -->
            <g
               transform="translate(329.36373 266.598437)scale(0.1 -0.1)"
               id="g28">
              <defs
                 id="defs25">
                <path
                   id="DejaVuSans-32"
                   d="M 1228 531  L 3431 531  L 3431 0  L 469 0  L 469 531  Q 828 903 1448 1529  Q 2069 2156 2228 2338  Q 2531 2678 2651 2914  Q 2772 3150 2772 3378  Q 2772 3750 2511 3984  Q 2250 4219 1831 4219  Q 1534 4219 1204 4116  Q 875 4013 500 3803  L 500 4441  Q 881 4594 1212 4672  Q 1544 4750 1819 4750  Q 2544 4750 2975 4387  Q 3406 4025 3406 3419  Q 3406 3131 3298 2873  Q 3191 2616 2906 2266  Q 2828 2175 2409 1742  Q 1991 1309 1228 531  z "
                   transform="scale(0.015625)" />
              </defs>
              <use
                 xlink:href="#DejaVuSans-31"
                 id="use26" />
              <use
                 xlink:href="#DejaVuSans-32"
                 x="63.623047"
                 id="use27" />
              <use
                 xlink:href="#DejaVuSans-30"
                 x="127.246094"
                 id="use28" />
            </g>
          </g>
        </g>
        <g
           id="xtick_9">
          <g
             id="line2d_9">
            <g
               id="g29">
              <use
                 xlink:href="#mc98ffbda54"
                 x="377.434522"
                 y="252"
                 style="stroke: #000000; stroke-width: 0.8"
                 id="use29" />
            </g>
          </g>
          <g
             id="text_9">
            <!-- 130 -->
            <g
               transform="translate(367.890772 266.598437)scale(0.1 -0.1)"
               id="g32">
              <defs
                 id="defs29">
                <path
                   id="DejaVuSans-33"
                   d="M 2597 2516  Q 3050 2419 3304 2112  Q 3559 1806 3559 1356  Q 3559 666 3084 287  Q 2609 -91 1734 -91  Q 1441 -91 1130 -33  Q 819 25 488 141  L 488 750  Q 750 597 1062 519  Q 1375 441 1716 441  Q 2309 441 2620 675  Q 2931 909 2931 1356  Q 2931 1769 2642 2001  Q 2353 2234 1838 2234  L 1294 2234  L 1294 2753  L 1863 2753  Q 2328 2753 2575 2939  Q 2822 3125 2822 3475  Q 2822 3834 2567 4026  Q 2313 4219 1838 4219  Q 1578 4219 1281 4162  Q 984 4106 628 3988  L 628 4550  Q 988 4650 1302 4700  Q 1616 4750 1894 4750  Q 2613 4750 3031 4423  Q 3450 4097 3450 3541  Q 3450 3153 3228 2886  Q 3006 2619 2597 2516  z "
                   transform="scale(0.015625)" />
              </defs>
              <use
                 xlink:href="#DejaVuSans-31"
                 id="use30" />
              <use
                 xlink:href="#DejaVuSans-33"
                 x="63.623047"
                 id="use31" />
              <use
                 xlink:href="#DejaVuSans-30"
                 x="127.246094"
                 id="use32" />
            </g>
          </g>
        </g>
        <g
           id="text_10">
          <!-- $n$ -->
          <g
             transform="translate(218.2 280.276563)scale(0.1 -0.1)"
             id="g33">
            <defs
               id="defs32">
              <path
                 id="DejaVuSans-Oblique-6e"
                 d="M 3566 2113  L 3156 0  L 2578 0  L 2988 2091  Q 3016 2238 3031 2350  Q 3047 2463 3047 2528  Q 3047 2791 2881 2937  Q 2716 3084 2419 3084  Q 1956 3084 1622 2776  Q 1288 2469 1184 1941  L 800 0  L 225 0  L 903 3500  L 1478 3500  L 1363 2950  Q 1603 3253 1940 3418  Q 2278 3584 2650 3584  Q 3113 3584 3367 3334  Q 3622 3084 3622 2631  Q 3622 2519 3608 2391  Q 3594 2263 3566 2113  z "
                 transform="scale(0.015625)" />
            </defs>
            <use
               xlink:href="#DejaVuSans-Oblique-6e"
               id="use33" />
          </g>
        </g>
      </g>
      <g
         id="matplotlib.axis_2">
        <g
           id="ytick_1">
          <g
             id="line2d_10">
            <path
               d="M 54 250.153363  L 388.8 250.153363  "
               clip-path="url(#p1d99c7169b)"
               style="fill: none; stroke: #b0b0b0; stroke-opacity: 0.5; stroke-width: 0.8; stroke-linecap: square"
               id="path33" />
          </g>
          <g
             id="line2d_11">
            <defs
               id="defs33">
              <path
                 id="md461d1fdea"
                 d="M 0 0  L -3.5 0  "
                 style="stroke: #000000; stroke-width: 0.8" />
            </defs>
            <g
               id="g34">
              <use
                 xlink:href="#md461d1fdea"
                 x="54"
                 y="250.153363"
                 style="stroke: #000000; stroke-width: 0.8"
                 id="use34" />
            </g>
          </g>
          <g
             id="text_11">
            <!-- 0.208 -->
            <g
               transform="translate(18.371875 253.952581)scale(0.1 -0.1)"
               id="g39">
              <defs
                 id="defs34">
                <path
                   id="DejaVuSans-2e"
                   d="M 684 794  L 1344 794  L 1344 0  L 684 0  L 684 794  z "
                   transform="scale(0.015625)" />
              </defs>
              <use
                 xlink:href="#DejaVuSans-30"
                 id="use35" />
              <use
                 xlink:href="#DejaVuSans-2e"
                 x="63.623047"
                 id="use36" />
              <use
                 xlink:href="#DejaVuSans-32"
                 x="95.410156"
                 id="use37" />
              <use
                 xlink:href="#DejaVuSans-30"
                 x="159.033203"
                 id="use38" />
              <use
                 xlink:href="#DejaVuSans-38"
                 x="222.65625"
                 id="use39" />
            </g>
          </g>
        </g>
        <g
           id="ytick_2">
          <g
             id="line2d_12">
            <path
               d="M 54 220.015061  L 388.8 220.015061  "
               clip-path="url(#p1d99c7169b)"
               style="fill: none; stroke: #b0b0b0; stroke-opacity: 0.5; stroke-width: 0.8; stroke-linecap: square"
               id="path39" />
          </g>
          <g
             id="line2d_13">
            <g
               id="g40">
              <use
                 xlink:href="#md461d1fdea"
                 x="54"
                 y="220.015061"
                 style="stroke: #000000; stroke-width: 0.8"
                 id="use40" />
            </g>
          </g>
          <g
             id="text_12">
            <!-- 0.210 -->
            <g
               transform="translate(18.371875 223.81428)scale(0.1 -0.1)"
               id="g45">
              <use
                 xlink:href="#DejaVuSans-30"
                 id="use41" />
              <use
                 xlink:href="#DejaVuSans-2e"
                 x="63.623047"
                 id="use42" />
              <use
                 xlink:href="#DejaVuSans-32"
                 x="95.410156"
                 id="use43" />
              <use
                 xlink:href="#DejaVuSans-31"
                 x="159.033203"
                 id="use44" />
              <use
                 xlink:href="#DejaVuSans-30"
                 x="222.65625"
                 id="use45" />
            </g>
          </g>
        </g>
        <g
           id="ytick_3">
          <g
             id="line2d_14">
            <path
               d="M 54 189.87676  L 388.8 189.87676  "
               clip-path="url(#p1d99c7169b)"
               style="fill: none; stroke: #b0b0b0; stroke-opacity: 0.5; stroke-width: 0.8; stroke-linecap: square"
               id="path45" />
          </g>
          <g
             id="line2d_15">
            <g
               id="g46">
              <use
                 xlink:href="#md461d1fdea"
                 x="54"
                 y="189.87676"
                 style="stroke: #000000; stroke-width: 0.8"
                 id="use46" />
            </g>
          </g>
          <g
             id="text_13">
            <!-- 0.212 -->
            <g
               transform="translate(18.371875 193.675979)scale(0.1 -0.1)"
               id="g51">
              <use
                 xlink:href="#DejaVuSans-30"
                 id="use47" />
              <use
                 xlink:href="#DejaVuSans-2e"
                 x="63.623047"
                 id="use48" />
              <use
                 xlink:href="#DejaVuSans-32"
                 x="95.410156"
                 id="use49" />
              <use
                 xlink:href="#DejaVuSans-31"
                 x="159.033203"
                 id="use50" />
              <use
                 xlink:href="#DejaVuSans-32"
                 x="222.65625"
                 id="use51" />
            </g>
          </g>
        </g>
        <g
           id="ytick_4">
          <g
             id="line2d_16">
            <path
               d="M 54 159.738459  L 388.8 159.738459  "
               clip-path="url(#p1d99c7169b)"
               style="fill: none; stroke: #b0b0b0; stroke-opacity: 0.5; stroke-width: 0.8; stroke-linecap: square"
               id="path51" />
          </g>
          <g
             id="line2d_17">
            <g
               id="g52">
              <use
                 xlink:href="#md461d1fdea"
                 x="54"
                 y="159.738459"
                 style="stroke: #000000; stroke-width: 0.8"
                 id="use52" />
            </g>
          </g>
          <g
             id="text_14">
            <!-- 0.214 -->
            <g
               transform="translate(18.371875 163.537677)scale(0.1 -0.1)"
               id="g57">
              <defs
                 id="defs52">
                <path
                   id="DejaVuSans-34"
                   d="M 2419 4116  L 825 1625  L 2419 1625  L 2419 4116  z M 2253 4666  L 3047 4666  L 3047 1625  L 3713 1625  L 3713 1100  L 3047 1100  L 3047 0  L 2419 0  L 2419 1100  L 313 1100  L 313 1709  L 2253 4666  z "
                   transform="scale(0.015625)" />
              </defs>
              <use
                 xlink:href="#DejaVuSans-30"
                 id="use53" />
              <use
                 xlink:href="#DejaVuSans-2e"
                 x="63.623047"
                 id="use54" />
              <use
                 xlink:href="#DejaVuSans-32"
                 x="95.410156"
                 id="use55" />
              <use
                 xlink:href="#DejaVuSans-31"
                 x="159.033203"
                 id="use56" />
              <use
                 xlink:href="#DejaVuSans-34"
                 x="222.65625"
                 id="use57" />
            </g>
          </g>
        </g>
        <g
           id="ytick_5">
          <g
             id="line2d_18">
            <path
               d="M 54 129.600157  L 388.8 129.600157  "
               clip-path="url(#p1d99c7169b)"
               style="fill: none; stroke: #b0b0b0; stroke-opacity: 0.5; stroke-width: 0.8; stroke-linecap: square"
               id="path57" />
          </g>
          <g
             id="line2d_19">
            <g
               id="g58">
              <use
                 xlink:href="#md461d1fdea"
                 x="54"
                 y="129.600157"
                 style="stroke: #000000; stroke-width: 0.8"
                 id="use58" />
            </g>
          </g>
          <g
             id="text_15">
            <!-- 0.216 -->
            <g
               transform="translate(18.371875 133.399376)scale(0.1 -0.1)"
               id="g63">
              <use
                 xlink:href="#DejaVuSans-30"
                 id="use59" />
              <use
                 xlink:href="#DejaVuSans-2e"
                 x="63.623047"
                 id="use60" />
              <use
                 xlink:href="#DejaVuSans-32"
                 x="95.410156"
                 id="use61" />
              <use
                 xlink:href="#DejaVuSans-31"
                 x="159.033203"
                 id="use62" />
              <use
                 xlink:href="#DejaVuSans-36"
                 x="222.65625"
                 id="use63" />
            </g>
          </g>
        </g>
        <g
           id="ytick_6">
          <g
             id="line2d_20">
            <path
               d="M 54 99.461856  L 388.8 99.461856  "
               clip-path="url(#p1d99c7169b)"
               style="fill: none; stroke: #b0b0b0; stroke-opacity: 0.5; stroke-width: 0.8; stroke-linecap: square"
               id="path63" />
          </g>
          <g
             id="line2d_21">
            <g
               id="g64">
              <use
                 xlink:href="#md461d1fdea"
                 x="54"
                 y="99.461856"
                 style="stroke: #000000; stroke-width: 0.8"
                 id="use64" />
            </g>
          </g>
          <g
             id="text_16">
            <!-- 0.218 -->
            <g
               transform="translate(18.371875 103.261075)scale(0.1 -0.1)"
               id="g69">
              <use
                 xlink:href="#DejaVuSans-30"
                 id="use65" />
              <use
                 xlink:href="#DejaVuSans-2e"
                 x="63.623047"
                 id="use66" />
              <use
                 xlink:href="#DejaVuSans-32"
                 x="95.410156"
                 id="use67" />
              <use
                 xlink:href="#DejaVuSans-31"
                 x="159.033203"
                 id="use68" />
              <use
                 xlink:href="#DejaVuSans-38"
                 x="222.65625"
                 id="use69" />
            </g>
          </g>
        </g>
        <g
           id="ytick_7">
          <g
             id="line2d_22">
            <path
               d="M 54 69.323555  L 388.8 69.323555  "
               clip-path="url(#p1d99c7169b)"
               style="fill: none; stroke: #b0b0b0; stroke-opacity: 0.5; stroke-width: 0.8; stroke-linecap: square"
               id="path69" />
          </g>
          <g
             id="line2d_23">
            <g
               id="g70">
              <use
                 xlink:href="#md461d1fdea"
                 x="54"
                 y="69.323555"
                 style="stroke: #000000; stroke-width: 0.8"
                 id="use70" />
            </g>
          </g>
          <g
             id="text_17">
            <!-- 0.220 -->
            <g
               transform="translate(18.371875 73.122773)scale(0.1 -0.1)"
               id="g75">
              <use
                 xlink:href="#DejaVuSans-30"
                 id="use71" />
              <use
                 xlink:href="#DejaVuSans-2e"
                 x="63.623047"
                 id="use72" />
              <use
                 xlink:href="#DejaVuSans-32"
                 x="95.410156"
                 id="use73" />
              <use
                 xlink:href="#DejaVuSans-32"
                 x="159.033203"
                 id="use74" />
              <use
                 xlink:href="#DejaVuSans-30"
                 x="222.65625"
                 id="use75" />
            </g>
          </g>
        </g>
        <g
           id="ytick_8">
          <g
             id="line2d_24">
            <path
               d="M 54 39.185253  L 388.8 39.185253  "
               clip-path="url(#p1d99c7169b)"
               style="fill: none; stroke: #b0b0b0; stroke-opacity: 0.5; stroke-width: 0.8; stroke-linecap: square"
               id="path75" />
          </g>
          <g
             id="line2d_25">
            <g
               id="g76">
              <use
                 xlink:href="#md461d1fdea"
                 x="54"
                 y="39.185253"
                 style="stroke: #000000; stroke-width: 0.8"
                 id="use76" />
            </g>
          </g>
          <g
             id="text_18">
            <!-- 0.222 -->
            <g
               transform="translate(18.371875 42.984472)scale(0.1 -0.1)"
               id="g81">
              <use
                 xlink:href="#DejaVuSans-30"
                 id="use77" />
              <use
                 xlink:href="#DejaVuSans-2e"
                 x="63.623047"
                 id="use78" />
              <use
                 xlink:href="#DejaVuSans-32"
                 x="95.410156"
                 id="use79" />
              <use
                 xlink:href="#DejaVuSans-32"
                 x="159.033203"
                 id="use80" />
              <use
                 xlink:href="#DejaVuSans-32"
                 x="222.65625"
                 id="use81" />
            </g>
          </g>
        </g>
        <g
           id="text_19">
          <!-- Fraction of discarded edges -->
          <g
             transform="translate(1.700312 212.306562)rotate(-90)scale(0.1 -0.1)"
             id="g108">
            <defs
               id="defs81">
              <path
                 id="DejaVuSans-46"
                 d="M 628 4666  L 3309 4666  L 3309 4134  L 1259 4134  L 1259 2759  L 3109 2759  L 3109 2228  L 1259 2228  L 1259 0  L 628 0  L 628 4666  z "
                 transform="scale(0.015625)" />
              <path
                 id="DejaVuSans-72"
                 d="M 2631 2963  Q 2534 3019 2420 3045  Q 2306 3072 2169 3072  Q 1681 3072 1420 2755  Q 1159 2438 1159 1844  L 1159 0  L 581 0  L 581 3500  L 1159 3500  L 1159 2956  Q 1341 3275 1631 3429  Q 1922 3584 2338 3584  Q 2397 3584 2469 3576  Q 2541 3569 2628 3553  L 2631 2963  z "
                 transform="scale(0.015625)" />
              <path
                 id="DejaVuSans-61"
                 d="M 2194 1759  Q 1497 1759 1228 1600  Q 959 1441 959 1056  Q 959 750 1161 570  Q 1363 391 1709 391  Q 2188 391 2477 730  Q 2766 1069 2766 1631  L 2766 1759  L 2194 1759  z M 3341 1997  L 3341 0  L 2766 0  L 2766 531  Q 2569 213 2275 61  Q 1981 -91 1556 -91  Q 1019 -91 701 211  Q 384 513 384 1019  Q 384 1609 779 1909  Q 1175 2209 1959 2209  L 2766 2209  L 2766 2266  Q 2766 2663 2505 2880  Q 2244 3097 1772 3097  Q 1472 3097 1187 3025  Q 903 2953 641 2809  L 641 3341  Q 956 3463 1253 3523  Q 1550 3584 1831 3584  Q 2591 3584 2966 3190  Q 3341 2797 3341 1997  z "
                 transform="scale(0.015625)" />
              <path
                 id="DejaVuSans-63"
                 d="M 3122 3366  L 3122 2828  Q 2878 2963 2633 3030  Q 2388 3097 2138 3097  Q 1578 3097 1268 2742  Q 959 2388 959 1747  Q 959 1106 1268 751  Q 1578 397 2138 397  Q 2388 397 2633 464  Q 2878 531 3122 666  L 3122 134  Q 2881 22 2623 -34  Q 2366 -91 2075 -91  Q 1284 -91 818 406  Q 353 903 353 1747  Q 353 2603 823 3093  Q 1294 3584 2113 3584  Q 2378 3584 2631 3529  Q 2884 3475 3122 3366  z "
                 transform="scale(0.015625)" />
              <path
                 id="DejaVuSans-74"
                 d="M 1172 4494  L 1172 3500  L 2356 3500  L 2356 3053  L 1172 3053  L 1172 1153  Q 1172 725 1289 603  Q 1406 481 1766 481  L 2356 481  L 2356 0  L 1766 0  Q 1100 0 847 248  Q 594 497 594 1153  L 594 3053  L 172 3053  L 172 3500  L 594 3500  L 594 4494  L 1172 4494  z "
                 transform="scale(0.015625)" />
              <path
                 id="DejaVuSans-69"
                 d="M 603 3500  L 1178 3500  L 1178 0  L 603 0  L 603 3500  z M 603 4863  L 1178 4863  L 1178 4134  L 603 4134  L 603 4863  z "
                 transform="scale(0.015625)" />
              <path
                 id="DejaVuSans-6f"
                 d="M 1959 3097  Q 1497 3097 1228 2736  Q 959 2375 959 1747  Q 959 1119 1226 758  Q 1494 397 1959 397  Q 2419 397 2687 759  Q 2956 1122 2956 1747  Q 2956 2369 2687 2733  Q 2419 3097 1959 3097  z M 1959 3584  Q 2709 3584 3137 3096  Q 3566 2609 3566 1747  Q 3566 888 3137 398  Q 2709 -91 1959 -91  Q 1206 -91 779 398  Q 353 888 353 1747  Q 353 2609 779 3096  Q 1206 3584 1959 3584  z "
                 transform="scale(0.015625)" />
              <path
                 id="DejaVuSans-6e"
                 d="M 3513 2113  L 3513 0  L 2938 0  L 2938 2094  Q 2938 2591 2744 2837  Q 2550 3084 2163 3084  Q 1697 3084 1428 2787  Q 1159 2491 1159 1978  L 1159 0  L 581 0  L 581 3500  L 1159 3500  L 1159 2956  Q 1366 3272 1645 3428  Q 1925 3584 2291 3584  Q 2894 3584 3203 3211  Q 3513 2838 3513 2113  z "
                 transform="scale(0.015625)" />
              <path
                 id="DejaVuSans-20"
                 transform="scale(0.015625)" />
              <path
                 id="DejaVuSans-66"
                 d="M 2375 4863  L 2375 4384  L 1825 4384  Q 1516 4384 1395 4259  Q 1275 4134 1275 3809  L 1275 3500  L 2222 3500  L 2222 3053  L 1275 3053  L 1275 0  L 697 0  L 697 3053  L 147 3053  L 147 3500  L 697 3500  L 697 3744  Q 697 4328 969 4595  Q 1241 4863 1831 4863  L 2375 4863  z "
                 transform="scale(0.015625)" />
              <path
                 id="DejaVuSans-64"
                 d="M 2906 2969  L 2906 4863  L 3481 4863  L 3481 0  L 2906 0  L 2906 525  Q 2725 213 2448 61  Q 2172 -91 1784 -91  Q 1150 -91 751 415  Q 353 922 353 1747  Q 353 2572 751 3078  Q 1150 3584 1784 3584  Q 2172 3584 2448 3432  Q 2725 3281 2906 2969  z M 947 1747  Q 947 1113 1208 752  Q 1469 391 1925 391  Q 2381 391 2643 752  Q 2906 1113 2906 1747  Q 2906 2381 2643 2742  Q 2381 3103 1925 3103  Q 1469 3103 1208 2742  Q 947 2381 947 1747  z "
                 transform="scale(0.015625)" />
              <path
                 id="DejaVuSans-73"
                 d="M 2834 3397  L 2834 2853  Q 2591 2978 2328 3040  Q 2066 3103 1784 3103  Q 1356 3103 1142 2972  Q 928 2841 928 2578  Q 928 2378 1081 2264  Q 1234 2150 1697 2047  L 1894 2003  Q 2506 1872 2764 1633  Q 3022 1394 3022 966  Q 3022 478 2636 193  Q 2250 -91 1575 -91  Q 1294 -91 989 -36  Q 684 19 347 128  L 347 722  Q 666 556 975 473  Q 1284 391 1588 391  Q 1994 391 2212 530  Q 2431 669 2431 922  Q 2431 1156 2273 1281  Q 2116 1406 1581 1522  L 1381 1569  Q 847 1681 609 1914  Q 372 2147 372 2553  Q 372 3047 722 3315  Q 1072 3584 1716 3584  Q 2034 3584 2315 3537  Q 2597 3491 2834 3397  z "
                 transform="scale(0.015625)" />
              <path
                 id="DejaVuSans-65"
                 d="M 3597 1894  L 3597 1613  L 953 1613  Q 991 1019 1311 708  Q 1631 397 2203 397  Q 2534 397 2845 478  Q 3156 559 3463 722  L 3463 178  Q 3153 47 2828 -22  Q 2503 -91 2169 -91  Q 1331 -91 842 396  Q 353 884 353 1716  Q 353 2575 817 3079  Q 1281 3584 2069 3584  Q 2775 3584 3186 3129  Q 3597 2675 3597 1894  z M 3022 2063  Q 3016 2534 2758 2815  Q 2500 3097 2075 3097  Q 1594 3097 1305 2825  Q 1016 2553 972 2059  L 3022 2063  z "
                 transform="scale(0.015625)" />
              <path
                 id="DejaVuSans-67"
                 d="M 2906 1791  Q 2906 2416 2648 2759  Q 2391 3103 1925 3103  Q 1463 3103 1205 2759  Q 947 2416 947 1791  Q 947 1169 1205 825  Q 1463 481 1925 481  Q 2391 481 2648 825  Q 2906 1169 2906 1791  z M 3481 434  Q 3481 -459 3084 -895  Q 2688 -1331 1869 -1331  Q 1566 -1331 1297 -1286  Q 1028 -1241 775 -1147  L 775 -588  Q 1028 -725 1275 -790  Q 1522 -856 1778 -856  Q 2344 -856 2625 -561  Q 2906 -266 2906 331  L 2906 616  Q 2728 306 2450 153  Q 2172 0 1784 0  Q 1141 0 747 490  Q 353 981 353 1791  Q 353 2603 747 3093  Q 1141 3584 1784 3584  Q 2172 3584 2450 3431  Q 2728 3278 2906 2969  L 2906 3500  L 3481 3500  L 3481 434  z "
                 transform="scale(0.015625)" />
            </defs>
            <use
               xlink:href="#DejaVuSans-46"
               id="use82" />
            <use
               xlink:href="#DejaVuSans-72"
               x="50.269531"
               id="use83" />
            <use
               xlink:href="#DejaVuSans-61"
               x="91.382812"
               id="use84" />
            <use
               xlink:href="#DejaVuSans-63"
               x="152.662109"
               id="use85" />
            <use
               xlink:href="#DejaVuSans-74"
               x="207.642578"
               id="use86" />
            <use
               xlink:href="#DejaVuSans-69"
               x="246.851562"
               id="use87" />
            <use
               xlink:href="#DejaVuSans-6f"
               x="274.634766"
               id="use88" />
            <use
               xlink:href="#DejaVuSans-6e"
               x="335.816406"
               id="use89" />
            <use
               xlink:href="#DejaVuSans-20"
               x="399.195312"
               id="use90" />
            <use
               xlink:href="#DejaVuSans-6f"
               x="430.982422"
               id="use91" />
            <use
               xlink:href="#DejaVuSans-66"
               x="492.164062"
               id="use92" />
            <use
               xlink:href="#DejaVuSans-20"
               x="527.369141"
               id="use93" />
            <use
               xlink:href="#DejaVuSans-64"
               x="559.15625"
               id="use94" />
            <use
               xlink:href="#DejaVuSans-69"
               x="622.632812"
               id="use95" />
            <use
               xlink:href="#DejaVuSans-73"
               x="650.416016"
               id="use96" />
            <use
               xlink:href="#DejaVuSans-63"
               x="702.515625"
               id="use97" />
            <use
               xlink:href="#DejaVuSans-61"
               x="757.496094"
               id="use98" />
            <use
               xlink:href="#DejaVuSans-72"
               x="818.775391"
               id="use99" />
            <use
               xlink:href="#DejaVuSans-64"
               x="858.138672"
               id="use100" />
            <use
               xlink:href="#DejaVuSans-65"
               x="921.615234"
               id="use101" />
            <use
               xlink:href="#DejaVuSans-64"
               x="983.138672"
               id="use102" />
            <use
               xlink:href="#DejaVuSans-20"
               x="1046.615234"
               id="use103" />
            <use
               xlink:href="#DejaVuSans-65"
               x="1078.402344"
               id="use104" />
            <use
               xlink:href="#DejaVuSans-64"
               x="1139.925781"
               id="use105" />
            <use
               xlink:href="#DejaVuSans-67"
               x="1203.402344"
               id="use106" />
            <use
               xlink:href="#DejaVuSans-65"
               x="1266.878906"
               id="use107" />
            <use
               xlink:href="#DejaVuSans-73"
               x="1328.402344"
               id="use108" />
          </g>
        </g>
      </g>
      <g
         id="line2d_26">
        <path
           d="M 69.218182 51.733  L 73.070886 44.443636  L 76.92359 80.374558  L 80.776295 84.056604  L 84.628999 101.228301  L 88.481703 130.473933  L 92.334407 96.392438  L 96.187112 121.176784  L 100.039816 94.977679  L 103.89252 125.394533  L 107.745224 121.997058  L 111.597929 97.768703  L 115.450633 105.186263  L 119.303337 119.349471  L 123.156041 129.592843  L 127.008746 111.100412  L 130.86145 103.259193  L 134.714154 139.754651  L 138.566858 93.838065  L 142.419563 143.661095  L 146.272267 109.452386  L 150.124971 134.212062  L 153.977675 134.09834  L 157.83038 130.215833  L 161.683084 155.829862  L 165.535788 141.468296  L 169.388493 153.024937  L 173.241197 153.731845  L 177.093901 161.590483  L 180.946605 164.130066  L 184.79931 162.315263  L 188.652014 175.005901  L 192.504718 153.208027  L 196.357422 148.121476  L 200.210127 170.786745  L 204.062831 178.935245  L 207.915535 178.553757  L 211.768239 145.919649  L 215.620944 160.493372  L 219.473648 188.569653  L 223.326352 147.569953  L 227.179056 168.130113  L 231.031761 158.857769  L 234.884465 182.146422  L 238.737169 192.0938  L 242.589873 198.019578  L 246.442578 207.920527  L 250.295282 171.740568  L 254.147986 185.972897  L 258.00069 194.670717  L 261.853395 206.46807  L 265.706099 216.573611  L 269.558803 194.237979  L 273.411507 213.464844  L 277.264212 182.724187  L 281.116916 212.176218  L 284.96962 189.651732  L 288.822325 211.447439  L 292.675029 186.839588  L 296.527733 203.080165  L 300.380437 189.103957  L 304.233142 198.73323  L 308.085846 211.576818  L 311.93855 198.515539  L 315.791254 210.406834  L 319.643959 206.907957  L 323.496663 205.546498  L 327.349367 213.962983  L 331.202071 207.875529  L 335.054776 215.90618  L 338.90748 223.604021  L 342.760184 224.435433  L 346.612888 221.242666  L 350.465593 222.022914  L 354.318297 230.904839  L 358.171001 217.326799  L 362.023705 221.859608  L 365.87641 242.116364  L 369.729114 218.12915  L 373.581818 221.150373  "
           clip-path="url(#p1d99c7169b)"
           style="fill: none; stroke: #1f77b4; stroke-width: 1.5; stroke-linecap: square"
           id="path108" />
      </g>
      <g
         id="patch_3">
        <path
           d="M 54 252  L 54 34.56  "
           style="fill: none; stroke: #000000; stroke-width: 0.8; stroke-linejoin: miter; stroke-linecap: square"
           id="path109" />
      </g>
      <g
         id="patch_4">
        <path
           d="M 388.8 252  L 388.8 34.56  "
           style="fill: none; stroke: #000000; stroke-width: 0.8; stroke-linejoin: miter; stroke-linecap: square"
           id="path110" />
      </g>
      <g
         id="patch_5">
        <path
           d="M 54 252  L 388.8 252  "
           style="fill: none; stroke: #000000; stroke-width: 0.8; stroke-linejoin: miter; stroke-linecap: square"
           id="path111" />
      </g>
      <g
         id="patch_6">
        <path
           d="M 54 34.56  L 388.8 34.56  "
           style="fill: none; stroke: #000000; stroke-width: 0.8; stroke-linejoin: miter; stroke-linecap: square"
           id="path112" />
      </g>
      <g
         id="legend_1">
        <g
           id="patch_7">
          <path
             d="M 330.3 57.238125  L 381.8 57.238125  Q 383.8 57.238125 383.8 55.238125  L 383.8 41.56  Q 383.8 39.56 381.8 39.56  L 330.3 39.56  Q 328.3 39.56 328.3 41.56  L 328.3 55.238125  Q 328.3 57.238125 330.3 57.238125  z "
             style="fill: #ffffff; opacity: 0.8; stroke: #cccccc; stroke-linejoin: miter"
             id="path113" />
        </g>
        <g
           id="line2d_27">
          <path
             d="M 332.3 47.658437  L 342.3 47.658437  L 352.3 47.658437  "
             style="fill: none; stroke: #1f77b4; stroke-width: 1.5; stroke-linecap: square"
             id="path114" />
        </g>
        <g
           id="text_20">
          <!-- $LHS$ -->
          <g
             transform="translate(360.3 51.158437)scale(0.1 -0.1)"
             id="g116">
            <defs
               id="defs114">
              <path
                 id="DejaVuSans-Oblique-4c"
                 d="M 1075 4666  L 1709 4666  L 909 525  L 3181 525  L 3078 0  L 172 0  L 1075 4666  z "
                 transform="scale(0.015625)" />
              <path
                 id="DejaVuSans-Oblique-48"
                 d="M 1081 4666  L 1716 4666  L 1344 2753  L 3634 2753  L 4006 4666  L 4641 4666  L 3731 0  L 3097 0  L 3531 2222  L 1241 2222  L 806 0  L 172 0  L 1081 4666  z "
                 transform="scale(0.015625)" />
              <path
                 id="DejaVuSans-Oblique-53"
                 d="M 3859 4513  L 3738 3897  Q 3422 4066 3111 4152  Q 2800 4238 2509 4238  Q 1944 4238 1609 3991  Q 1275 3744 1275 3334  Q 1275 3109 1398 2989  Q 1522 2869 2034 2731  L 2413 2638  Q 3053 2472 3303 2217  Q 3553 1963 3553 1503  Q 3553 797 2998 353  Q 2444 -91 1538 -91  Q 1166 -91 791 -17  Q 416 56 38 206  L 166 856  Q 513 641 861 531  Q 1209 422 1556 422  Q 2147 422 2503 684  Q 2859 947 2859 1369  Q 2859 1650 2717 1795  Q 2575 1941 2106 2059  L 1728 2156  Q 1081 2325 845 2545  Q 609 2766 609 3163  Q 609 3859 1145 4304  Q 1681 4750 2541 4750  Q 2875 4750 3203 4690  Q 3531 4631 3859 4513  z "
                 transform="scale(0.015625)" />
            </defs>
            <use
               xlink:href="#DejaVuSans-Oblique-4c"
               transform="translate(0 0.78125)"
               id="use114" />
            <use
               xlink:href="#DejaVuSans-Oblique-48"
               transform="translate(55.712891 0.78125)"
               id="use115" />
            <use
               xlink:href="#DejaVuSans-Oblique-53"
               transform="translate(130.908203 0.78125)"
               id="use116" />
          </g>
        </g>
      </g>
    </g>
  </g>
  <defs
     id="defs116">
    <clipPath
       id="p1d99c7169b">
      <rect
         x="54"
         y="34.56"
         width="334.8"
         height="217.44"
         id="rect116" />
    </clipPath>
  </defs>
</svg>
