<?xml version="1.0" encoding="utf-8" standalone="no"?>
<!DOCTYPE svg PUBLIC "-//W3C//DTD SVG 1.1//EN"
  "http://www.w3.org/Graphics/SVG/1.1/DTD/svg11.dtd">
<svg xmlns:xlink="http://www.w3.org/1999/xlink" width="432pt" height="288pt" viewBox="0 0 432 288" xmlns="http://www.w3.org/2000/svg" version="1.1">
 <metadata>
  <rdf:RDF xmlns:dc="http://purl.org/dc/elements/1.1/" xmlns:cc="http://creativecommons.org/ns#" xmlns:rdf="http://www.w3.org/1999/02/22-rdf-syntax-ns#">
   <cc:Work>
    <dc:type rdf:resource="http://purl.org/dc/dcmitype/StillImage"/>
    <dc:date>2024-06-29T15:47:56.783425</dc:date>
    <dc:format>image/svg+xml</dc:format>
    <dc:creator>
     <cc:Agent>
      <dc:title>Matplotlib v3.5.2, https://matplotlib.org/</dc:title>
     </cc:Agent>
    </dc:creator>
   </cc:Work>
  </rdf:RDF>
 </metadata>
 <defs>
  <style type="text/css">*{stroke-linejoin: round; stroke-linecap: butt}</style>
 </defs>
 <g id="figure_1">
  <g id="patch_1">
   <path d="M 0 288 
L 432 288 
L 432 0 
L 0 0 
L 0 288 
z
" style="fill: none"/>
  </g>
  <g id="axes_1">
   <g id="patch_2">
    <path d="M 54 252 
L 388.8 252 
L 388.8 34.56 
L 54 34.56 
z
" style="fill: #ffffff"/>
   </g>
   <g id="PolyCollection_1">
    <path d="M 478.08 233.88 
L 478.08 233.88 
L 469.5984 233.88 
L 461.1168 233.88 
L 452.6352 233.88 
L 444.1536 233.88 
L 435.672 233.88 
L 427.1904 233.88 
L 418.7088 233.88 
L 410.2272 233.88 
L 401.7456 233.88 
L 393.264 233.88 
L 384.7824 233.88 
L 376.3008 233.88 
L 367.8192 233.88 
L 359.3376 233.88 
L 350.856 233.88 
L 342.3744 233.88 
L 333.8928 233.88 
L 325.4112 233.88 
L 316.9296 233.88 
L 308.448 233.88 
L 299.9664 233.88 
L 291.4848 233.88 
L 283.0032 233.88 
L 274.5216 233.88 
L 266.04 233.88 
L 257.5584 233.88 
L 249.0768 233.88 
L 240.5952 233.88 
L 232.1136 233.88 
L 223.632 233.88 
L 215.1504 205.835267 
L 206.6688 221.90152 
L 198.1872 221.90152 
L 189.7056 233.88 
L 181.224 191.350902 
L 172.7424 164.35972 
L 164.2608 151.497756 
L 155.7792 151.497756 
L 147.2976 103.177756 
L 138.816 60.875267 
L 130.3344 56.507789 
L 121.8528 52.68 
L 113.3712 52.68 
L 104.8896 52.68 
L 96.408 52.68 
L 87.9264 52.68 
L 79.4448 52.68 
L 70.9632 52.68 
L 62.4816 52.68 
L 62.4816 52.68 
L 62.4816 52.68 
L 70.9632 52.68 
L 79.4448 52.68 
L 87.9264 52.68 
L 96.408 52.68 
L 104.8896 52.68 
L 113.3712 52.68 
L 121.8528 52.68 
L 130.3344 73.012211 
L 138.816 80.724733 
L 147.2976 135.062244 
L 155.7792 183.382244 
L 164.2608 183.382244 
L 172.7424 194.68028 
L 181.224 216.009098 
L 189.7056 233.88 
L 198.1872 233.77848 
L 206.6688 233.77848 
L 215.1504 225.684733 
L 223.632 233.88 
L 232.1136 233.88 
L 240.5952 233.88 
L 249.0768 233.88 
L 257.5584 233.88 
L 266.04 233.88 
L 274.5216 233.88 
L 283.0032 233.88 
L 291.4848 233.88 
L 299.9664 233.88 
L 308.448 233.88 
L 316.9296 233.88 
L 325.4112 233.88 
L 333.8928 233.88 
L 342.3744 233.88 
L 350.856 233.88 
L 359.3376 233.88 
L 367.8192 233.88 
L 376.3008 233.88 
L 384.7824 233.88 
L 393.264 233.88 
L 401.7456 233.88 
L 410.2272 233.88 
L 418.7088 233.88 
L 427.1904 233.88 
L 435.672 233.88 
L 444.1536 233.88 
L 452.6352 233.88 
L 461.1168 233.88 
L 469.5984 233.88 
L 478.08 233.88 
z
" clip-path="url(#pd4fe96201f)" style="fill: #1f77b4; fill-opacity: 0.3"/>
   </g>
   <g id="PolyCollection_2">
    <path d="M 478.08 233.88 
L 478.08 233.88 
L 469.5984 233.88 
L 461.1168 233.88 
L 452.6352 233.88 
L 444.1536 233.88 
L 435.672 233.88 
L 427.1904 233.88 
L 418.7088 233.88 
L 410.2272 233.88 
L 401.7456 233.88 
L 393.264 221.90152 
L 384.7824 233.88 
L 376.3008 233.88 
L 367.8192 233.88 
L 359.3376 233.88 
L 350.856 233.88 
L 342.3744 233.88 
L 333.8928 233.88 
L 325.4112 233.88 
L 316.9296 233.88 
L 308.448 233.88 
L 299.9664 221.90152 
L 291.4848 233.88 
L 283.0032 213.547789 
L 274.5216 213.547789 
L 266.04 221.90152 
L 257.5584 177.607695 
L 249.0768 164.35972 
L 240.5952 138.966471 
L 232.1136 80.967695 
L 223.632 80.967695 
L 215.1504 70.550902 
L 206.6688 56.507789 
L 198.1872 52.68 
L 189.7056 52.68 
L 181.224 52.68 
L 172.7424 52.68 
L 164.2608 52.68 
L 155.7792 52.68 
L 147.2976 52.68 
L 138.816 52.68 
L 130.3344 52.68 
L 121.8528 52.68 
L 113.3712 52.68 
L 104.8896 52.68 
L 96.408 52.68 
L 87.9264 52.68 
L 79.4448 52.68 
L 70.9632 52.68 
L 62.4816 52.68 
L 62.4816 52.68 
L 62.4816 52.68 
L 70.9632 52.68 
L 79.4448 52.68 
L 87.9264 52.68 
L 96.408 52.68 
L 104.8896 52.68 
L 113.3712 52.68 
L 121.8528 52.68 
L 130.3344 52.68 
L 138.816 52.68 
L 147.2976 52.68 
L 155.7792 52.68 
L 164.2608 52.68 
L 172.7424 52.68 
L 181.224 52.68 
L 189.7056 52.68 
L 198.1872 52.68 
L 206.6688 73.012211 
L 215.1504 95.209098 
L 223.632 108.952305 
L 232.1136 108.952305 
L 240.5952 171.753529 
L 249.0768 194.68028 
L 257.5584 205.592305 
L 266.04 233.77848 
L 274.5216 230.052211 
L 283.0032 230.052211 
L 291.4848 233.88 
L 299.9664 233.77848 
L 308.448 233.88 
L 316.9296 233.88 
L 325.4112 233.88 
L 333.8928 233.88 
L 342.3744 233.88 
L 350.856 233.88 
L 359.3376 233.88 
L 367.8192 233.88 
L 376.3008 233.88 
L 384.7824 233.88 
L 393.264 233.77848 
L 401.7456 233.88 
L 410.2272 233.88 
L 418.7088 233.88 
L 427.1904 233.88 
L 435.672 233.88 
L 444.1536 233.88 
L 452.6352 233.88 
L 461.1168 233.88 
L 469.5984 233.88 
L 478.08 233.88 
z
" clip-path="url(#pd4fe96201f)" style="fill: #ff7f0e; fill-opacity: 0.3"/>
   </g>
   <g id="matplotlib.axis_1">
    <g id="xtick_1">
     <g id="line2d_1">
      <defs>
       <path id="mb02c82baf6" d="M 0 0 
L 0 3.5 
" style="stroke: #000000; stroke-width: 0.8"/>
      </defs>
      <g>
       <use xlink:href="#mb02c82baf6" x="143.28" y="252" style="stroke: #000000; stroke-width: 0.8"/>
      </g>
     </g>
     <g id="text_1">
      <!-- $\frac{1}{\sqrt{n}}$ -->
      <g transform="translate(137.33 268.5)scale(0.1 -0.1)">
       <defs>
        <path id="DejaVuSans-31" d="M 794 531 
L 1825 531 
L 1825 4091 
L 703 3866 
L 703 4441 
L 1819 4666 
L 2450 4666 
L 2450 531 
L 3481 531 
L 3481 0 
L 794 0 
L 794 531 
z
" transform="scale(0.015625)"/>
        <path id="DejaVuSans-221a" d="M 3488 5191 
L 4078 5191 
L 4078 4891 
L 3719 4891 
L 1863 -128 
L 1656 -128 
L 659 2631 
L 269 2491 
L 191 2741 
L 1075 3047 
L 1875 831 
L 3488 5191 
z
" transform="scale(0.015625)"/>
        <path id="DejaVuSans-Oblique-6e" d="M 3566 2113 
L 3156 0 
L 2578 0 
L 2988 2091 
Q 3016 2238 3031 2350 
Q 3047 2463 3047 2528 
Q 3047 2791 2881 2937 
Q 2716 3084 2419 3084 
Q 1956 3084 1622 2776 
Q 1288 2469 1184 1941 
L 800 0 
L 225 0 
L 903 3500 
L 1478 3500 
L 1363 2950 
Q 1603 3253 1940 3418 
Q 2278 3584 2650 3584 
Q 3113 3584 3367 3334 
Q 3622 3084 3622 2631 
Q 3622 2519 3608 2391 
Q 3594 2263 3566 2113 
z
" transform="scale(0.015625)"/>
       </defs>
       <use xlink:href="#DejaVuSans-31" transform="translate(31 43.965625)scale(0.7)"/>
       <use xlink:href="#DejaVuSans-221a" transform="translate(0 -48.260937)scale(0.7)"/>
       <use xlink:href="#DejaVuSans-Oblique-6e" transform="translate(53.354492 -47.859375)scale(0.7)"/>
       <path d="M 0 18.965625 
L 0 25.215625 
L 106.469727 25.215625 
L 106.469727 18.965625 
L 0 18.965625 
z
"/>
       <path d="M 44.604492 3.965625 
L 44.604492 8.340625 
L 106.469727 8.340625 
L 106.469727 3.965625 
L 44.604492 3.965625 
z
"/>
      </g>
     </g>
    </g>
    <g id="xtick_2">
     <g id="line2d_2">
      <g>
       <use xlink:href="#mb02c82baf6" x="165.6" y="252" style="stroke: #000000; stroke-width: 0.8"/>
      </g>
     </g>
     <g id="text_2">
      <!-- $\frac{1}{n^{3/5}}$ -->
      <g transform="translate(158.55 268.5)scale(0.1 -0.1)">
       <defs>
        <path id="DejaVuSans-33" d="M 2597 2516 
Q 3050 2419 3304 2112 
Q 3559 1806 3559 1356 
Q 3559 666 3084 287 
Q 2609 -91 1734 -91 
Q 1441 -91 1130 -33 
Q 819 25 488 141 
L 488 750 
Q 750 597 1062 519 
Q 1375 441 1716 441 
Q 2309 441 2620 675 
Q 2931 909 2931 1356 
Q 2931 1769 2642 2001 
Q 2353 2234 1838 2234 
L 1294 2234 
L 1294 2753 
L 1863 2753 
Q 2328 2753 2575 2939 
Q 2822 3125 2822 3475 
Q 2822 3834 2567 4026 
Q 2313 4219 1838 4219 
Q 1578 4219 1281 4162 
Q 984 4106 628 3988 
L 628 4550 
Q 988 4650 1302 4700 
Q 1616 4750 1894 4750 
Q 2613 4750 3031 4423 
Q 3450 4097 3450 3541 
Q 3450 3153 3228 2886 
Q 3006 2619 2597 2516 
z
" transform="scale(0.015625)"/>
        <path id="DejaVuSans-2f" d="M 1625 4666 
L 2156 4666 
L 531 -594 
L 0 -594 
L 1625 4666 
z
" transform="scale(0.015625)"/>
        <path id="DejaVuSans-35" d="M 691 4666 
L 3169 4666 
L 3169 4134 
L 1269 4134 
L 1269 2991 
Q 1406 3038 1543 3061 
Q 1681 3084 1819 3084 
Q 2600 3084 3056 2656 
Q 3513 2228 3513 1497 
Q 3513 744 3044 326 
Q 2575 -91 1722 -91 
Q 1428 -91 1123 -41 
Q 819 9 494 109 
L 494 744 
Q 775 591 1075 516 
Q 1375 441 1709 441 
Q 2250 441 2565 725 
Q 2881 1009 2881 1497 
Q 2881 1984 2565 2268 
Q 2250 2553 1709 2553 
Q 1456 2553 1204 2497 
Q 953 2441 691 2322 
L 691 4666 
z
" transform="scale(0.015625)"/>
       </defs>
       <use xlink:href="#DejaVuSans-31" transform="translate(42 43.965625)scale(0.7)"/>
       <use xlink:href="#DejaVuSans-Oblique-6e" transform="translate(0 -50.448437)scale(0.7)"/>
       <use xlink:href="#DejaVuSans-33" transform="translate(47.620161 -23.651562)scale(0.49)"/>
       <use xlink:href="#DejaVuSans-2f" transform="translate(78.795454 -23.651562)scale(0.49)"/>
       <use xlink:href="#DejaVuSans-35" transform="translate(95.304243 -23.651562)scale(0.49)"/>
       <path d="M 0 18.965625 
L 0 25.215625 
L 128.393599 25.215625 
L 128.393599 18.965625 
L 0 18.965625 
z
"/>
      </g>
     </g>
    </g>
    <g id="xtick_3">
     <g id="line2d_3">
      <g>
       <use xlink:href="#mb02c82baf6" x="254.88" y="252" style="stroke: #000000; stroke-width: 0.8"/>
      </g>
     </g>
     <g id="text_3">
      <!-- $\frac{1}{n}$ -->
      <g transform="translate(251.98 268.5)scale(0.1 -0.1)">
       <use xlink:href="#DejaVuSans-31" transform="translate(0 43.965625)scale(0.7)"/>
       <use xlink:href="#DejaVuSans-Oblique-6e" transform="translate(0 -26.484375)scale(0.7)"/>
       <path d="M 0 18.965625 
L 0 25.215625 
L 44.536133 25.215625 
L 44.536133 18.965625 
L 0 18.965625 
z
"/>
      </g>
     </g>
    </g>
    <g id="xtick_4">
     <g id="line2d_4">
      <g>
       <use xlink:href="#mb02c82baf6" x="366.48" y="252" style="stroke: #000000; stroke-width: 0.8"/>
      </g>
     </g>
     <g id="text_4">
      <!-- $\frac{1}{n^{1.5}}$ -->
      <g transform="translate(359.48 268.5)scale(0.1 -0.1)">
       <defs>
        <path id="DejaVuSans-2e" d="M 684 794 
L 1344 794 
L 1344 0 
L 684 0 
L 684 794 
z
" transform="scale(0.015625)"/>
       </defs>
       <use xlink:href="#DejaVuSans-31" transform="translate(41 43.965625)scale(0.7)"/>
       <use xlink:href="#DejaVuSans-Oblique-6e" transform="translate(0 -49.805312)scale(0.7)"/>
       <use xlink:href="#DejaVuSans-31" transform="translate(47.620161 -23.008437)scale(0.49)"/>
       <use xlink:href="#DejaVuSans-2e" transform="translate(78.795454 -23.008437)scale(0.49)"/>
       <use xlink:href="#DejaVuSans-35" transform="translate(94.371138 -23.008437)scale(0.49)"/>
       <path d="M 0 18.965625 
L 0 25.215625 
L 127.460493 25.215625 
L 127.460493 18.965625 
L 0 18.965625 
z
"/>
      </g>
     </g>
    </g>
   </g>
   <g id="matplotlib.axis_2">
    <g id="ytick_1">
     <g id="line2d_5">
      <path d="M 54 233.88 
L 388.8 233.88 
" clip-path="url(#pd4fe96201f)" style="fill: none; stroke: #b0b0b0; stroke-opacity: 0.5; stroke-width: 0.8; stroke-linecap: square"/>
     </g>
     <g id="line2d_6">
      <defs>
       <path id="ma475e35cdc" d="M 0 0 
L -3.5 0 
" style="stroke: #000000; stroke-width: 0.8"/>
      </defs>
      <g>
       <use xlink:href="#ma475e35cdc" x="54" y="233.88" style="stroke: #000000; stroke-width: 0.8"/>
      </g>
     </g>
     <g id="text_5">
      <!-- 0.0 -->
      <g transform="translate(31.096875 237.679219)scale(0.1 -0.1)">
       <defs>
        <path id="DejaVuSans-30" d="M 2034 4250 
Q 1547 4250 1301 3770 
Q 1056 3291 1056 2328 
Q 1056 1369 1301 889 
Q 1547 409 2034 409 
Q 2525 409 2770 889 
Q 3016 1369 3016 2328 
Q 3016 3291 2770 3770 
Q 2525 4250 2034 4250 
z
M 2034 4750 
Q 2819 4750 3233 4129 
Q 3647 3509 3647 2328 
Q 3647 1150 3233 529 
Q 2819 -91 2034 -91 
Q 1250 -91 836 529 
Q 422 1150 422 2328 
Q 422 3509 836 4129 
Q 1250 4750 2034 4750 
z
" transform="scale(0.015625)"/>
       </defs>
       <use xlink:href="#DejaVuSans-30"/>
       <use xlink:href="#DejaVuSans-2e" x="63.623047"/>
       <use xlink:href="#DejaVuSans-30" x="95.410156"/>
      </g>
     </g>
    </g>
    <g id="ytick_2">
     <g id="line2d_7">
      <path d="M 54 197.64 
L 388.8 197.64 
" clip-path="url(#pd4fe96201f)" style="fill: none; stroke: #b0b0b0; stroke-opacity: 0.5; stroke-width: 0.8; stroke-linecap: square"/>
     </g>
     <g id="line2d_8">
      <g>
       <use xlink:href="#ma475e35cdc" x="54" y="197.64" style="stroke: #000000; stroke-width: 0.8"/>
      </g>
     </g>
     <g id="text_6">
      <!-- 0.2 -->
      <g transform="translate(31.096875 201.439219)scale(0.1 -0.1)">
       <defs>
        <path id="DejaVuSans-32" d="M 1228 531 
L 3431 531 
L 3431 0 
L 469 0 
L 469 531 
Q 828 903 1448 1529 
Q 2069 2156 2228 2338 
Q 2531 2678 2651 2914 
Q 2772 3150 2772 3378 
Q 2772 3750 2511 3984 
Q 2250 4219 1831 4219 
Q 1534 4219 1204 4116 
Q 875 4013 500 3803 
L 500 4441 
Q 881 4594 1212 4672 
Q 1544 4750 1819 4750 
Q 2544 4750 2975 4387 
Q 3406 4025 3406 3419 
Q 3406 3131 3298 2873 
Q 3191 2616 2906 2266 
Q 2828 2175 2409 1742 
Q 1991 1309 1228 531 
z
" transform="scale(0.015625)"/>
       </defs>
       <use xlink:href="#DejaVuSans-30"/>
       <use xlink:href="#DejaVuSans-2e" x="63.623047"/>
       <use xlink:href="#DejaVuSans-32" x="95.410156"/>
      </g>
     </g>
    </g>
    <g id="ytick_3">
     <g id="line2d_9">
      <path d="M 54 161.4 
L 388.8 161.4 
" clip-path="url(#pd4fe96201f)" style="fill: none; stroke: #b0b0b0; stroke-opacity: 0.5; stroke-width: 0.8; stroke-linecap: square"/>
     </g>
     <g id="line2d_10">
      <g>
       <use xlink:href="#ma475e35cdc" x="54" y="161.4" style="stroke: #000000; stroke-width: 0.8"/>
      </g>
     </g>
     <g id="text_7">
      <!-- 0.4 -->
      <g transform="translate(31.096875 165.199219)scale(0.1 -0.1)">
       <defs>
        <path id="DejaVuSans-34" d="M 2419 4116 
L 825 1625 
L 2419 1625 
L 2419 4116 
z
M 2253 4666 
L 3047 4666 
L 3047 1625 
L 3713 1625 
L 3713 1100 
L 3047 1100 
L 3047 0 
L 2419 0 
L 2419 1100 
L 313 1100 
L 313 1709 
L 2253 4666 
z
" transform="scale(0.015625)"/>
       </defs>
       <use xlink:href="#DejaVuSans-30"/>
       <use xlink:href="#DejaVuSans-2e" x="63.623047"/>
       <use xlink:href="#DejaVuSans-34" x="95.410156"/>
      </g>
     </g>
    </g>
    <g id="ytick_4">
     <g id="line2d_11">
      <path d="M 54 125.16 
L 388.8 125.16 
" clip-path="url(#pd4fe96201f)" style="fill: none; stroke: #b0b0b0; stroke-opacity: 0.5; stroke-width: 0.8; stroke-linecap: square"/>
     </g>
     <g id="line2d_12">
      <g>
       <use xlink:href="#ma475e35cdc" x="54" y="125.16" style="stroke: #000000; stroke-width: 0.8"/>
      </g>
     </g>
     <g id="text_8">
      <!-- 0.6 -->
      <g transform="translate(31.096875 128.959219)scale(0.1 -0.1)">
       <defs>
        <path id="DejaVuSans-36" d="M 2113 2584 
Q 1688 2584 1439 2293 
Q 1191 2003 1191 1497 
Q 1191 994 1439 701 
Q 1688 409 2113 409 
Q 2538 409 2786 701 
Q 3034 994 3034 1497 
Q 3034 2003 2786 2293 
Q 2538 2584 2113 2584 
z
M 3366 4563 
L 3366 3988 
Q 3128 4100 2886 4159 
Q 2644 4219 2406 4219 
Q 1781 4219 1451 3797 
Q 1122 3375 1075 2522 
Q 1259 2794 1537 2939 
Q 1816 3084 2150 3084 
Q 2853 3084 3261 2657 
Q 3669 2231 3669 1497 
Q 3669 778 3244 343 
Q 2819 -91 2113 -91 
Q 1303 -91 875 529 
Q 447 1150 447 2328 
Q 447 3434 972 4092 
Q 1497 4750 2381 4750 
Q 2619 4750 2861 4703 
Q 3103 4656 3366 4563 
z
" transform="scale(0.015625)"/>
       </defs>
       <use xlink:href="#DejaVuSans-30"/>
       <use xlink:href="#DejaVuSans-2e" x="63.623047"/>
       <use xlink:href="#DejaVuSans-36" x="95.410156"/>
      </g>
     </g>
    </g>
    <g id="ytick_5">
     <g id="line2d_13">
      <path d="M 54 88.92 
L 388.8 88.92 
" clip-path="url(#pd4fe96201f)" style="fill: none; stroke: #b0b0b0; stroke-opacity: 0.5; stroke-width: 0.8; stroke-linecap: square"/>
     </g>
     <g id="line2d_14">
      <g>
       <use xlink:href="#ma475e35cdc" x="54" y="88.92" style="stroke: #000000; stroke-width: 0.8"/>
      </g>
     </g>
     <g id="text_9">
      <!-- 0.8 -->
      <g transform="translate(31.096875 92.719219)scale(0.1 -0.1)">
       <defs>
        <path id="DejaVuSans-38" d="M 2034 2216 
Q 1584 2216 1326 1975 
Q 1069 1734 1069 1313 
Q 1069 891 1326 650 
Q 1584 409 2034 409 
Q 2484 409 2743 651 
Q 3003 894 3003 1313 
Q 3003 1734 2745 1975 
Q 2488 2216 2034 2216 
z
M 1403 2484 
Q 997 2584 770 2862 
Q 544 3141 544 3541 
Q 544 4100 942 4425 
Q 1341 4750 2034 4750 
Q 2731 4750 3128 4425 
Q 3525 4100 3525 3541 
Q 3525 3141 3298 2862 
Q 3072 2584 2669 2484 
Q 3125 2378 3379 2068 
Q 3634 1759 3634 1313 
Q 3634 634 3220 271 
Q 2806 -91 2034 -91 
Q 1263 -91 848 271 
Q 434 634 434 1313 
Q 434 1759 690 2068 
Q 947 2378 1403 2484 
z
M 1172 3481 
Q 1172 3119 1398 2916 
Q 1625 2713 2034 2713 
Q 2441 2713 2670 2916 
Q 2900 3119 2900 3481 
Q 2900 3844 2670 4047 
Q 2441 4250 2034 4250 
Q 1625 4250 1398 4047 
Q 1172 3844 1172 3481 
z
" transform="scale(0.015625)"/>
       </defs>
       <use xlink:href="#DejaVuSans-30"/>
       <use xlink:href="#DejaVuSans-2e" x="63.623047"/>
       <use xlink:href="#DejaVuSans-38" x="95.410156"/>
      </g>
     </g>
    </g>
    <g id="ytick_6">
     <g id="line2d_15">
      <path d="M 54 52.68 
L 388.8 52.68 
" clip-path="url(#pd4fe96201f)" style="fill: none; stroke: #b0b0b0; stroke-opacity: 0.5; stroke-width: 0.8; stroke-linecap: square"/>
     </g>
     <g id="line2d_16">
      <g>
       <use xlink:href="#ma475e35cdc" x="54" y="52.68" style="stroke: #000000; stroke-width: 0.8"/>
      </g>
     </g>
     <g id="text_10">
      <!-- 1.0 -->
      <g transform="translate(31.096875 56.479219)scale(0.1 -0.1)">
       <use xlink:href="#DejaVuSans-31"/>
       <use xlink:href="#DejaVuSans-2e" x="63.623047"/>
       <use xlink:href="#DejaVuSans-30" x="95.410156"/>
      </g>
     </g>
    </g>
   </g>
   <g id="line2d_17">
    <path d="M 433 233.88 
L 427.1904 233.88 
L 418.7088 233.88 
L 410.2272 233.88 
L 401.7456 233.88 
L 393.264 233.88 
L 384.7824 233.88 
L 376.3008 233.88 
L 367.8192 233.88 
L 359.3376 233.88 
L 350.856 233.88 
L 342.3744 233.88 
L 333.8928 233.88 
L 325.4112 233.88 
L 316.9296 233.88 
L 308.448 233.88 
L 299.9664 233.88 
L 291.4848 233.88 
L 283.0032 233.88 
L 274.5216 233.88 
L 266.04 233.88 
L 257.5584 233.88 
L 249.0768 233.88 
L 240.5952 233.88 
L 232.1136 233.88 
L 223.632 233.88 
L 215.1504 215.76 
L 206.6688 227.84 
L 198.1872 227.84 
L 189.7056 233.88 
L 181.224 203.68 
L 172.7424 179.52 
L 164.2608 167.44 
L 155.7792 167.44 
L 147.2976 119.12 
L 138.816 70.8 
L 130.3344 64.76 
L 121.8528 52.68 
L 113.3712 52.68 
L 104.8896 52.68 
L 96.408 52.68 
L 87.9264 52.68 
L 79.4448 52.68 
L 70.9632 52.68 
L 62.4816 52.68 
" clip-path="url(#pd4fe96201f)" style="fill: none; stroke: #1f77b4; stroke-width: 1.5; stroke-linecap: square"/>
   </g>
   <g id="line2d_18">
    <path d="M 433 233.88 
L 427.1904 233.88 
L 418.7088 233.88 
L 410.2272 233.88 
L 401.7456 233.88 
L 393.264 227.84 
L 384.7824 233.88 
L 376.3008 233.88 
L 367.8192 233.88 
L 359.3376 233.88 
L 350.856 233.88 
L 342.3744 233.88 
L 333.8928 233.88 
L 325.4112 233.88 
L 316.9296 233.88 
L 308.448 233.88 
L 299.9664 227.84 
L 291.4848 233.88 
L 283.0032 221.8 
L 274.5216 221.8 
L 266.04 227.84 
L 257.5584 191.6 
L 249.0768 179.52 
L 240.5952 155.36 
L 232.1136 94.96 
L 223.632 94.96 
L 215.1504 82.88 
L 206.6688 64.76 
L 198.1872 52.68 
L 189.7056 52.68 
L 181.224 52.68 
L 172.7424 52.68 
L 164.2608 52.68 
L 155.7792 52.68 
L 147.2976 52.68 
L 138.816 52.68 
L 130.3344 52.68 
L 121.8528 52.68 
L 113.3712 52.68 
L 104.8896 52.68 
L 96.408 52.68 
L 87.9264 52.68 
L 79.4448 52.68 
L 70.9632 52.68 
L 62.4816 52.68 
" clip-path="url(#pd4fe96201f)" style="fill: none; stroke: #ff7f0e; stroke-width: 1.5; stroke-linecap: square"/>
   </g>
   <g id="LineCollection_1">
    <path d="M 165.6 233.88 
L 165.6 52.68 
" clip-path="url(#pd4fe96201f)" style="fill: none; stroke-dasharray: 1.5,2.475; stroke-dashoffset: 0; stroke: #000000; stroke-opacity: 0.5; stroke-width: 1.5"/>
    <path d="M 254.88 233.88 
L 254.88 52.68 
" clip-path="url(#pd4fe96201f)" style="fill: none; stroke-dasharray: 1.5,2.475; stroke-dashoffset: 0; stroke: #000000; stroke-opacity: 0.5; stroke-width: 1.5"/>
   </g>
   <g id="patch_3">
    <path d="M 54 252 
L 54 34.56 
" style="fill: none; stroke: #000000; stroke-width: 0.8; stroke-linejoin: miter; stroke-linecap: square"/>
   </g>
   <g id="patch_4">
    <path d="M 388.8 252 
L 388.8 34.56 
" style="fill: none; stroke: #000000; stroke-width: 0.8; stroke-linejoin: miter; stroke-linecap: square"/>
   </g>
   <g id="patch_5">
    <path d="M 54 252 
L 388.8 252 
" style="fill: none; stroke: #000000; stroke-width: 0.8; stroke-linejoin: miter; stroke-linecap: square"/>
   </g>
   <g id="patch_6">
    <path d="M 54 34.56 
L 388.8 34.56 
" style="fill: none; stroke: #000000; stroke-width: 0.8; stroke-linejoin: miter; stroke-linecap: square"/>
   </g>
   <g id="text_11">
    <!-- Probability of a (broken) cycle in $\Gamma(n,p)$ as a function of $p(n)$ -->
    <g transform="translate(38.04 28.56)scale(0.12 -0.12)">
     <defs>
      <path id="DejaVuSerif-50" d="M 1581 2375 
L 2406 2375 
Q 2872 2375 3115 2626 
Q 3359 2878 3359 3353 
Q 3359 3831 3115 4081 
Q 2872 4331 2406 4331 
L 1581 4331 
L 1581 2375 
z
M 353 0 
L 353 331 
L 947 331 
L 947 4331 
L 353 4331 
L 353 4666 
L 2559 4666 
Q 3259 4666 3668 4311 
Q 4078 3956 4078 3353 
Q 4078 2753 3668 2397 
Q 3259 2041 2559 2041 
L 1581 2041 
L 1581 331 
L 2303 331 
L 2303 0 
L 353 0 
z
" transform="scale(0.015625)"/>
      <path id="DejaVuSerif-72" d="M 3059 3328 
L 3059 2497 
L 2728 2497 
Q 2713 2744 2591 2866 
Q 2469 2988 2234 2988 
Q 1809 2988 1582 2694 
Q 1356 2400 1356 1850 
L 1356 331 
L 2022 331 
L 2022 0 
L 263 0 
L 263 331 
L 781 331 
L 781 2994 
L 231 2994 
L 231 3322 
L 1356 3322 
L 1356 2731 
Q 1525 3078 1790 3245 
Q 2056 3413 2438 3413 
Q 2578 3413 2733 3391 
Q 2888 3369 3059 3328 
z
" transform="scale(0.015625)"/>
      <path id="DejaVuSerif-6f" d="M 1925 219 
Q 2388 219 2623 584 
Q 2859 950 2859 1663 
Q 2859 2375 2623 2739 
Q 2388 3103 1925 3103 
Q 1463 3103 1227 2739 
Q 991 2375 991 1663 
Q 991 950 1228 584 
Q 1466 219 1925 219 
z
M 1925 -91 
Q 1200 -91 759 389 
Q 319 869 319 1663 
Q 319 2456 758 2934 
Q 1197 3413 1925 3413 
Q 2653 3413 3092 2934 
Q 3531 2456 3531 1663 
Q 3531 869 3092 389 
Q 2653 -91 1925 -91 
z
" transform="scale(0.015625)"/>
      <path id="DejaVuSerif-62" d="M 738 331 
L 738 4531 
L 184 4531 
L 184 4863 
L 1313 4863 
L 1313 2803 
Q 1481 3116 1742 3264 
Q 2003 3413 2388 3413 
Q 3000 3413 3387 2928 
Q 3775 2444 3775 1663 
Q 3775 881 3387 395 
Q 3000 -91 2388 -91 
Q 2003 -91 1742 57 
Q 1481 206 1313 519 
L 1313 0 
L 184 0 
L 184 331 
L 738 331 
z
M 1313 1497 
Q 1313 897 1542 583 
Q 1772 269 2209 269 
Q 2650 269 2876 622 
Q 3103 975 3103 1663 
Q 3103 2353 2876 2703 
Q 2650 3053 2209 3053 
Q 1772 3053 1542 2737 
Q 1313 2422 1313 1825 
L 1313 1497 
z
" transform="scale(0.015625)"/>
      <path id="DejaVuSerif-61" d="M 2547 1044 
L 2547 1747 
L 1806 1747 
Q 1378 1747 1168 1562 
Q 959 1378 959 997 
Q 959 650 1171 447 
Q 1384 244 1747 244 
Q 2106 244 2326 466 
Q 2547 688 2547 1044 
z
M 3122 2075 
L 3122 331 
L 3634 331 
L 3634 0 
L 2547 0 
L 2547 359 
Q 2356 128 2106 18 
Q 1856 -91 1522 -91 
Q 969 -91 644 203 
Q 319 497 319 997 
Q 319 1513 691 1797 
Q 1063 2081 1741 2081 
L 2547 2081 
L 2547 2309 
Q 2547 2688 2317 2895 
Q 2088 3103 1672 3103 
Q 1328 3103 1125 2947 
Q 922 2791 872 2484 
L 575 2484 
L 575 3156 
Q 875 3284 1158 3348 
Q 1441 3413 1709 3413 
Q 2400 3413 2761 3070 
Q 3122 2728 3122 2075 
z
" transform="scale(0.015625)"/>
      <path id="DejaVuSerif-69" d="M 622 4353 
Q 622 4497 726 4603 
Q 831 4709 978 4709 
Q 1122 4709 1226 4603 
Q 1331 4497 1331 4353 
Q 1331 4206 1228 4103 
Q 1125 4000 978 4000 
Q 831 4000 726 4103 
Q 622 4206 622 4353 
z
M 1356 331 
L 1900 331 
L 1900 0 
L 231 0 
L 231 331 
L 781 331 
L 781 2988 
L 231 2988 
L 231 3322 
L 1356 3322 
L 1356 331 
z
" transform="scale(0.015625)"/>
      <path id="DejaVuSerif-6c" d="M 1313 331 
L 1856 331 
L 1856 0 
L 184 0 
L 184 331 
L 738 331 
L 738 4531 
L 184 4531 
L 184 4863 
L 1313 4863 
L 1313 331 
z
" transform="scale(0.015625)"/>
      <path id="DejaVuSerif-74" d="M 691 2988 
L 184 2988 
L 184 3322 
L 691 3322 
L 691 4353 
L 1269 4353 
L 1269 3322 
L 2350 3322 
L 2350 2988 
L 1269 2988 
L 1269 878 
Q 1269 456 1350 337 
Q 1431 219 1650 219 
Q 1875 219 1978 351 
Q 2081 484 2088 781 
L 2522 781 
Q 2497 328 2275 118 
Q 2053 -91 1600 -91 
Q 1103 -91 897 129 
Q 691 350 691 878 
L 691 2988 
z
" transform="scale(0.015625)"/>
      <path id="DejaVuSerif-79" d="M 1381 -609 
L 1600 -56 
L 359 2988 
L -19 2988 
L -19 3322 
L 1509 3322 
L 1509 2988 
L 978 2988 
L 1913 703 
L 2847 2988 
L 2350 2988 
L 2350 3322 
L 3597 3322 
L 3597 2988 
L 3225 2988 
L 1703 -750 
Q 1547 -1138 1356 -1280 
Q 1166 -1422 819 -1422 
Q 672 -1422 517 -1397 
Q 363 -1372 206 -1325 
L 206 -691 
L 500 -691 
Q 519 -903 608 -995 
Q 697 -1088 884 -1088 
Q 1056 -1088 1161 -992 
Q 1266 -897 1381 -609 
z
" transform="scale(0.015625)"/>
      <path id="DejaVuSerif-20" transform="scale(0.015625)"/>
      <path id="DejaVuSerif-66" d="M 2753 4078 
L 2450 4078 
Q 2447 4313 2317 4434 
Q 2188 4556 1941 4556 
Q 1619 4556 1487 4379 
Q 1356 4203 1356 3750 
L 1356 3322 
L 2284 3322 
L 2284 2988 
L 1356 2988 
L 1356 331 
L 2094 331 
L 2094 0 
L 231 0 
L 231 331 
L 781 331 
L 781 2988 
L 231 2988 
L 231 3322 
L 781 3322 
L 781 3738 
Q 781 4294 1070 4578 
Q 1359 4863 1919 4863 
Q 2128 4863 2337 4825 
Q 2547 4788 2753 4709 
L 2753 4078 
z
" transform="scale(0.015625)"/>
      <path id="DejaVuSerif-28" d="M 2041 -997 
Q 1281 -656 893 83 
Q 506 822 506 1931 
Q 506 3044 893 3783 
Q 1281 4522 2041 4863 
L 2041 4556 
Q 1559 4225 1350 3623 
Q 1141 3022 1141 1931 
Q 1141 844 1350 242 
Q 1559 -359 2041 -691 
L 2041 -997 
z
" transform="scale(0.015625)"/>
      <path id="DejaVuSerif-6b" d="M 1831 0 
L 219 0 
L 219 331 
L 738 331 
L 738 4531 
L 184 4531 
L 184 4863 
L 1313 4863 
L 1313 1697 
L 2713 2988 
L 2234 2988 
L 2234 3322 
L 3738 3322 
L 3738 2988 
L 3169 2988 
L 2181 2075 
L 3444 331 
L 3922 331 
L 3922 0 
L 2284 0 
L 2284 331 
L 2759 331 
L 1766 1697 
L 1313 1275 
L 1313 331 
L 1831 331 
L 1831 0 
z
" transform="scale(0.015625)"/>
      <path id="DejaVuSerif-65" d="M 3469 1600 
L 991 1600 
L 991 1575 
Q 991 903 1244 561 
Q 1497 219 1991 219 
Q 2369 219 2611 417 
Q 2853 616 2950 1006 
L 3413 1006 
Q 3275 459 2904 184 
Q 2534 -91 1931 -91 
Q 1203 -91 761 389 
Q 319 869 319 1663 
Q 319 2450 753 2931 
Q 1188 3413 1894 3413 
Q 2647 3413 3050 2948 
Q 3453 2484 3469 1600 
z
M 2791 1931 
Q 2772 2513 2545 2808 
Q 2319 3103 1894 3103 
Q 1497 3103 1269 2806 
Q 1041 2509 991 1931 
L 2791 1931 
z
" transform="scale(0.015625)"/>
      <path id="DejaVuSerif-6e" d="M 263 0 
L 263 331 
L 781 331 
L 781 2988 
L 231 2988 
L 231 3322 
L 1356 3322 
L 1356 2731 
Q 1516 3069 1770 3241 
Q 2025 3413 2363 3413 
Q 2913 3413 3172 3097 
Q 3431 2781 3431 2113 
L 3431 331 
L 3944 331 
L 3944 0 
L 2356 0 
L 2356 331 
L 2853 331 
L 2853 1931 
Q 2853 2541 2703 2767 
Q 2553 2994 2175 2994 
Q 1775 2994 1565 2701 
Q 1356 2409 1356 1850 
L 1356 331 
L 1856 331 
L 1856 0 
L 263 0 
z
" transform="scale(0.015625)"/>
      <path id="DejaVuSerif-29" d="M 453 -997 
L 453 -691 
Q 934 -359 1145 242 
Q 1356 844 1356 1931 
Q 1356 3022 1145 3623 
Q 934 4225 453 4556 
L 453 4863 
Q 1216 4522 1603 3783 
Q 1991 3044 1991 1931 
Q 1991 822 1603 83 
Q 1216 -656 453 -997 
z
" transform="scale(0.015625)"/>
      <path id="DejaVuSerif-63" d="M 3291 997 
Q 3169 466 2822 187 
Q 2475 -91 1925 -91 
Q 1200 -91 759 389 
Q 319 869 319 1663 
Q 319 2459 759 2936 
Q 1200 3413 1925 3413 
Q 2241 3413 2553 3339 
Q 2866 3266 3181 3116 
L 3181 2266 
L 2847 2266 
Q 2781 2703 2561 2903 
Q 2341 3103 1931 3103 
Q 1466 3103 1228 2742 
Q 991 2381 991 1663 
Q 991 944 1227 581 
Q 1463 219 1931 219 
Q 2303 219 2525 412 
Q 2747 606 2828 997 
L 3291 997 
z
" transform="scale(0.015625)"/>
      <path id="DejaVuSans-393" d="M 628 0 
L 628 4666 
L 3531 4666 
L 3531 4134 
L 1259 4134 
L 1259 0 
L 628 0 
z
" transform="scale(0.015625)"/>
      <path id="DejaVuSans-28" d="M 1984 4856 
Q 1566 4138 1362 3434 
Q 1159 2731 1159 2009 
Q 1159 1288 1364 580 
Q 1569 -128 1984 -844 
L 1484 -844 
Q 1016 -109 783 600 
Q 550 1309 550 2009 
Q 550 2706 781 3412 
Q 1013 4119 1484 4856 
L 1984 4856 
z
" transform="scale(0.015625)"/>
      <path id="DejaVuSans-2c" d="M 750 794 
L 1409 794 
L 1409 256 
L 897 -744 
L 494 -744 
L 750 256 
L 750 794 
z
" transform="scale(0.015625)"/>
      <path id="DejaVuSans-Oblique-70" d="M 3175 2156 
Q 3175 2616 2975 2859 
Q 2775 3103 2400 3103 
Q 2144 3103 1911 2972 
Q 1678 2841 1497 2591 
Q 1319 2344 1212 1994 
Q 1106 1644 1106 1300 
Q 1106 863 1306 627 
Q 1506 391 1875 391 
Q 2147 391 2380 519 
Q 2613 647 2778 891 
Q 2956 1147 3065 1494 
Q 3175 1841 3175 2156 
z
M 1394 2969 
Q 1625 3272 1939 3428 
Q 2253 3584 2638 3584 
Q 3175 3584 3472 3232 
Q 3769 2881 3769 2247 
Q 3769 1728 3584 1258 
Q 3400 788 3053 416 
Q 2822 169 2531 39 
Q 2241 -91 1919 -91 
Q 1547 -91 1294 64 
Q 1041 219 916 525 
L 556 -1331 
L -19 -1331 
L 922 3500 
L 1497 3500 
L 1394 2969 
z
" transform="scale(0.015625)"/>
      <path id="DejaVuSans-29" d="M 513 4856 
L 1013 4856 
Q 1481 4119 1714 3412 
Q 1947 2706 1947 2009 
Q 1947 1309 1714 600 
Q 1481 -109 1013 -844 
L 513 -844 
Q 928 -128 1133 580 
Q 1338 1288 1338 2009 
Q 1338 2731 1133 3434 
Q 928 4138 513 4856 
z
" transform="scale(0.015625)"/>
      <path id="DejaVuSerif-73" d="M 359 184 
L 359 959 
L 691 959 
Q 703 588 923 403 
Q 1144 219 1575 219 
Q 1963 219 2166 364 
Q 2369 509 2369 788 
Q 2369 1006 2220 1140 
Q 2072 1275 1594 1428 
L 1178 1569 
Q 750 1706 558 1912 
Q 366 2119 366 2438 
Q 366 2894 700 3153 
Q 1034 3413 1625 3413 
Q 1888 3413 2178 3344 
Q 2469 3275 2778 3144 
L 2778 2419 
L 2447 2419 
Q 2434 2741 2221 2922 
Q 2009 3103 1644 3103 
Q 1281 3103 1095 2975 
Q 909 2847 909 2591 
Q 909 2381 1050 2254 
Q 1191 2128 1613 1997 
L 2069 1856 
Q 2541 1709 2748 1489 
Q 2956 1269 2956 922 
Q 2956 450 2595 179 
Q 2234 -91 1600 -91 
Q 1278 -91 972 -22 
Q 666 47 359 184 
z
" transform="scale(0.015625)"/>
      <path id="DejaVuSerif-75" d="M 2266 3322 
L 3341 3322 
L 3341 331 
L 3884 331 
L 3884 0 
L 2766 0 
L 2766 588 
Q 2606 256 2353 82 
Q 2100 -91 1766 -91 
Q 1213 -91 952 223 
Q 691 538 691 1209 
L 691 2988 
L 172 2988 
L 172 3322 
L 1269 3322 
L 1269 1388 
Q 1269 781 1417 556 
Q 1566 331 1947 331 
Q 2347 331 2556 625 
Q 2766 919 2766 1478 
L 2766 2988 
L 2266 2988 
L 2266 3322 
z
" transform="scale(0.015625)"/>
     </defs>
     <use xlink:href="#DejaVuSerif-50" transform="translate(0 0.015625)"/>
     <use xlink:href="#DejaVuSerif-72" transform="translate(67.285156 0.015625)"/>
     <use xlink:href="#DejaVuSerif-6f" transform="translate(115.087891 0.015625)"/>
     <use xlink:href="#DejaVuSerif-62" transform="translate(175.292969 0.015625)"/>
     <use xlink:href="#DejaVuSerif-61" transform="translate(239.306641 0.015625)"/>
     <use xlink:href="#DejaVuSerif-62" transform="translate(298.925781 0.015625)"/>
     <use xlink:href="#DejaVuSerif-69" transform="translate(362.939453 0.015625)"/>
     <use xlink:href="#DejaVuSerif-6c" transform="translate(394.921875 0.015625)"/>
     <use xlink:href="#DejaVuSerif-69" transform="translate(426.904297 0.015625)"/>
     <use xlink:href="#DejaVuSerif-74" transform="translate(458.886719 0.015625)"/>
     <use xlink:href="#DejaVuSerif-79" transform="translate(499.072266 0.015625)"/>
     <use xlink:href="#DejaVuSerif-20" transform="translate(555.566406 0.015625)"/>
     <use xlink:href="#DejaVuSerif-6f" transform="translate(587.353516 0.015625)"/>
     <use xlink:href="#DejaVuSerif-66" transform="translate(647.558594 0.015625)"/>
     <use xlink:href="#DejaVuSerif-20" transform="translate(684.570312 0.015625)"/>
     <use xlink:href="#DejaVuSerif-61" transform="translate(716.357422 0.015625)"/>
     <use xlink:href="#DejaVuSerif-20" transform="translate(775.976562 0.015625)"/>
     <use xlink:href="#DejaVuSerif-28" transform="translate(807.763672 0.015625)"/>
     <use xlink:href="#DejaVuSerif-62" transform="translate(846.777344 0.015625)"/>
     <use xlink:href="#DejaVuSerif-72" transform="translate(910.791016 0.015625)"/>
     <use xlink:href="#DejaVuSerif-6f" transform="translate(958.59375 0.015625)"/>
     <use xlink:href="#DejaVuSerif-6b" transform="translate(1018.798828 0.015625)"/>
     <use xlink:href="#DejaVuSerif-65" transform="translate(1079.394531 0.015625)"/>
     <use xlink:href="#DejaVuSerif-6e" transform="translate(1138.574219 0.015625)"/>
     <use xlink:href="#DejaVuSerif-29" transform="translate(1202.978516 0.015625)"/>
     <use xlink:href="#DejaVuSerif-20" transform="translate(1241.992188 0.015625)"/>
     <use xlink:href="#DejaVuSerif-63" transform="translate(1273.779297 0.015625)"/>
     <use xlink:href="#DejaVuSerif-79" transform="translate(1329.785156 0.015625)"/>
     <use xlink:href="#DejaVuSerif-63" transform="translate(1386.279297 0.015625)"/>
     <use xlink:href="#DejaVuSerif-6c" transform="translate(1442.285156 0.015625)"/>
     <use xlink:href="#DejaVuSerif-65" transform="translate(1474.267578 0.015625)"/>
     <use xlink:href="#DejaVuSerif-20" transform="translate(1533.447266 0.015625)"/>
     <use xlink:href="#DejaVuSerif-69" transform="translate(1565.234375 0.015625)"/>
     <use xlink:href="#DejaVuSerif-6e" transform="translate(1597.216797 0.015625)"/>
     <use xlink:href="#DejaVuSerif-20" transform="translate(1661.621094 0.015625)"/>
     <use xlink:href="#DejaVuSans-393" transform="translate(1693.408203 0.015625)"/>
     <use xlink:href="#DejaVuSans-28" transform="translate(1749.121094 0.015625)"/>
     <use xlink:href="#DejaVuSans-Oblique-6e" transform="translate(1788.134766 0.015625)"/>
     <use xlink:href="#DejaVuSans-2c" transform="translate(1851.513672 0.015625)"/>
     <use xlink:href="#DejaVuSans-Oblique-70" transform="translate(1902.783203 0.015625)"/>
     <use xlink:href="#DejaVuSans-29" transform="translate(1966.259766 0.015625)"/>
     <use xlink:href="#DejaVuSerif-20" transform="translate(2005.273438 0.015625)"/>
     <use xlink:href="#DejaVuSerif-61" transform="translate(2037.060547 0.015625)"/>
     <use xlink:href="#DejaVuSerif-73" transform="translate(2096.679688 0.015625)"/>
     <use xlink:href="#DejaVuSerif-20" transform="translate(2147.998047 0.015625)"/>
     <use xlink:href="#DejaVuSerif-61" transform="translate(2179.785156 0.015625)"/>
     <use xlink:href="#DejaVuSerif-20" transform="translate(2239.404297 0.015625)"/>
     <use xlink:href="#DejaVuSerif-66" transform="translate(2271.191406 0.015625)"/>
     <use xlink:href="#DejaVuSerif-75" transform="translate(2308.203125 0.015625)"/>
     <use xlink:href="#DejaVuSerif-6e" transform="translate(2372.607422 0.015625)"/>
     <use xlink:href="#DejaVuSerif-63" transform="translate(2437.011719 0.015625)"/>
     <use xlink:href="#DejaVuSerif-74" transform="translate(2493.017578 0.015625)"/>
     <use xlink:href="#DejaVuSerif-69" transform="translate(2533.203125 0.015625)"/>
     <use xlink:href="#DejaVuSerif-6f" transform="translate(2565.185547 0.015625)"/>
     <use xlink:href="#DejaVuSerif-6e" transform="translate(2625.390625 0.015625)"/>
     <use xlink:href="#DejaVuSerif-20" transform="translate(2689.794922 0.015625)"/>
     <use xlink:href="#DejaVuSerif-6f" transform="translate(2721.582031 0.015625)"/>
     <use xlink:href="#DejaVuSerif-66" transform="translate(2781.787109 0.015625)"/>
     <use xlink:href="#DejaVuSerif-20" transform="translate(2818.798828 0.015625)"/>
     <use xlink:href="#DejaVuSans-Oblique-70" transform="translate(2850.585938 0.015625)"/>
     <use xlink:href="#DejaVuSans-28" transform="translate(2914.0625 0.015625)"/>
     <use xlink:href="#DejaVuSans-Oblique-6e" transform="translate(2953.076172 0.015625)"/>
     <use xlink:href="#DejaVuSans-29" transform="translate(3016.455078 0.015625)"/>
    </g>
   </g>
  </g>
 </g>
 <defs>
  <clipPath id="pd4fe96201f">
   <rect x="54" y="34.56" width="334.8" height="217.44"/>
  </clipPath>
 </defs>
</svg>
