<?xml version="1.0" encoding="utf-8" standalone="no"?>
<!DOCTYPE svg PUBLIC "-//W3C//DTD SVG 1.1//EN"
  "http://www.w3.org/Graphics/SVG/1.1/DTD/svg11.dtd">
<svg xmlns:xlink="http://www.w3.org/1999/xlink" width="432pt" height="288pt" viewBox="0 0 432 288" xmlns="http://www.w3.org/2000/svg" version="1.1">
 <metadata>
  <rdf:RDF xmlns:dc="http://purl.org/dc/elements/1.1/" xmlns:cc="http://creativecommons.org/ns#" xmlns:rdf="http://www.w3.org/1999/02/22-rdf-syntax-ns#">
   <cc:Work>
    <dc:type rdf:resource="http://purl.org/dc/dcmitype/StillImage"/>
    <dc:date>2024-06-30T13:29:26.865687</dc:date>
    <dc:format>image/svg+xml</dc:format>
    <dc:creator>
     <cc:Agent>
      <dc:title>Matplotlib v3.5.2, https://matplotlib.org/</dc:title>
     </cc:Agent>
    </dc:creator>
   </cc:Work>
  </rdf:RDF>
 </metadata>
 <defs>
  <style type="text/css">*{stroke-linejoin: round; stroke-linecap: butt}</style>
 </defs>
 <g id="figure_1">
  <g id="patch_1">
   <path d="M 0 288 
L 432 288 
L 432 0 
L 0 0 
L 0 288 
z
" style="fill: none"/>
  </g>
  <g id="axes_1">
   <g id="patch_2">
    <path d="M 54 252 
L 388.8 252 
L 388.8 34.56 
L 54 34.56 
z
" style="fill: #ffffff"/>
   </g>
   <g id="PolyCollection_1">
    <path d="M 373.581818 233.88 
L 373.581818 233.88 
L 370.507438 233.88 
L 367.433058 233.88 
L 364.358678 233.88 
L 361.284298 233.88 
L 358.209917 233.88 
L 355.135537 233.88 
L 352.061157 233.88 
L 348.986777 233.88 
L 345.912397 233.88 
L 342.838017 233.88 
L 339.763636 233.88 
L 336.689256 233.88 
L 333.614876 233.88 
L 330.540496 233.88 
L 327.466116 233.88 
L 324.391736 233.88 
L 321.317355 233.88 
L 318.242975 233.88 
L 315.168595 233.88 
L 312.094215 233.88 
L 309.019835 233.88 
L 305.945455 233.88 
L 302.871074 233.88 
L 299.796694 233.88 
L 296.722314 233.88 
L 293.647934 233.88 
L 290.573554 233.88 
L 287.499174 233.88 
L 284.424793 233.88 
L 281.350413 233.88 
L 278.276033 233.88 
L 275.201653 233.88 
L 272.127273 233.88 
L 269.052893 233.88 
L 265.978512 233.88 
L 262.904132 233.88 
L 259.829752 233.88 
L 256.755372 233.88 
L 253.680992 233.88 
L 250.606612 233.88 
L 247.532231 233.88 
L 244.457851 233.88 
L 241.383471 233.88 
L 238.309091 233.88 
L 235.234711 233.88 
L 232.160331 233.88 
L 229.08595 233.88 
L 226.01157 233.88 
L 222.93719 233.88 
L 219.86281 233.88 
L 216.78843 233.88 
L 213.71405 233.88 
L 210.639669 233.88 
L 207.565289 233.88 
L 204.490909 233.88 
L 201.416529 233.88 
L 198.342149 233.88 
L 195.267769 233.88 
L 192.193388 233.88 
L 189.119008 233.88 
L 186.044628 230.265083 
L 182.970248 233.88 
L 179.895868 233.88 
L 176.821488 233.88 
L 173.747107 230.265083 
L 170.672727 223.08122 
L 167.598347 223.08122 
L 164.523967 212.386387 
L 161.449587 218.704738 
L 158.375207 220.870838 
L 155.300826 214.468167 
L 152.226446 212.386387 
L 149.152066 200.229866 
L 146.077686 163.688397 
L 143.003306 158.087586 
L 139.928926 148.83272 
L 136.854545 132.409812 
L 133.780165 116.283049 
L 130.705785 81.672 
L 127.631405 71.760595 
L 124.557025 62.260167 
L 121.482645 56.37722 
L 118.408264 53.7672 
L 115.333884 52.689083 
L 112.259504 52.68 
L 109.185124 52.68 
L 106.110744 52.68 
L 103.036364 52.68 
L 99.961983 52.68 
L 96.887603 52.68 
L 93.813223 52.68 
L 90.738843 52.68 
L 87.664463 52.68 
L 84.590083 52.68 
L 81.515702 52.68 
L 78.441322 52.68 
L 75.366942 52.68 
L 72.292562 52.68 
L 69.218182 52.68 
L 69.218182 52.68 
L 69.218182 52.68 
L 72.292562 52.68 
L 75.366942 52.68 
L 78.441322 52.68 
L 81.515702 52.68 
L 84.590083 52.68 
L 87.664463 52.68 
L 90.738843 52.68 
L 93.813223 52.68 
L 96.887603 52.68 
L 99.961983 52.68 
L 103.036364 52.68 
L 106.110744 52.68 
L 109.185124 52.68 
L 112.259504 52.68 
L 115.333884 56.294917 
L 118.408264 58.8408 
L 121.482645 63.47878 
L 124.557025 72.091833 
L 127.631405 84.335405 
L 130.705785 96.168 
L 133.780165 134.036951 
L 136.854545 150.526188 
L 139.928926 166.71928 
L 143.003306 175.584414 
L 146.077686 180.855603 
L 149.152066 213.170134 
L 152.226446 222.757613 
L 155.300826 224.299833 
L 158.375207 228.769162 
L 161.449587 227.311262 
L 164.523967 222.757613 
L 167.598347 230.18278 
L 170.672727 230.18278 
L 173.747107 233.870917 
L 176.821488 233.88 
L 179.895868 233.88 
L 182.970248 233.88 
L 186.044628 233.870917 
L 189.119008 233.88 
L 192.193388 233.88 
L 195.267769 233.88 
L 198.342149 233.88 
L 201.416529 233.88 
L 204.490909 233.88 
L 207.565289 233.88 
L 210.639669 233.88 
L 213.71405 233.88 
L 216.78843 233.88 
L 219.86281 233.88 
L 222.93719 233.88 
L 226.01157 233.88 
L 229.08595 233.88 
L 232.160331 233.88 
L 235.234711 233.88 
L 238.309091 233.88 
L 241.383471 233.88 
L 244.457851 233.88 
L 247.532231 233.88 
L 250.606612 233.88 
L 253.680992 233.88 
L 256.755372 233.88 
L 259.829752 233.88 
L 262.904132 233.88 
L 265.978512 233.88 
L 269.052893 233.88 
L 272.127273 233.88 
L 275.201653 233.88 
L 278.276033 233.88 
L 281.350413 233.88 
L 284.424793 233.88 
L 287.499174 233.88 
L 290.573554 233.88 
L 293.647934 233.88 
L 296.722314 233.88 
L 299.796694 233.88 
L 302.871074 233.88 
L 305.945455 233.88 
L 309.019835 233.88 
L 312.094215 233.88 
L 315.168595 233.88 
L 318.242975 233.88 
L 321.317355 233.88 
L 324.391736 233.88 
L 327.466116 233.88 
L 330.540496 233.88 
L 333.614876 233.88 
L 336.689256 233.88 
L 339.763636 233.88 
L 342.838017 233.88 
L 345.912397 233.88 
L 348.986777 233.88 
L 352.061157 233.88 
L 355.135537 233.88 
L 358.209917 233.88 
L 361.284298 233.88 
L 364.358678 233.88 
L 367.433058 233.88 
L 370.507438 233.88 
L 373.581818 233.88 
z
" clip-path="url(#p4f3a90fa37)" style="fill: #1f77b4; fill-opacity: 0.3"/>
   </g>
   <g id="PolyCollection_2">
    <path d="M 373.581818 233.88 
L 373.581818 233.88 
L 370.507438 233.88 
L 367.433058 233.88 
L 364.358678 233.88 
L 361.284298 233.88 
L 358.209917 233.88 
L 355.135537 233.88 
L 352.061157 233.88 
L 348.986777 233.88 
L 345.912397 233.88 
L 342.838017 233.88 
L 339.763636 233.88 
L 336.689256 233.88 
L 333.614876 233.88 
L 330.540496 233.88 
L 327.466116 233.88 
L 324.391736 233.88 
L 321.317355 233.88 
L 318.242975 233.88 
L 315.168595 233.88 
L 312.094215 233.88 
L 309.019835 233.88 
L 305.945455 233.88 
L 302.871074 233.88 
L 299.796694 233.88 
L 296.722314 233.88 
L 293.647934 233.88 
L 290.573554 233.88 
L 287.499174 233.88 
L 284.424793 233.88 
L 281.350413 233.88 
L 278.276033 230.265083 
L 275.201653 233.88 
L 272.127273 233.88 
L 269.052893 230.265083 
L 265.978512 233.88 
L 262.904132 230.265083 
L 259.829752 230.265083 
L 256.755372 227.7192 
L 253.680992 233.88 
L 250.606612 225.35296 
L 247.532231 225.35296 
L 244.457851 223.08122 
L 241.383471 216.572736 
L 238.309091 230.265083 
L 235.234711 216.572736 
L 232.160331 220.870838 
L 229.08595 223.08122 
L 226.01157 216.572736 
L 222.93719 212.386387 
L 219.86281 194.302523 
L 216.78843 202.224595 
L 213.71405 182.653254 
L 210.639669 161.817311 
L 207.565289 156.228798 
L 204.490909 146.993227 
L 201.416529 132.409812 
L 198.342149 121.625227 
L 195.267769 85.037857 
L 192.193388 76.677534 
L 189.119008 68.535697 
L 186.044628 63.802387 
L 182.970248 55.02496 
L 179.895868 52.689083 
L 176.821488 52.689083 
L 173.747107 52.689083 
L 170.672727 52.68 
L 167.598347 52.68 
L 164.523967 52.68 
L 161.449587 52.68 
L 158.375207 52.68 
L 155.300826 52.68 
L 152.226446 52.68 
L 149.152066 52.68 
L 146.077686 52.68 
L 143.003306 52.68 
L 139.928926 52.68 
L 136.854545 52.68 
L 133.780165 52.68 
L 130.705785 52.68 
L 127.631405 52.68 
L 124.557025 52.68 
L 121.482645 52.68 
L 118.408264 52.68 
L 115.333884 52.68 
L 112.259504 52.68 
L 109.185124 52.68 
L 106.110744 52.68 
L 103.036364 52.68 
L 99.961983 52.68 
L 96.887603 52.68 
L 93.813223 52.68 
L 90.738843 52.68 
L 87.664463 52.68 
L 84.590083 52.68 
L 81.515702 52.68 
L 78.441322 52.68 
L 75.366942 52.68 
L 72.292562 52.68 
L 69.218182 52.68 
L 69.218182 52.68 
L 69.218182 52.68 
L 72.292562 52.68 
L 75.366942 52.68 
L 78.441322 52.68 
L 81.515702 52.68 
L 84.590083 52.68 
L 87.664463 52.68 
L 90.738843 52.68 
L 93.813223 52.68 
L 96.887603 52.68 
L 99.961983 52.68 
L 103.036364 52.68 
L 106.110744 52.68 
L 109.185124 52.68 
L 112.259504 52.68 
L 115.333884 52.68 
L 118.408264 52.68 
L 121.482645 52.68 
L 124.557025 52.68 
L 127.631405 52.68 
L 130.705785 52.68 
L 133.780165 52.68 
L 136.854545 52.68 
L 139.928926 52.68 
L 143.003306 52.68 
L 146.077686 52.68 
L 149.152066 52.68 
L 152.226446 52.68 
L 155.300826 52.68 
L 158.375207 52.68 
L 161.449587 52.68 
L 164.523967 52.68 
L 167.598347 52.68 
L 170.672727 52.68 
L 173.747107 56.294917 
L 176.821488 56.294917 
L 179.895868 56.294917 
L 182.970248 61.20704 
L 186.044628 74.173613 
L 189.119008 80.312303 
L 192.193388 90.290466 
L 195.267769 100.050143 
L 198.342149 139.566773 
L 201.416529 150.526188 
L 204.490909 164.934773 
L 207.565289 173.819202 
L 210.639669 179.102689 
L 213.71405 198.130746 
L 216.78843 214.799405 
L 219.86281 208.225477 
L 222.93719 222.757613 
L 226.01157 225.819264 
L 229.08595 230.18278 
L 232.160331 228.769162 
L 235.234711 225.819264 
L 238.309091 233.870917 
L 241.383471 225.819264 
L 244.457851 230.18278 
L 247.532231 231.53504 
L 250.606612 231.53504 
L 253.680992 233.88 
L 256.755372 232.7928 
L 259.829752 233.870917 
L 262.904132 233.870917 
L 265.978512 233.88 
L 269.052893 233.870917 
L 272.127273 233.88 
L 275.201653 233.88 
L 278.276033 233.870917 
L 281.350413 233.88 
L 284.424793 233.88 
L 287.499174 233.88 
L 290.573554 233.88 
L 293.647934 233.88 
L 296.722314 233.88 
L 299.796694 233.88 
L 302.871074 233.88 
L 305.945455 233.88 
L 309.019835 233.88 
L 312.094215 233.88 
L 315.168595 233.88 
L 318.242975 233.88 
L 321.317355 233.88 
L 324.391736 233.88 
L 327.466116 233.88 
L 330.540496 233.88 
L 333.614876 233.88 
L 336.689256 233.88 
L 339.763636 233.88 
L 342.838017 233.88 
L 345.912397 233.88 
L 348.986777 233.88 
L 352.061157 233.88 
L 355.135537 233.88 
L 358.209917 233.88 
L 361.284298 233.88 
L 364.358678 233.88 
L 367.433058 233.88 
L 370.507438 233.88 
L 373.581818 233.88 
z
" clip-path="url(#p4f3a90fa37)" style="fill: #ff7f0e; fill-opacity: 0.3"/>
   </g>
   <g id="matplotlib.axis_1">
    <g id="xtick_1">
     <g id="line2d_1">
      <defs>
       <path id="m703aa8f646" d="M 0 0 
L 0 3.5 
" style="stroke: #000000; stroke-width: 0.8"/>
      </defs>
      <g>
       <use xlink:href="#m703aa8f646" x="130.867595" y="252" style="stroke: #000000; stroke-width: 0.8"/>
      </g>
     </g>
     <g id="text_1">
      <!-- $\frac{1}{\sqrt{n}}$ -->
      <g transform="translate(124.917595 268.5)scale(0.1 -0.1)">
       <defs>
        <path id="DejaVuSans-31" d="M 794 531 
L 1825 531 
L 1825 4091 
L 703 3866 
L 703 4441 
L 1819 4666 
L 2450 4666 
L 2450 531 
L 3481 531 
L 3481 0 
L 794 0 
L 794 531 
z
" transform="scale(0.015625)"/>
        <path id="DejaVuSans-221a" d="M 3488 5191 
L 4078 5191 
L 4078 4891 
L 3719 4891 
L 1863 -128 
L 1656 -128 
L 659 2631 
L 269 2491 
L 191 2741 
L 1075 3047 
L 1875 831 
L 3488 5191 
z
" transform="scale(0.015625)"/>
        <path id="DejaVuSans-Oblique-6e" d="M 3566 2113 
L 3156 0 
L 2578 0 
L 2988 2091 
Q 3016 2238 3031 2350 
Q 3047 2463 3047 2528 
Q 3047 2791 2881 2937 
Q 2716 3084 2419 3084 
Q 1956 3084 1622 2776 
Q 1288 2469 1184 1941 
L 800 0 
L 225 0 
L 903 3500 
L 1478 3500 
L 1363 2950 
Q 1603 3253 1940 3418 
Q 2278 3584 2650 3584 
Q 3113 3584 3367 3334 
Q 3622 3084 3622 2631 
Q 3622 2519 3608 2391 
Q 3594 2263 3566 2113 
z
" transform="scale(0.015625)"/>
       </defs>
       <use xlink:href="#DejaVuSans-31" transform="translate(31 43.965625)scale(0.7)"/>
       <use xlink:href="#DejaVuSans-221a" transform="translate(0 -48.260937)scale(0.7)"/>
       <use xlink:href="#DejaVuSans-Oblique-6e" transform="translate(53.354492 -47.859375)scale(0.7)"/>
       <path d="M 0 18.965625 
L 0 25.215625 
L 106.469727 25.215625 
L 106.469727 18.965625 
L 0 18.965625 
z
"/>
       <path d="M 44.604492 3.965625 
L 44.604492 8.340625 
L 106.469727 8.340625 
L 106.469727 3.965625 
L 44.604492 3.965625 
z
"/>
      </g>
     </g>
    </g>
    <g id="xtick_2">
     <g id="line2d_2">
      <g>
       <use xlink:href="#m703aa8f646" x="147.048543" y="252" style="stroke: #000000; stroke-width: 0.8"/>
      </g>
     </g>
     <g id="text_2">
      <!-- $\frac{1}{n^{3/5}}$ -->
      <g transform="translate(139.998543 268.5)scale(0.1 -0.1)">
       <defs>
        <path id="DejaVuSans-33" d="M 2597 2516 
Q 3050 2419 3304 2112 
Q 3559 1806 3559 1356 
Q 3559 666 3084 287 
Q 2609 -91 1734 -91 
Q 1441 -91 1130 -33 
Q 819 25 488 141 
L 488 750 
Q 750 597 1062 519 
Q 1375 441 1716 441 
Q 2309 441 2620 675 
Q 2931 909 2931 1356 
Q 2931 1769 2642 2001 
Q 2353 2234 1838 2234 
L 1294 2234 
L 1294 2753 
L 1863 2753 
Q 2328 2753 2575 2939 
Q 2822 3125 2822 3475 
Q 2822 3834 2567 4026 
Q 2313 4219 1838 4219 
Q 1578 4219 1281 4162 
Q 984 4106 628 3988 
L 628 4550 
Q 988 4650 1302 4700 
Q 1616 4750 1894 4750 
Q 2613 4750 3031 4423 
Q 3450 4097 3450 3541 
Q 3450 3153 3228 2886 
Q 3006 2619 2597 2516 
z
" transform="scale(0.015625)"/>
        <path id="DejaVuSans-2f" d="M 1625 4666 
L 2156 4666 
L 531 -594 
L 0 -594 
L 1625 4666 
z
" transform="scale(0.015625)"/>
        <path id="DejaVuSans-35" d="M 691 4666 
L 3169 4666 
L 3169 4134 
L 1269 4134 
L 1269 2991 
Q 1406 3038 1543 3061 
Q 1681 3084 1819 3084 
Q 2600 3084 3056 2656 
Q 3513 2228 3513 1497 
Q 3513 744 3044 326 
Q 2575 -91 1722 -91 
Q 1428 -91 1123 -41 
Q 819 9 494 109 
L 494 744 
Q 775 591 1075 516 
Q 1375 441 1709 441 
Q 2250 441 2565 725 
Q 2881 1009 2881 1497 
Q 2881 1984 2565 2268 
Q 2250 2553 1709 2553 
Q 1456 2553 1204 2497 
Q 953 2441 691 2322 
L 691 4666 
z
" transform="scale(0.015625)"/>
       </defs>
       <use xlink:href="#DejaVuSans-31" transform="translate(42 43.965625)scale(0.7)"/>
       <use xlink:href="#DejaVuSans-Oblique-6e" transform="translate(0 -50.448437)scale(0.7)"/>
       <use xlink:href="#DejaVuSans-33" transform="translate(47.620161 -23.651562)scale(0.49)"/>
       <use xlink:href="#DejaVuSans-2f" transform="translate(78.795454 -23.651562)scale(0.49)"/>
       <use xlink:href="#DejaVuSans-35" transform="translate(95.304243 -23.651562)scale(0.49)"/>
       <path d="M 0 18.965625 
L 0 25.215625 
L 128.393599 25.215625 
L 128.393599 18.965625 
L 0 18.965625 
z
"/>
      </g>
     </g>
    </g>
    <g id="xtick_3">
     <g id="line2d_3">
      <g>
       <use xlink:href="#m703aa8f646" x="211.772336" y="252" style="stroke: #000000; stroke-width: 0.8"/>
      </g>
     </g>
     <g id="text_3">
      <!-- $\frac{1}{n}$ -->
      <g transform="translate(208.872336 268.5)scale(0.1 -0.1)">
       <use xlink:href="#DejaVuSans-31" transform="translate(0 43.965625)scale(0.7)"/>
       <use xlink:href="#DejaVuSans-Oblique-6e" transform="translate(0 -26.484375)scale(0.7)"/>
       <path d="M 0 18.965625 
L 0 25.215625 
L 44.536133 25.215625 
L 44.536133 18.965625 
L 0 18.965625 
z
"/>
      </g>
     </g>
    </g>
    <g id="xtick_4">
     <g id="line2d_4">
      <g>
       <use xlink:href="#m703aa8f646" x="292.677077" y="252" style="stroke: #000000; stroke-width: 0.8"/>
      </g>
     </g>
     <g id="text_4">
      <!-- $\frac{1}{n^{1.5}}$ -->
      <g transform="translate(285.677077 268.5)scale(0.1 -0.1)">
       <defs>
        <path id="DejaVuSans-2e" d="M 684 794 
L 1344 794 
L 1344 0 
L 684 0 
L 684 794 
z
" transform="scale(0.015625)"/>
       </defs>
       <use xlink:href="#DejaVuSans-31" transform="translate(41 43.965625)scale(0.7)"/>
       <use xlink:href="#DejaVuSans-Oblique-6e" transform="translate(0 -49.805312)scale(0.7)"/>
       <use xlink:href="#DejaVuSans-31" transform="translate(47.620161 -23.008437)scale(0.49)"/>
       <use xlink:href="#DejaVuSans-2e" transform="translate(78.795454 -23.008437)scale(0.49)"/>
       <use xlink:href="#DejaVuSans-35" transform="translate(94.371138 -23.008437)scale(0.49)"/>
       <path d="M 0 18.965625 
L 0 25.215625 
L 127.460493 25.215625 
L 127.460493 18.965625 
L 0 18.965625 
z
"/>
      </g>
     </g>
    </g>
    <g id="text_5">
     <!-- $p=p(n)$ -->
     <g transform="translate(201.8 285.2)scale(0.1 -0.1)">
      <defs>
       <path id="DejaVuSans-Oblique-70" d="M 3175 2156 
Q 3175 2616 2975 2859 
Q 2775 3103 2400 3103 
Q 2144 3103 1911 2972 
Q 1678 2841 1497 2591 
Q 1319 2344 1212 1994 
Q 1106 1644 1106 1300 
Q 1106 863 1306 627 
Q 1506 391 1875 391 
Q 2147 391 2380 519 
Q 2613 647 2778 891 
Q 2956 1147 3065 1494 
Q 3175 1841 3175 2156 
z
M 1394 2969 
Q 1625 3272 1939 3428 
Q 2253 3584 2638 3584 
Q 3175 3584 3472 3232 
Q 3769 2881 3769 2247 
Q 3769 1728 3584 1258 
Q 3400 788 3053 416 
Q 2822 169 2531 39 
Q 2241 -91 1919 -91 
Q 1547 -91 1294 64 
Q 1041 219 916 525 
L 556 -1331 
L -19 -1331 
L 922 3500 
L 1497 3500 
L 1394 2969 
z
" transform="scale(0.015625)"/>
       <path id="DejaVuSans-3d" d="M 678 2906 
L 4684 2906 
L 4684 2381 
L 678 2381 
L 678 2906 
z
M 678 1631 
L 4684 1631 
L 4684 1100 
L 678 1100 
L 678 1631 
z
" transform="scale(0.015625)"/>
       <path id="DejaVuSans-28" d="M 1984 4856 
Q 1566 4138 1362 3434 
Q 1159 2731 1159 2009 
Q 1159 1288 1364 580 
Q 1569 -128 1984 -844 
L 1484 -844 
Q 1016 -109 783 600 
Q 550 1309 550 2009 
Q 550 2706 781 3412 
Q 1013 4119 1484 4856 
L 1984 4856 
z
" transform="scale(0.015625)"/>
       <path id="DejaVuSans-29" d="M 513 4856 
L 1013 4856 
Q 1481 4119 1714 3412 
Q 1947 2706 1947 2009 
Q 1947 1309 1714 600 
Q 1481 -109 1013 -844 
L 513 -844 
Q 928 -128 1133 580 
Q 1338 1288 1338 2009 
Q 1338 2731 1133 3434 
Q 928 4138 513 4856 
z
" transform="scale(0.015625)"/>
      </defs>
      <use xlink:href="#DejaVuSans-Oblique-70" transform="translate(0 0.125)"/>
      <use xlink:href="#DejaVuSans-3d" transform="translate(82.958984 0.125)"/>
      <use xlink:href="#DejaVuSans-Oblique-70" transform="translate(186.230469 0.125)"/>
      <use xlink:href="#DejaVuSans-28" transform="translate(249.707031 0.125)"/>
      <use xlink:href="#DejaVuSans-Oblique-6e" transform="translate(288.720703 0.125)"/>
      <use xlink:href="#DejaVuSans-29" transform="translate(352.099609 0.125)"/>
     </g>
    </g>
   </g>
   <g id="matplotlib.axis_2">
    <g id="ytick_1">
     <g id="line2d_5">
      <path d="M 54 233.88 
L 388.8 233.88 
" clip-path="url(#p4f3a90fa37)" style="fill: none; stroke: #b0b0b0; stroke-opacity: 0.5; stroke-width: 0.8; stroke-linecap: square"/>
     </g>
     <g id="line2d_6">
      <defs>
       <path id="m613ba1b3d4" d="M 0 0 
L -3.5 0 
" style="stroke: #000000; stroke-width: 0.8"/>
      </defs>
      <g>
       <use xlink:href="#m613ba1b3d4" x="54" y="233.88" style="stroke: #000000; stroke-width: 0.8"/>
      </g>
     </g>
     <g id="text_6">
      <!-- 0.0 -->
      <g transform="translate(31.096875 237.679219)scale(0.1 -0.1)">
       <defs>
        <path id="DejaVuSans-30" d="M 2034 4250 
Q 1547 4250 1301 3770 
Q 1056 3291 1056 2328 
Q 1056 1369 1301 889 
Q 1547 409 2034 409 
Q 2525 409 2770 889 
Q 3016 1369 3016 2328 
Q 3016 3291 2770 3770 
Q 2525 4250 2034 4250 
z
M 2034 4750 
Q 2819 4750 3233 4129 
Q 3647 3509 3647 2328 
Q 3647 1150 3233 529 
Q 2819 -91 2034 -91 
Q 1250 -91 836 529 
Q 422 1150 422 2328 
Q 422 3509 836 4129 
Q 1250 4750 2034 4750 
z
" transform="scale(0.015625)"/>
       </defs>
       <use xlink:href="#DejaVuSans-30"/>
       <use xlink:href="#DejaVuSans-2e" x="63.623047"/>
       <use xlink:href="#DejaVuSans-30" x="95.410156"/>
      </g>
     </g>
    </g>
    <g id="ytick_2">
     <g id="line2d_7">
      <path d="M 54 197.64 
L 388.8 197.64 
" clip-path="url(#p4f3a90fa37)" style="fill: none; stroke: #b0b0b0; stroke-opacity: 0.5; stroke-width: 0.8; stroke-linecap: square"/>
     </g>
     <g id="line2d_8">
      <g>
       <use xlink:href="#m613ba1b3d4" x="54" y="197.64" style="stroke: #000000; stroke-width: 0.8"/>
      </g>
     </g>
     <g id="text_7">
      <!-- 0.2 -->
      <g transform="translate(31.096875 201.439219)scale(0.1 -0.1)">
       <defs>
        <path id="DejaVuSans-32" d="M 1228 531 
L 3431 531 
L 3431 0 
L 469 0 
L 469 531 
Q 828 903 1448 1529 
Q 2069 2156 2228 2338 
Q 2531 2678 2651 2914 
Q 2772 3150 2772 3378 
Q 2772 3750 2511 3984 
Q 2250 4219 1831 4219 
Q 1534 4219 1204 4116 
Q 875 4013 500 3803 
L 500 4441 
Q 881 4594 1212 4672 
Q 1544 4750 1819 4750 
Q 2544 4750 2975 4387 
Q 3406 4025 3406 3419 
Q 3406 3131 3298 2873 
Q 3191 2616 2906 2266 
Q 2828 2175 2409 1742 
Q 1991 1309 1228 531 
z
" transform="scale(0.015625)"/>
       </defs>
       <use xlink:href="#DejaVuSans-30"/>
       <use xlink:href="#DejaVuSans-2e" x="63.623047"/>
       <use xlink:href="#DejaVuSans-32" x="95.410156"/>
      </g>
     </g>
    </g>
    <g id="ytick_3">
     <g id="line2d_9">
      <path d="M 54 161.4 
L 388.8 161.4 
" clip-path="url(#p4f3a90fa37)" style="fill: none; stroke: #b0b0b0; stroke-opacity: 0.5; stroke-width: 0.8; stroke-linecap: square"/>
     </g>
     <g id="line2d_10">
      <g>
       <use xlink:href="#m613ba1b3d4" x="54" y="161.4" style="stroke: #000000; stroke-width: 0.8"/>
      </g>
     </g>
     <g id="text_8">
      <!-- 0.4 -->
      <g transform="translate(31.096875 165.199219)scale(0.1 -0.1)">
       <defs>
        <path id="DejaVuSans-34" d="M 2419 4116 
L 825 1625 
L 2419 1625 
L 2419 4116 
z
M 2253 4666 
L 3047 4666 
L 3047 1625 
L 3713 1625 
L 3713 1100 
L 3047 1100 
L 3047 0 
L 2419 0 
L 2419 1100 
L 313 1100 
L 313 1709 
L 2253 4666 
z
" transform="scale(0.015625)"/>
       </defs>
       <use xlink:href="#DejaVuSans-30"/>
       <use xlink:href="#DejaVuSans-2e" x="63.623047"/>
       <use xlink:href="#DejaVuSans-34" x="95.410156"/>
      </g>
     </g>
    </g>
    <g id="ytick_4">
     <g id="line2d_11">
      <path d="M 54 125.16 
L 388.8 125.16 
" clip-path="url(#p4f3a90fa37)" style="fill: none; stroke: #b0b0b0; stroke-opacity: 0.5; stroke-width: 0.8; stroke-linecap: square"/>
     </g>
     <g id="line2d_12">
      <g>
       <use xlink:href="#m613ba1b3d4" x="54" y="125.16" style="stroke: #000000; stroke-width: 0.8"/>
      </g>
     </g>
     <g id="text_9">
      <!-- 0.6 -->
      <g transform="translate(31.096875 128.959219)scale(0.1 -0.1)">
       <defs>
        <path id="DejaVuSans-36" d="M 2113 2584 
Q 1688 2584 1439 2293 
Q 1191 2003 1191 1497 
Q 1191 994 1439 701 
Q 1688 409 2113 409 
Q 2538 409 2786 701 
Q 3034 994 3034 1497 
Q 3034 2003 2786 2293 
Q 2538 2584 2113 2584 
z
M 3366 4563 
L 3366 3988 
Q 3128 4100 2886 4159 
Q 2644 4219 2406 4219 
Q 1781 4219 1451 3797 
Q 1122 3375 1075 2522 
Q 1259 2794 1537 2939 
Q 1816 3084 2150 3084 
Q 2853 3084 3261 2657 
Q 3669 2231 3669 1497 
Q 3669 778 3244 343 
Q 2819 -91 2113 -91 
Q 1303 -91 875 529 
Q 447 1150 447 2328 
Q 447 3434 972 4092 
Q 1497 4750 2381 4750 
Q 2619 4750 2861 4703 
Q 3103 4656 3366 4563 
z
" transform="scale(0.015625)"/>
       </defs>
       <use xlink:href="#DejaVuSans-30"/>
       <use xlink:href="#DejaVuSans-2e" x="63.623047"/>
       <use xlink:href="#DejaVuSans-36" x="95.410156"/>
      </g>
     </g>
    </g>
    <g id="ytick_5">
     <g id="line2d_13">
      <path d="M 54 88.92 
L 388.8 88.92 
" clip-path="url(#p4f3a90fa37)" style="fill: none; stroke: #b0b0b0; stroke-opacity: 0.5; stroke-width: 0.8; stroke-linecap: square"/>
     </g>
     <g id="line2d_14">
      <g>
       <use xlink:href="#m613ba1b3d4" x="54" y="88.92" style="stroke: #000000; stroke-width: 0.8"/>
      </g>
     </g>
     <g id="text_10">
      <!-- 0.8 -->
      <g transform="translate(31.096875 92.719219)scale(0.1 -0.1)">
       <defs>
        <path id="DejaVuSans-38" d="M 2034 2216 
Q 1584 2216 1326 1975 
Q 1069 1734 1069 1313 
Q 1069 891 1326 650 
Q 1584 409 2034 409 
Q 2484 409 2743 651 
Q 3003 894 3003 1313 
Q 3003 1734 2745 1975 
Q 2488 2216 2034 2216 
z
M 1403 2484 
Q 997 2584 770 2862 
Q 544 3141 544 3541 
Q 544 4100 942 4425 
Q 1341 4750 2034 4750 
Q 2731 4750 3128 4425 
Q 3525 4100 3525 3541 
Q 3525 3141 3298 2862 
Q 3072 2584 2669 2484 
Q 3125 2378 3379 2068 
Q 3634 1759 3634 1313 
Q 3634 634 3220 271 
Q 2806 -91 2034 -91 
Q 1263 -91 848 271 
Q 434 634 434 1313 
Q 434 1759 690 2068 
Q 947 2378 1403 2484 
z
M 1172 3481 
Q 1172 3119 1398 2916 
Q 1625 2713 2034 2713 
Q 2441 2713 2670 2916 
Q 2900 3119 2900 3481 
Q 2900 3844 2670 4047 
Q 2441 4250 2034 4250 
Q 1625 4250 1398 4047 
Q 1172 3844 1172 3481 
z
" transform="scale(0.015625)"/>
       </defs>
       <use xlink:href="#DejaVuSans-30"/>
       <use xlink:href="#DejaVuSans-2e" x="63.623047"/>
       <use xlink:href="#DejaVuSans-38" x="95.410156"/>
      </g>
     </g>
    </g>
    <g id="ytick_6">
     <g id="line2d_15">
      <path d="M 54 52.68 
L 388.8 52.68 
" clip-path="url(#p4f3a90fa37)" style="fill: none; stroke: #b0b0b0; stroke-opacity: 0.5; stroke-width: 0.8; stroke-linecap: square"/>
     </g>
     <g id="line2d_16">
      <g>
       <use xlink:href="#m613ba1b3d4" x="54" y="52.68" style="stroke: #000000; stroke-width: 0.8"/>
      </g>
     </g>
     <g id="text_11">
      <!-- 1.0 -->
      <g transform="translate(31.096875 56.479219)scale(0.1 -0.1)">
       <use xlink:href="#DejaVuSans-31"/>
       <use xlink:href="#DejaVuSans-2e" x="63.623047"/>
       <use xlink:href="#DejaVuSans-30" x="95.410156"/>
      </g>
     </g>
    </g>
   </g>
   <g id="line2d_17">
    <path d="M 373.581818 233.88 
L 370.507438 233.88 
L 367.433058 233.88 
L 364.358678 233.88 
L 361.284298 233.88 
L 358.209917 233.88 
L 355.135537 233.88 
L 352.061157 233.88 
L 348.986777 233.88 
L 345.912397 233.88 
L 342.838017 233.88 
L 339.763636 233.88 
L 336.689256 233.88 
L 333.614876 233.88 
L 330.540496 233.88 
L 327.466116 233.88 
L 324.391736 233.88 
L 321.317355 233.88 
L 318.242975 233.88 
L 315.168595 233.88 
L 312.094215 233.88 
L 309.019835 233.88 
L 305.945455 233.88 
L 302.871074 233.88 
L 299.796694 233.88 
L 296.722314 233.88 
L 293.647934 233.88 
L 290.573554 233.88 
L 287.499174 233.88 
L 284.424793 233.88 
L 281.350413 233.88 
L 278.276033 233.88 
L 275.201653 233.88 
L 272.127273 233.88 
L 269.052893 233.88 
L 265.978512 233.88 
L 262.904132 233.88 
L 259.829752 233.88 
L 256.755372 233.88 
L 253.680992 233.88 
L 250.606612 233.88 
L 247.532231 233.88 
L 244.457851 233.88 
L 241.383471 233.88 
L 238.309091 233.88 
L 235.234711 233.88 
L 232.160331 233.88 
L 229.08595 233.88 
L 226.01157 233.88 
L 222.93719 233.88 
L 219.86281 233.88 
L 216.78843 233.88 
L 213.71405 233.88 
L 210.639669 233.88 
L 207.565289 233.88 
L 204.490909 233.88 
L 201.416529 233.88 
L 198.342149 233.88 
L 195.267769 233.88 
L 192.193388 233.88 
L 189.119008 233.88 
L 186.044628 232.068 
L 182.970248 233.88 
L 179.895868 233.88 
L 176.821488 233.88 
L 173.747107 232.068 
L 170.672727 226.632 
L 167.598347 226.632 
L 164.523967 217.572 
L 161.449587 223.008 
L 158.375207 224.82 
L 155.300826 219.384 
L 152.226446 217.572 
L 149.152066 206.7 
L 146.077686 172.272 
L 143.003306 166.836 
L 139.928926 157.776 
L 136.854545 141.468 
L 133.780165 125.16 
L 130.705785 88.92 
L 127.631405 78.048 
L 124.557025 67.176 
L 121.482645 59.928 
L 118.408264 56.304 
L 115.333884 54.492 
L 112.259504 52.68 
L 109.185124 52.68 
L 106.110744 52.68 
L 103.036364 52.68 
L 99.961983 52.68 
L 96.887603 52.68 
L 93.813223 52.68 
L 90.738843 52.68 
L 87.664463 52.68 
L 84.590083 52.68 
L 81.515702 52.68 
L 78.441322 52.68 
L 75.366942 52.68 
L 72.292562 52.68 
L 69.218182 52.68 
" clip-path="url(#p4f3a90fa37)" style="fill: none; stroke: #1f77b4; stroke-width: 1.5; stroke-linecap: square"/>
   </g>
   <g id="line2d_18">
    <path d="M 373.581818 233.88 
L 370.507438 233.88 
L 367.433058 233.88 
L 364.358678 233.88 
L 361.284298 233.88 
L 358.209917 233.88 
L 355.135537 233.88 
L 352.061157 233.88 
L 348.986777 233.88 
L 345.912397 233.88 
L 342.838017 233.88 
L 339.763636 233.88 
L 336.689256 233.88 
L 333.614876 233.88 
L 330.540496 233.88 
L 327.466116 233.88 
L 324.391736 233.88 
L 321.317355 233.88 
L 318.242975 233.88 
L 315.168595 233.88 
L 312.094215 233.88 
L 309.019835 233.88 
L 305.945455 233.88 
L 302.871074 233.88 
L 299.796694 233.88 
L 296.722314 233.88 
L 293.647934 233.88 
L 290.573554 233.88 
L 287.499174 233.88 
L 284.424793 233.88 
L 281.350413 233.88 
L 278.276033 232.068 
L 275.201653 233.88 
L 272.127273 233.88 
L 269.052893 232.068 
L 265.978512 233.88 
L 262.904132 232.068 
L 259.829752 232.068 
L 256.755372 230.256 
L 253.680992 233.88 
L 250.606612 228.444 
L 247.532231 228.444 
L 244.457851 226.632 
L 241.383471 221.196 
L 238.309091 232.068 
L 235.234711 221.196 
L 232.160331 224.82 
L 229.08595 226.632 
L 226.01157 221.196 
L 222.93719 217.572 
L 219.86281 201.264 
L 216.78843 208.512 
L 213.71405 190.392 
L 210.639669 170.46 
L 207.565289 165.024 
L 204.490909 155.964 
L 201.416529 141.468 
L 198.342149 130.596 
L 195.267769 92.544 
L 192.193388 83.484 
L 189.119008 74.424 
L 186.044628 68.988 
L 182.970248 58.116 
L 179.895868 54.492 
L 176.821488 54.492 
L 173.747107 54.492 
L 170.672727 52.68 
L 167.598347 52.68 
L 164.523967 52.68 
L 161.449587 52.68 
L 158.375207 52.68 
L 155.300826 52.68 
L 152.226446 52.68 
L 149.152066 52.68 
L 146.077686 52.68 
L 143.003306 52.68 
L 139.928926 52.68 
L 136.854545 52.68 
L 133.780165 52.68 
L 130.705785 52.68 
L 127.631405 52.68 
L 124.557025 52.68 
L 121.482645 52.68 
L 118.408264 52.68 
L 115.333884 52.68 
L 112.259504 52.68 
L 109.185124 52.68 
L 106.110744 52.68 
L 103.036364 52.68 
L 99.961983 52.68 
L 96.887603 52.68 
L 93.813223 52.68 
L 90.738843 52.68 
L 87.664463 52.68 
L 84.590083 52.68 
L 81.515702 52.68 
L 78.441322 52.68 
L 75.366942 52.68 
L 72.292562 52.68 
L 69.218182 52.68 
" clip-path="url(#p4f3a90fa37)" style="fill: none; stroke: #ff7f0e; stroke-width: 1.5; stroke-linecap: square"/>
   </g>
   <g id="LineCollection_1">
    <path d="M 147.048543 233.88 
L 147.048543 52.68 
" clip-path="url(#p4f3a90fa37)" style="fill: none; stroke-dasharray: 1.5,2.475; stroke-dashoffset: 0; stroke: #000000; stroke-opacity: 0.5; stroke-width: 1.5"/>
    <path d="M 211.772336 233.88 
L 211.772336 52.68 
" clip-path="url(#p4f3a90fa37)" style="fill: none; stroke-dasharray: 1.5,2.475; stroke-dashoffset: 0; stroke: #000000; stroke-opacity: 0.5; stroke-width: 1.5"/>
   </g>
   <g id="patch_3">
    <path d="M 54 252 
L 54 34.56 
" style="fill: none; stroke: #000000; stroke-width: 0.8; stroke-linejoin: miter; stroke-linecap: square"/>
   </g>
   <g id="patch_4">
    <path d="M 388.8 252 
L 388.8 34.56 
" style="fill: none; stroke: #000000; stroke-width: 0.8; stroke-linejoin: miter; stroke-linecap: square"/>
   </g>
   <g id="patch_5">
    <path d="M 54 252 
L 388.8 252 
" style="fill: none; stroke: #000000; stroke-width: 0.8; stroke-linejoin: miter; stroke-linecap: square"/>
   </g>
   <g id="patch_6">
    <path d="M 54 34.56 
L 388.8 34.56 
" style="fill: none; stroke: #000000; stroke-width: 0.8; stroke-linejoin: miter; stroke-linecap: square"/>
   </g>
   <g id="legend_1">
    <g id="patch_7">
     <path d="M 280.604688 71.91625 
L 381.8 71.91625 
Q 383.8 71.91625 383.8 69.91625 
L 383.8 41.56 
Q 383.8 39.56 381.8 39.56 
L 280.604688 39.56 
Q 278.604688 39.56 278.604688 41.56 
L 278.604688 69.91625 
Q 278.604688 71.91625 280.604688 71.91625 
z
" style="fill: #ffffff; opacity: 0.8; stroke: #cccccc; stroke-linejoin: miter"/>
    </g>
    <g id="line2d_19">
     <path d="M 282.604688 47.658437 
L 292.604688 47.658437 
L 302.604688 47.658437 
" style="fill: none; stroke: #1f77b4; stroke-width: 1.5; stroke-linecap: square"/>
    </g>
    <g id="text_12">
     <!-- Broken Cycle) -->
     <g transform="translate(310.604688 51.158437)scale(0.1 -0.1)">
      <defs>
       <path id="DejaVuSans-42" d="M 1259 2228 
L 1259 519 
L 2272 519 
Q 2781 519 3026 730 
Q 3272 941 3272 1375 
Q 3272 1813 3026 2020 
Q 2781 2228 2272 2228 
L 1259 2228 
z
M 1259 4147 
L 1259 2741 
L 2194 2741 
Q 2656 2741 2882 2914 
Q 3109 3088 3109 3444 
Q 3109 3797 2882 3972 
Q 2656 4147 2194 4147 
L 1259 4147 
z
M 628 4666 
L 2241 4666 
Q 2963 4666 3353 4366 
Q 3744 4066 3744 3513 
Q 3744 3084 3544 2831 
Q 3344 2578 2956 2516 
Q 3422 2416 3680 2098 
Q 3938 1781 3938 1306 
Q 3938 681 3513 340 
Q 3088 0 2303 0 
L 628 0 
L 628 4666 
z
" transform="scale(0.015625)"/>
       <path id="DejaVuSans-72" d="M 2631 2963 
Q 2534 3019 2420 3045 
Q 2306 3072 2169 3072 
Q 1681 3072 1420 2755 
Q 1159 2438 1159 1844 
L 1159 0 
L 581 0 
L 581 3500 
L 1159 3500 
L 1159 2956 
Q 1341 3275 1631 3429 
Q 1922 3584 2338 3584 
Q 2397 3584 2469 3576 
Q 2541 3569 2628 3553 
L 2631 2963 
z
" transform="scale(0.015625)"/>
       <path id="DejaVuSans-6f" d="M 1959 3097 
Q 1497 3097 1228 2736 
Q 959 2375 959 1747 
Q 959 1119 1226 758 
Q 1494 397 1959 397 
Q 2419 397 2687 759 
Q 2956 1122 2956 1747 
Q 2956 2369 2687 2733 
Q 2419 3097 1959 3097 
z
M 1959 3584 
Q 2709 3584 3137 3096 
Q 3566 2609 3566 1747 
Q 3566 888 3137 398 
Q 2709 -91 1959 -91 
Q 1206 -91 779 398 
Q 353 888 353 1747 
Q 353 2609 779 3096 
Q 1206 3584 1959 3584 
z
" transform="scale(0.015625)"/>
       <path id="DejaVuSans-6b" d="M 581 4863 
L 1159 4863 
L 1159 1991 
L 2875 3500 
L 3609 3500 
L 1753 1863 
L 3688 0 
L 2938 0 
L 1159 1709 
L 1159 0 
L 581 0 
L 581 4863 
z
" transform="scale(0.015625)"/>
       <path id="DejaVuSans-65" d="M 3597 1894 
L 3597 1613 
L 953 1613 
Q 991 1019 1311 708 
Q 1631 397 2203 397 
Q 2534 397 2845 478 
Q 3156 559 3463 722 
L 3463 178 
Q 3153 47 2828 -22 
Q 2503 -91 2169 -91 
Q 1331 -91 842 396 
Q 353 884 353 1716 
Q 353 2575 817 3079 
Q 1281 3584 2069 3584 
Q 2775 3584 3186 3129 
Q 3597 2675 3597 1894 
z
M 3022 2063 
Q 3016 2534 2758 2815 
Q 2500 3097 2075 3097 
Q 1594 3097 1305 2825 
Q 1016 2553 972 2059 
L 3022 2063 
z
" transform="scale(0.015625)"/>
       <path id="DejaVuSans-6e" d="M 3513 2113 
L 3513 0 
L 2938 0 
L 2938 2094 
Q 2938 2591 2744 2837 
Q 2550 3084 2163 3084 
Q 1697 3084 1428 2787 
Q 1159 2491 1159 1978 
L 1159 0 
L 581 0 
L 581 3500 
L 1159 3500 
L 1159 2956 
Q 1366 3272 1645 3428 
Q 1925 3584 2291 3584 
Q 2894 3584 3203 3211 
Q 3513 2838 3513 2113 
z
" transform="scale(0.015625)"/>
       <path id="DejaVuSans-20" transform="scale(0.015625)"/>
       <path id="DejaVuSans-43" d="M 4122 4306 
L 4122 3641 
Q 3803 3938 3442 4084 
Q 3081 4231 2675 4231 
Q 1875 4231 1450 3742 
Q 1025 3253 1025 2328 
Q 1025 1406 1450 917 
Q 1875 428 2675 428 
Q 3081 428 3442 575 
Q 3803 722 4122 1019 
L 4122 359 
Q 3791 134 3420 21 
Q 3050 -91 2638 -91 
Q 1578 -91 968 557 
Q 359 1206 359 2328 
Q 359 3453 968 4101 
Q 1578 4750 2638 4750 
Q 3056 4750 3426 4639 
Q 3797 4528 4122 4306 
z
" transform="scale(0.015625)"/>
       <path id="DejaVuSans-79" d="M 2059 -325 
Q 1816 -950 1584 -1140 
Q 1353 -1331 966 -1331 
L 506 -1331 
L 506 -850 
L 844 -850 
Q 1081 -850 1212 -737 
Q 1344 -625 1503 -206 
L 1606 56 
L 191 3500 
L 800 3500 
L 1894 763 
L 2988 3500 
L 3597 3500 
L 2059 -325 
z
" transform="scale(0.015625)"/>
       <path id="DejaVuSans-63" d="M 3122 3366 
L 3122 2828 
Q 2878 2963 2633 3030 
Q 2388 3097 2138 3097 
Q 1578 3097 1268 2742 
Q 959 2388 959 1747 
Q 959 1106 1268 751 
Q 1578 397 2138 397 
Q 2388 397 2633 464 
Q 2878 531 3122 666 
L 3122 134 
Q 2881 22 2623 -34 
Q 2366 -91 2075 -91 
Q 1284 -91 818 406 
Q 353 903 353 1747 
Q 353 2603 823 3093 
Q 1294 3584 2113 3584 
Q 2378 3584 2631 3529 
Q 2884 3475 3122 3366 
z
" transform="scale(0.015625)"/>
       <path id="DejaVuSans-6c" d="M 603 4863 
L 1178 4863 
L 1178 0 
L 603 0 
L 603 4863 
z
" transform="scale(0.015625)"/>
      </defs>
      <use xlink:href="#DejaVuSans-42"/>
      <use xlink:href="#DejaVuSans-72" x="68.603516"/>
      <use xlink:href="#DejaVuSans-6f" x="107.466797"/>
      <use xlink:href="#DejaVuSans-6b" x="168.648438"/>
      <use xlink:href="#DejaVuSans-65" x="222.933594"/>
      <use xlink:href="#DejaVuSans-6e" x="284.457031"/>
      <use xlink:href="#DejaVuSans-20" x="347.835938"/>
      <use xlink:href="#DejaVuSans-43" x="379.623047"/>
      <use xlink:href="#DejaVuSans-79" x="449.447266"/>
      <use xlink:href="#DejaVuSans-63" x="508.626953"/>
      <use xlink:href="#DejaVuSans-6c" x="563.607422"/>
      <use xlink:href="#DejaVuSans-65" x="591.390625"/>
      <use xlink:href="#DejaVuSans-29" x="652.914062"/>
     </g>
    </g>
    <g id="line2d_20">
     <path d="M 282.604688 62.336562 
L 292.604688 62.336562 
L 302.604688 62.336562 
" style="fill: none; stroke: #ff7f0e; stroke-width: 1.5; stroke-linecap: square"/>
    </g>
    <g id="text_13">
     <!-- Any cycle -->
     <g transform="translate(310.604688 65.836562)scale(0.1 -0.1)">
      <defs>
       <path id="DejaVuSans-41" d="M 2188 4044 
L 1331 1722 
L 3047 1722 
L 2188 4044 
z
M 1831 4666 
L 2547 4666 
L 4325 0 
L 3669 0 
L 3244 1197 
L 1141 1197 
L 716 0 
L 50 0 
L 1831 4666 
z
" transform="scale(0.015625)"/>
      </defs>
      <use xlink:href="#DejaVuSans-41"/>
      <use xlink:href="#DejaVuSans-6e" x="68.408203"/>
      <use xlink:href="#DejaVuSans-79" x="131.787109"/>
      <use xlink:href="#DejaVuSans-20" x="190.966797"/>
      <use xlink:href="#DejaVuSans-63" x="222.753906"/>
      <use xlink:href="#DejaVuSans-79" x="277.734375"/>
      <use xlink:href="#DejaVuSans-63" x="336.914062"/>
      <use xlink:href="#DejaVuSans-6c" x="391.894531"/>
      <use xlink:href="#DejaVuSans-65" x="419.677734"/>
     </g>
    </g>
   </g>
  </g>
 </g>
 <defs>
  <clipPath id="p4f3a90fa37">
   <rect x="54" y="34.56" width="334.8" height="217.44"/>
  </clipPath>
 </defs>
</svg>
